<svg width="1443" height="1218" viewBox="0 0 1443 1218" fill="none" xmlns="http://www.w3.org/2000/svg">
<g opacity="0.15">
<path d="M997.21 801.038L997.007 801.241L930.626 867.622L930.423 867.825L930.22 868.028L863.839 934.409L863.636 934.612L863.433 934.815L823.239 975.009C824.457 976.024 825.675 977.039 826.893 978.054L866.884 938.063L867.087 937.86L867.29 937.657L933.671 871.276L933.874 871.073L934.077 870.87L1000.46 804.489L1000.66 804.286L1000.86 804.083L1001.88 803.068C1000.86 801.85 999.849 800.632 998.834 799.414L997.616 800.632L997.21 801.038Z" fill="#424B8D"/>
<path d="M941.588 878.99L941.385 879.193L941.182 879.396L874.801 945.98L874.598 946.183L874.395 946.386L835.622 985.159C837.043 985.971 838.261 986.986 839.682 987.798L877.643 949.837L877.846 949.634L878.049 949.431L944.43 883.05L944.633 882.847L944.836 882.644L1010.81 816.669C1010 815.248 1009.19 814.03 1008.17 812.609L1007.97 812.812L941.588 878.99Z" fill="#424B8D"/>
<path d="M974.88 912.688L974.677 912.891L908.296 979.272L908.093 979.475L907.89 979.678L883.53 1004.04C885.56 1004.44 887.387 1004.65 889.417 1004.85L911.341 982.926L911.544 982.723L911.747 982.52L978.128 916.139L978.331 915.936L978.534 915.733L1028.27 865.998C1028.07 863.968 1027.66 862.141 1027.46 860.111L975.083 912.485L974.88 912.688Z" fill="#424B8D"/>
<path d="M952.55 890.358L952.347 890.561L885.966 956.942L885.763 957.145L885.56 957.348L849.832 993.076C851.253 993.888 852.877 994.497 854.501 995.106L889.011 960.596L889.214 960.393L889.417 960.19L955.798 893.809L956.001 893.606L956.204 893.403L1018.73 830.879C1018.12 829.255 1017.31 827.834 1016.7 826.21L952.956 889.952L952.55 890.358Z" fill="#424B8D"/>
<path d="M963.715 901.523L963.512 901.726L896.928 968.31L896.725 968.513L896.522 968.716L865.463 999.775C867.087 1000.38 868.914 1000.79 870.538 1001.4L899.77 972.167L899.973 971.964L900.176 971.761L966.557 905.38L966.76 905.177L966.963 904.974L1024.21 847.728C1023.8 846.104 1023.19 844.277 1022.58 842.653L963.918 901.32L963.715 901.523Z" fill="#424B8D"/>
<path d="M997.21 935.018L997.007 935.221L930.626 1001.6L930.423 1001.8L930.22 1002.01L928.596 1003.63C929.611 1003.43 930.626 1003.23 931.641 1003.02C931.844 1003.02 931.844 1003.02 932.047 1003.02C933.874 1002.62 935.498 1002.21 937.325 1001.8L1000.46 938.672L1000.66 938.469L1000.86 938.266L1025.02 914.109C1025.83 911.267 1026.44 908.222 1027.05 905.38L997.616 934.815L997.21 935.018Z" fill="#424B8D"/>
<path d="M1008.38 946.183L1008.17 946.386L962.903 991.655C969.602 988.001 976.301 983.738 982.391 978.866L1002.08 959.175C1004.92 955.521 1007.77 951.664 1010.2 947.807L1010.41 947.604C1012.03 944.965 1013.45 942.326 1014.87 939.687L1008.58 945.98L1008.38 946.183Z" fill="#424B8D"/>
<path d="M986.045 923.853L985.842 924.056L919.258 990.64L919.055 990.843L918.852 991.046L903.83 1006.07C906.063 1006.07 908.296 1006.07 910.732 1005.86L922.303 994.294L922.506 994.091L922.709 993.888L989.09 927.507L989.293 927.304L989.496 927.101L1028.88 887.719C1029.08 885.486 1029.08 883.253 1029.08 880.817L986.248 923.65L986.045 923.853Z" fill="#424B8D"/>
<path d="M844.351 782.159L844.554 781.956L862.215 764.295C858.358 765.716 854.501 767.34 850.644 769.167L841.103 778.708L840.9 778.911L840.697 779.114L791.977 827.834C790.15 831.691 788.526 835.345 787.105 839.405L843.945 782.565L844.351 782.159Z" fill="#424B8D"/>
<path d="M844.351 916.139L844.554 915.936L910.935 849.555L911.138 849.352L911.341 849.149L977.722 782.768L977.925 782.565L978.128 782.362L978.534 781.956C977.316 781.144 976.098 780.129 974.88 779.317C974.677 779.317 974.677 779.114 974.474 779.114L974.271 779.317L974.068 779.52L907.687 845.901L907.484 846.104L907.281 846.307L840.9 912.688L840.697 912.891L840.494 913.094L801.518 952.07C802.33 953.288 803.345 954.709 804.36 955.927L843.945 916.342L844.351 916.139Z" fill="#424B8D"/>
<path d="M822.021 893.809L822.224 893.606L888.605 827.225L888.808 827.022L889.011 826.819L950.114 765.716C948.49 765.107 946.866 764.498 945.242 763.889L885.763 823.368L885.56 823.571L885.357 823.774L818.976 890.155L818.773 890.358L818.57 890.561L786.902 922.229C787.511 923.853 788.12 925.477 788.729 927.101L821.818 894.012L822.021 893.809Z" fill="#424B8D"/>
<path d="M799.691 871.479L799.894 871.276L866.275 804.895L866.478 804.692L866.681 804.489L913.98 757.19C911.95 756.987 909.717 756.987 907.687 756.784L863.636 800.835L863.433 801.038L863.23 801.241L796.849 867.622L796.646 867.825L796.443 868.028L780.203 884.268C780.203 886.298 780.406 888.531 780.609 890.561L799.691 871.479V871.479Z" fill="#424B8D"/>
<path d="M833.186 904.974L833.389 904.771L899.77 838.39L899.973 838.187L900.176 837.984L965.339 772.821C963.918 772.009 962.497 771.197 960.873 770.588L896.928 834.33L896.725 834.533L896.522 834.736L830.141 901.32L829.938 901.523L829.735 901.726L793.398 937.86C794.21 939.281 794.819 940.702 795.631 942.326L832.78 905.177L833.186 904.974Z" fill="#424B8D"/>
<path d="M810.856 882.644L811.059 882.441L877.44 816.06L877.643 815.857L877.846 815.654L933.062 760.438C931.235 760.032 929.408 759.626 927.581 759.22L874.801 812L874.598 812.203L874.395 812.406L807.811 878.99L807.608 879.193L807.405 879.396L782.233 904.568C782.639 906.395 783.045 908.222 783.451 910.049L810.856 882.644Z" fill="#424B8D"/>
<path d="M788.526 860.314L788.729 860.111L855.11 793.73L855.313 793.527L855.516 793.324L891.041 757.799C888.402 758.002 885.763 758.408 883.327 758.814L852.471 789.67L852.268 789.873L852.065 790.076L785.481 856.66L785.278 856.863L785.075 857.066L781.827 860.314C781.421 862.953 781.015 865.389 780.812 868.028L788.526 860.314V860.314Z" fill="#424B8D"/>
<path d="M855.516 927.304L855.719 927.101L922.1 860.72L922.303 860.517L922.506 860.314L988.887 793.933L989.09 793.73L989.293 793.527L990.714 792.106C989.496 791.091 988.481 789.873 987.263 788.858L986.045 790.076L985.842 790.279L985.639 790.482L919.258 856.66L919.055 856.863L918.852 857.066L852.471 923.65L852.268 923.853L852.065 924.056L811.668 964.453C812.683 965.671 813.698 966.686 814.916 967.904L855.313 927.507L855.516 927.304Z" fill="#424B8D"/>
<path d="M169.376 356.874C235.859 356.874 289.755 302.978 289.755 236.495C289.755 170.011 235.859 116.116 169.376 116.116C102.892 116.116 48.9968 170.011 48.9968 236.495C48.9968 302.978 102.892 356.874 169.376 356.874Z" fill="#E14B8A"/>
<path d="M196.781 139.258C188.458 147.581 188.458 160.979 196.781 169.505C205.104 177.828 218.502 177.828 227.028 169.505L396.33 0H336.039L196.781 139.258Z" fill="#F7941E"/>
<path d="M365.271 119.973C356.948 111.65 343.55 111.65 335.024 119.973L183.789 271.208C175.466 279.531 175.466 292.929 183.789 301.455C192.112 309.778 205.51 309.778 214.036 301.455L365.271 150.22C373.594 141.897 373.594 128.296 365.271 119.973Z" fill="#68C9E2"/>
<path d="M535.588 1078.74C543.911 1070.42 543.911 1057.02 535.588 1048.5C527.265 1039.97 513.867 1040.17 505.341 1048.5L336.039 1218H396.33L535.588 1078.74Z" fill="#F7941E"/>
<path d="M560.151 1023.93C568.474 1032.25 581.872 1032.25 590.398 1023.93L699.206 915.124C707.529 906.801 707.529 893.403 699.206 884.877C690.883 876.554 677.485 876.554 668.959 884.877L560.151 993.685C551.828 1002.21 551.828 1015.61 560.151 1023.93Z" fill="#F7941E"/>
<path d="M1291.97 616.511C1300.29 624.834 1313.69 624.834 1322.21 616.511L1592.2 346.521V286.23L1291.97 586.264C1283.64 594.587 1283.64 608.188 1291.97 616.511Z" fill="#F7941E"/>
<path d="M4.337 307.748C12.66 299.425 12.66 286.027 4.337 277.501C-3.986 269.178 -17.384 269.178 -25.91 277.501L-32 283.591V343.882L4.337 307.748Z" fill="#F7941E"/>
<path d="M1169.96 768.558L1266.59 671.93C1274.91 663.607 1274.91 650.209 1266.59 641.683C1258.27 633.36 1244.87 633.36 1236.34 641.683L1139.72 738.311C1131.39 746.634 1131.39 760.032 1139.72 768.558C1148.04 776.881 1161.64 776.881 1169.96 768.558Z" fill="#F7941E"/>
<path d="M1377.63 32.074C1366.67 21.112 1349.01 21.112 1338.05 32.074L1210.97 159.152C1200.01 170.114 1200.01 187.775 1210.97 198.737C1221.93 209.699 1239.59 209.699 1250.55 198.737L1377.63 71.659C1388.59 60.9 1388.59 43.036 1377.63 32.074Z" fill="#68C9E2"/>
<path d="M615.773 598.038C604.811 609 604.811 626.661 615.773 637.623C626.735 648.585 644.396 648.585 655.358 637.623L681.951 611.03C692.913 600.068 692.913 582.407 681.951 571.445C670.989 560.483 653.328 560.483 642.366 571.445L615.773 598.038Z" fill="#68C9E2"/>
<path d="M382.12 627.676L959.249 50.5469C962.903 46.8929 962.903 41.0059 959.249 37.3519C955.595 33.698 949.708 33.698 946.054 37.3519L368.925 614.481C365.271 618.135 365.271 624.022 368.925 627.676C372.579 631.33 378.466 631.33 382.12 627.676Z" fill="white"/>
<path d="M1592 769.979V743.589L1117.59 1218H1143.98L1592 769.979Z" fill="white"/>
<path d="M1296.84 382.249C1293.18 385.903 1293.18 391.79 1296.84 395.444C1300.49 399.098 1306.38 399.098 1310.03 395.444L1592 113.68V87.29L1296.84 382.249Z" fill="white"/>
<path d="M1117.18 0L940.37 177.016C936.716 180.67 936.716 186.557 940.37 190.211C944.024 193.865 949.911 193.865 953.565 190.211L1143.78 0H1117.18Z" fill="white"/>
<path d="M55.29 0L-32 87.29V113.68L81.68 0H55.29Z" fill="white"/>
<path d="M80.259 655.69C83.913 652.036 83.913 646.149 80.259 642.495C76.605 638.841 70.718 638.841 67.064 642.495L-32 741.559V767.949L80.259 655.69Z" fill="white"/>
<path d="M227.84 481.719L110.912 598.647C107.258 602.301 107.258 608.188 110.912 611.842C114.566 615.496 120.453 615.496 124.107 611.842L241.035 494.914C244.689 491.26 244.689 485.373 241.035 481.719C237.381 478.065 231.494 478.065 227.84 481.719Z" fill="white"/>
<path d="M32.96 544.446C29.306 540.792 23.419 540.792 19.765 544.446L-32 596.211V622.601L32.96 557.641C36.614 553.987 36.614 548.1 32.96 544.446Z" fill="#E14B8A"/>
<path d="M13.269 1081.99C2.51 1092.75 2.51 1110 13.269 1120.76C24.028 1131.52 41.283 1131.52 52.042 1120.76L334.821 837.984C345.58 827.225 345.58 809.97 334.821 799.211C324.062 788.452 306.807 788.452 296.048 799.211L260.929 834.33C250.17 845.089 232.915 845.089 222.156 834.33C211.397 823.571 211.397 806.316 222.156 795.557L318.378 699.335C329.137 688.576 329.137 671.321 318.378 660.562C307.619 649.803 290.364 649.803 279.605 660.562L123.092 817.075C112.333 827.834 95.078 827.834 84.319 817.075C73.56 806.316 73.56 789.061 84.319 778.302L140.144 722.477C150.903 711.718 150.903 694.463 140.144 683.704C129.385 672.945 112.13 672.945 101.371 683.704L-32 817.075V1049.51L81.274 936.236C92.033 925.477 109.288 925.477 120.047 936.236C130.806 946.995 130.806 964.25 120.047 975.009L13.269 1081.99Z" fill="#424B8D"/>
<path d="M1211.58 353.423C1200.82 342.664 1183.56 342.664 1172.81 353.423L1137.69 388.542C1126.93 399.301 1109.67 399.301 1098.91 388.542C1088.15 377.783 1088.15 360.528 1098.91 349.769L1195.14 253.547C1205.89 242.788 1205.89 225.533 1195.14 214.774C1184.38 204.015 1167.12 204.015 1156.36 214.774L999.849 371.287C989.09 382.046 971.835 382.046 961.076 371.287C950.317 360.528 950.317 343.273 961.076 332.514L1016.9 276.689C1027.66 265.93 1027.66 248.675 1016.9 237.916C1006.14 227.157 988.887 227.157 978.128 237.916L695.349 520.898C684.59 531.657 684.59 548.912 695.349 559.671C706.108 570.43 723.363 570.43 734.122 559.671L761.527 532.266C772.286 521.507 789.541 521.507 800.3 532.266C811.059 543.025 811.059 560.28 800.3 571.039L672.004 699.335C661.245 710.094 661.245 727.349 672.004 738.108C682.763 748.867 700.018 748.867 710.777 738.108L958.031 490.854C968.79 480.095 986.045 480.095 996.804 490.854C1007.56 501.613 1007.56 518.868 996.804 529.627L890.026 636.405C879.267 647.164 879.267 664.419 890.026 675.178C900.785 685.937 918.04 685.937 928.799 675.178L1211.58 392.399C1222.13 381.64 1222.13 364.182 1211.58 353.423Z" fill="#68C9E2"/>
<path d="M1592 817.075L1442.59 966.483C1431.83 977.242 1431.83 994.497 1442.59 1005.26C1453.35 1016.01 1470.61 1016.01 1481.36 1005.26L1508.77 977.851C1519.53 967.092 1536.78 967.092 1547.54 977.851C1558.3 988.61 1558.3 1005.86 1547.54 1016.62L1419.25 1144.92C1408.49 1155.68 1408.49 1172.93 1419.25 1183.69C1430.01 1194.45 1447.26 1194.45 1458.02 1183.69L1592 1049.71V817.075Z" fill="#424B8D"/>
<path d="M535.588 313.838L557.715 291.711C568.068 281.358 568.068 264.509 557.715 254.156C547.362 243.803 530.513 243.803 520.16 254.156L498.033 276.283C487.68 286.636 487.68 303.485 498.033 313.838C508.386 324.191 525.235 324.191 535.588 313.838Z" fill="#E14B8A"/>
<path d="M594.864 66.99C605.217 77.343 622.066 77.343 632.419 66.99L661.245 38.164C671.598 27.811 688.447 27.811 698.8 38.164C709.153 48.517 709.153 65.366 698.8 75.719L577 197.519C566.647 207.872 566.647 224.721 577 235.074C587.353 245.427 604.202 245.427 614.555 235.074L669.974 179.655C680.327 169.302 697.176 169.302 707.529 179.655C717.882 190.008 734.731 190.008 745.084 179.655L924.739 0H624.299L594.864 29.435C584.511 39.788 584.511 56.434 594.864 66.99Z" fill="#E14B8A"/>
<path d="M1078.41 989.016L1015.28 1052.15C1004.92 1062.5 1004.92 1079.35 1015.28 1089.7C1025.63 1100.06 1042.48 1100.06 1052.83 1089.7L1115.97 1026.57C1126.32 1016.22 1126.32 999.369 1115.97 989.016C1105.61 978.663 1088.76 978.663 1078.41 989.016Z" fill="#E14B8A"/>
<path d="M998.428 1144.31C1008.78 1133.96 1008.78 1117.11 998.428 1106.76C988.075 1096.4 971.226 1096.4 960.873 1106.76L897.943 1169.69C887.59 1180.04 870.741 1180.04 860.388 1169.69C850.035 1159.33 850.035 1142.48 860.388 1132.13L878.049 1114.47C888.402 1104.12 888.402 1087.27 878.049 1076.92C867.696 1066.56 867.696 1049.71 878.049 1039.36L975.489 941.92C985.842 931.567 985.842 914.718 975.489 904.365C965.136 894.012 948.287 894.012 937.934 904.365L624.096 1218H924.536L998.428 1144.31Z" fill="#E14B8A"/>
<path d="M306.401 875.336L306.198 875.539L220.938 960.799L220.735 961.002L220.532 961.205L135.272 1046.46L135.069 1046.67L134.866 1046.87L83.1013 1098.64C84.7253 1100.06 86.1463 1101.27 87.7703 1102.49L138.52 1051.74L138.723 1051.54L138.926 1051.34L224.186 966.077L224.389 965.874L224.592 965.671L309.852 880.411L310.055 880.208L310.258 880.005L311.476 878.787C310.258 877.163 308.837 875.742 307.619 874.118L305.995 875.742L306.401 875.336Z" fill="#68C9E2"/>
<path d="M235.148 975.212L234.945 975.415L234.742 975.618L149.482 1060.88L149.279 1061.08L149.076 1061.28L99.3413 1111.02C101.168 1112.24 102.792 1113.25 104.619 1114.47L153.542 1065.55L153.745 1065.34L153.948 1065.14L239.208 979.881L239.411 979.678L239.614 979.475L324.265 894.824C323.25 892.997 322.032 891.373 320.814 889.546L320.611 889.749L235.148 975.212Z" fill="#68C9E2"/>
<path d="M277.778 1018.45L277.575 1018.65L192.315 1103.91L192.112 1104.12L191.909 1104.32L160.647 1135.58C163.083 1135.99 165.722 1136.39 168.158 1136.6L196.375 1108.38L196.578 1108.18L196.781 1107.97L282.041 1022.71L282.244 1022.51L282.447 1022.31L346.392 958.363C345.986 955.927 345.783 953.288 345.377 950.852L278.184 1018.05L277.778 1018.45Z" fill="#68C9E2"/>
<path d="M249.155 989.828L248.952 990.031L163.692 1075.29L163.489 1075.49L163.286 1075.7L117.408 1121.58C119.438 1122.59 121.265 1123.4 123.295 1124.21L167.752 1079.76L167.955 1079.55L168.158 1079.35L253.418 994.091L253.621 993.888L253.824 993.685L334.009 913.5C333.197 911.47 332.182 909.643 331.37 907.613L249.561 989.422L249.155 989.828Z" fill="#68C9E2"/>
<path d="M263.365 1004.24L263.162 1004.44L177.902 1089.7L177.699 1089.91L177.496 1090.11L137.505 1130.1C139.738 1130.91 141.971 1131.52 144.001 1132.13L181.556 1094.58L181.759 1094.37L181.962 1094.17L267.222 1008.91L267.425 1008.71L267.628 1008.5L341.114 935.018C340.505 932.785 339.896 930.552 339.084 928.522L263.365 1004.24Z" fill="#68C9E2"/>
<path d="M306.401 1047.28L306.198 1047.48L220.938 1132.74L220.735 1132.94L220.532 1133.15L218.502 1135.18C219.72 1134.97 221.141 1134.57 222.359 1134.36C222.562 1134.36 222.765 1134.36 222.765 1134.16C224.998 1133.76 227.231 1133.15 229.464 1132.54L310.664 1051.34L310.867 1051.13L311.07 1050.93L342.129 1019.87C343.144 1016.22 343.956 1012.36 344.768 1008.71L306.807 1046.67L306.401 1047.28Z" fill="#68C9E2"/>
<path d="M320.814 1061.49L320.611 1061.69L262.35 1119.95C271.079 1115.28 279.402 1109.8 287.319 1103.51L312.491 1078.34C316.145 1073.67 319.596 1068.8 322.844 1063.72C322.844 1063.52 323.047 1063.52 323.047 1063.31C325.077 1060.07 327.107 1056.62 328.934 1053.16L321.017 1061.08L320.814 1061.49Z" fill="#68C9E2"/>
<path d="M292.191 1032.86L291.988 1033.07L206.728 1118.33L206.525 1118.53L206.322 1118.73L187.037 1138.02C189.879 1138.02 192.924 1138.02 195.766 1137.81L210.585 1123L210.788 1122.79L210.991 1122.59L296.251 1037.33L296.454 1037.13L296.657 1036.92L347.407 986.174C347.61 983.332 347.61 980.287 347.61 977.445L292.394 1032.66L292.191 1032.86Z" fill="#68C9E2"/>
<path d="M110.303 850.976L110.506 850.773L133.242 828.037C128.167 829.864 123.295 831.894 118.423 834.127L106.04 846.51L105.837 846.713L105.634 846.916L43.3131 909.44C41.0801 914.312 38.8471 919.184 37.2231 924.259L110.1 851.382L110.303 850.976Z" fill="#68C9E2"/>
<path d="M110.303 1022.92L110.506 1022.71L195.766 937.454L195.969 937.251L196.172 937.048L281.432 851.788L281.635 851.585L281.838 851.382L282.447 850.773C281.026 849.555 279.402 848.54 277.778 847.525C277.575 847.525 277.575 847.322 277.372 847.322L277.169 847.525L276.966 847.728L191.706 932.988L191.503 933.191L191.3 933.394L106.04 1018.65L105.837 1018.86L105.634 1019.06L55.4932 1069.2C56.7112 1070.83 57.9292 1072.65 59.1472 1074.28L109.897 1023.53L110.303 1022.92Z" fill="#68C9E2"/>
<path d="M81.6803 994.294L81.8833 994.091L167.143 908.831L167.346 908.628L167.549 908.425L245.907 830.067C243.877 829.255 241.644 828.443 239.614 827.834L163.286 904.162L163.083 904.365L162.88 904.568L77.6203 989.828L77.4173 990.031L77.2143 990.234L36.6143 1030.83C37.4263 1032.86 38.0353 1035.1 38.8473 1037.13L81.4773 994.497L81.6803 994.294Z" fill="#68C9E2"/>
<path d="M53.0571 965.468L53.2601 965.265L138.52 880.005L138.723 879.802L138.926 879.599L199.42 819.105C196.781 818.902 193.939 818.699 191.3 818.699L134.866 875.133L134.663 875.336L134.46 875.539L49.2001 960.799L48.9971 961.002L48.7941 961.205L28.0881 981.911C28.0881 984.55 28.2911 987.392 28.4941 990.031L53.0571 965.468Z" fill="#68C9E2"/>
<path d="M95.8904 1008.5L96.0934 1008.3L181.353 923.041L181.556 922.838L181.759 922.635L265.192 839.202C263.365 838.187 261.538 837.172 259.508 836.157L177.293 918.372L177.09 918.575L176.887 918.778L91.6274 1004.04L91.4244 1004.24L91.2214 1004.44L44.7344 1050.93C45.7494 1052.76 46.7644 1054.58 47.7794 1056.61L95.6874 1008.91L95.8904 1008.5Z" fill="#68C9E2"/>
<path d="M67.2673 979.881L67.4703 979.678L152.73 894.418L152.933 894.215L153.136 894.012L223.983 823.165C221.547 822.556 219.314 822.15 216.878 821.744L148.67 889.952L148.467 890.155L148.264 890.358L63.0043 975.618L62.8013 975.821L62.5983 976.024L30.3213 1008.3C30.7273 1010.74 31.3363 1012.97 31.7423 1015.41L66.8613 980.287L67.2673 979.881Z" fill="#68C9E2"/>
<path d="M38.644 951.258L38.847 951.055L124.107 865.795L124.31 865.592L124.513 865.389L170.188 819.714C166.94 820.12 163.489 820.526 160.241 821.135L120.656 860.72L120.453 860.923L120.25 861.126L34.99 946.386L34.787 946.589L34.584 946.792L30.524 950.852C29.915 954.1 29.509 957.551 29.103 960.799L38.847 951.055L38.644 951.258Z" fill="#68C9E2"/>
<path d="M124.513 1037.13L124.716 1036.92L209.976 951.664L210.179 951.461L210.382 951.258L295.642 865.998L295.845 865.795L296.048 865.592L297.875 863.765C296.454 862.344 294.83 860.923 293.409 859.705L291.785 861.329L291.582 861.532L291.379 861.735L206.119 946.995L205.916 947.198L205.713 947.401L120.453 1032.66L120.25 1032.86L120.047 1033.07L68.282 1084.83C69.703 1086.25 70.921 1087.88 72.342 1089.3L124.31 1037.53L124.513 1037.13Z" fill="#68C9E2"/>
<path d="M1515.67 488.824L1463.3 541.198L1463.1 541.401L1462.89 541.604L1410.72 593.775L1410.52 593.978L1410.32 594.181L1378.85 625.646C1379.87 626.458 1380.68 627.27 1381.69 628.082L1412.95 596.82L1413.16 596.617L1413.36 596.414L1465.53 544.243L1465.73 544.04L1465.94 543.837L1518.11 491.666L1518.31 491.463L1518.51 491.26L1519.33 490.448C1518.51 489.433 1517.7 488.621 1516.89 487.606L1515.67 488.824Z" fill="#F7941E"/>
<path d="M1472.03 549.724L1471.62 550.13L1419.45 602.301L1419.25 602.504L1419.04 602.707L1388.59 633.157C1389.61 633.766 1390.62 634.578 1391.84 635.187L1421.68 605.346L1421.89 605.143L1422.09 604.94L1474.26 552.769L1474.46 552.566L1474.67 552.363L1526.43 500.598C1525.82 499.583 1525.01 498.365 1524.4 497.35L1524.2 497.553L1472.03 549.724Z" fill="#F7941E"/>
<path d="M1498.21 576.317L1445.84 628.488L1445.64 628.691L1445.43 628.894L1426.35 647.976C1427.77 648.179 1429.4 648.382 1431.02 648.585L1448.28 631.33L1448.48 631.127L1448.68 630.924L1500.85 578.753L1501.06 578.55L1501.26 578.347L1540.23 539.371C1540.03 537.747 1539.83 536.326 1539.63 534.702L1498.21 576.317Z" fill="#F7941E"/>
<path d="M1480.55 558.656L1428.38 611.03L1428.18 611.233L1427.98 611.436L1399.96 639.45C1401.18 640.059 1402.4 640.668 1403.62 641.074L1430.61 614.075L1430.82 613.872L1431.02 613.669L1483.19 561.498L1483.39 561.295L1483.6 561.092L1532.52 512.169C1531.91 510.951 1531.51 509.733 1530.9 508.515L1480.55 558.656Z" fill="#F7941E"/>
<path d="M1489.48 567.385L1437.11 619.759L1436.91 619.962L1436.7 620.165L1412.34 644.525C1413.77 644.931 1414.98 645.337 1416.4 645.743L1439.34 622.804L1439.55 622.601L1439.75 622.398L1491.92 570.227L1492.12 570.024L1492.33 569.821L1537.19 524.958C1536.78 523.537 1536.38 522.319 1535.97 520.898L1489.48 567.385Z" fill="#F7941E"/>
<path d="M1506.94 585.046L1454.57 637.42L1454.37 637.623L1454.16 637.826L1442.39 649.6C1444.22 649.6 1446.04 649.6 1447.67 649.397L1456.8 640.262L1457 640.059L1457.21 639.856L1509.38 587.685L1509.58 587.482L1509.78 587.279L1540.64 556.423C1540.64 554.596 1540.84 552.769 1540.84 551.145L1506.94 585.046Z" fill="#F7941E"/>
<path d="M1395.9 474.005L1409.91 459.998C1406.86 461.013 1403.82 462.434 1400.98 463.855L1393.47 471.366L1393.26 471.569L1393.06 471.772L1354.9 509.53C1353.48 512.575 1352.26 515.417 1351.04 518.462L1395.9 474.005Z" fill="#F7941E"/>
<path d="M1395.9 578.753L1448.28 526.379L1448.48 526.176L1448.68 525.973L1500.85 473.802L1501.06 473.599L1501.26 473.396L1501.66 472.99C1500.65 472.381 1499.84 471.569 1498.82 470.96L1498.62 470.757L1498.42 470.96L1498.21 471.163L1445.84 523.537L1445.64 523.74L1445.43 523.943L1393.26 576.114L1393.06 576.317L1392.86 576.52L1362.41 606.97C1363.02 607.985 1363.83 609 1364.64 610.015L1395.9 578.753Z" fill="#F7941E"/>
<path d="M1378.44 561.295L1430.82 508.921L1431.02 508.718L1431.22 508.515L1479.13 460.607C1477.91 460.201 1476.49 459.592 1475.28 459.186L1428.58 505.876L1428.38 506.079L1428.18 506.282L1376.01 558.453L1375.8 558.656L1375.6 558.859L1350.84 583.625C1351.24 584.843 1351.85 586.264 1352.26 587.482L1378.44 561.295Z" fill="#F7941E"/>
<path d="M1360.78 543.837L1413.16 491.463L1413.36 491.26L1413.56 491.057L1450.51 454.111C1448.89 453.908 1447.26 453.908 1445.43 453.908L1410.92 488.418L1410.72 488.621L1410.52 488.824L1358.35 540.995L1358.14 541.198L1357.94 541.401L1345.35 553.987C1345.35 555.611 1345.56 557.235 1345.56 559.062L1360.78 543.837Z" fill="#F7941E"/>
<path d="M1387.17 570.024L1439.55 517.65L1439.75 517.447L1439.95 517.244L1490.91 466.291C1489.69 465.682 1488.67 465.073 1487.46 464.464L1437.31 514.605L1437.11 514.808L1436.91 515.011L1384.74 567.182L1384.53 567.385L1384.33 567.588L1355.91 596.008C1356.52 597.226 1357.13 598.241 1357.74 599.459L1387.17 570.024Z" fill="#F7941E"/>
<path d="M1369.51 552.566L1421.89 500.192L1422.09 499.989L1422.29 499.786L1465.53 456.547C1464.11 456.141 1462.69 455.938 1461.27 455.532L1419.65 497.35L1419.45 497.553L1419.25 497.756L1367.08 549.927L1366.87 550.13L1366.67 550.333L1346.98 570.024C1347.18 571.445 1347.59 572.866 1347.99 574.287L1369.51 552.566Z" fill="#F7941E"/>
<path d="M1352.05 535.108L1404.43 482.734L1404.63 482.531L1404.83 482.328L1432.64 454.517C1430.61 454.72 1428.58 454.923 1426.55 455.329L1402.19 479.689L1401.99 479.892L1401.79 480.095L1349.62 532.266L1349.41 532.469L1349.21 532.672L1346.78 535.108C1346.37 537.138 1346.17 539.168 1345.96 541.198L1352.05 535.108Z" fill="#F7941E"/>
<path d="M1404.63 587.685L1457.01 535.311L1457.21 535.108L1457.41 534.905L1509.58 482.734L1509.78 482.531L1509.99 482.328L1511 481.313C1510.19 480.501 1509.18 479.689 1508.36 478.877L1507.35 479.892L1507.15 480.095L1506.94 480.298L1454.77 532.469L1454.57 532.672L1454.37 532.875L1402.2 585.046L1401.99 585.249L1401.79 585.452L1370.12 617.12C1370.93 618.135 1371.75 618.947 1372.56 619.759L1404.63 587.685Z" fill="#F7941E"/>
<path d="M482.402 91.553L430.028 143.927L429.825 144.13L429.622 144.333L377.451 196.504L377.248 196.707L377.045 196.91L345.58 228.375C346.595 229.187 347.407 229.999 348.422 230.811L379.684 199.549L379.887 199.346L380.09 199.143L432.261 146.972L432.464 146.769L432.667 146.566L484.838 94.395L485.041 94.192L485.244 93.989L486.056 93.177C485.244 92.162 484.432 91.35 483.62 90.335L482.402 91.553Z" fill="white"/>
<path d="M438.96 152.453L438.554 152.859L386.383 205.03L386.18 205.233L385.977 205.436L355.527 235.886C356.542 236.495 357.557 237.307 358.775 237.916L388.616 208.075L388.819 207.872L389.022 207.669L441.193 155.498L441.396 155.295L441.599 155.092L493.161 103.53C492.552 102.515 491.74 101.297 491.131 100.282L490.928 100.485L438.96 152.453Z" fill="white"/>
<path d="M464.944 178.843L412.57 231.217V231.42L412.367 231.623L393.285 250.705C394.706 250.908 396.33 251.111 397.954 251.314L415.209 234.059L415.412 233.856L415.615 233.653L467.38 181.685L467.583 181.482L467.786 181.279L506.762 142.303C506.559 140.679 506.356 139.258 506.153 137.634L464.944 178.843Z" fill="white"/>
<path d="M447.486 161.385L395.112 213.759L394.909 213.962L394.706 214.165L366.692 242.179C367.91 242.788 369.128 243.397 370.346 243.803L397.345 216.804L397.548 216.601L397.751 216.398L449.922 164.227L450.125 164.024L450.328 163.821L499.251 114.898C498.642 113.68 498.236 112.462 497.627 111.244L447.486 161.385Z" fill="white"/>
<path d="M456.215 170.114L403.841 222.488L403.638 222.691L403.435 222.894L379.075 247.254C380.496 247.66 381.714 248.066 383.135 248.472L406.074 225.533L406.277 225.33L406.48 225.127L458.651 172.956L458.854 172.753L459.057 172.55L503.92 127.89C503.514 126.469 503.108 125.251 502.702 123.83L456.215 170.114Z" fill="white"/>
<path d="M482.402 196.504L430.028 248.878L429.825 249.081L429.622 249.284L428.404 250.502C429.216 250.299 430.028 250.096 430.84 250.096H431.043C432.464 249.69 433.885 249.487 435.103 249.081L484.635 199.549L484.838 199.346L485.041 199.143L503.92 180.264C504.529 178.031 505.138 175.798 505.544 173.362L482.402 196.504Z" fill="white"/>
<path d="M491.131 205.233L455.403 240.961C460.681 238.119 465.756 234.871 470.628 231.014L486.056 215.586C488.289 212.744 490.522 209.699 492.349 206.654C492.349 206.654 492.349 206.451 492.552 206.451C493.77 204.421 494.988 202.391 496.206 200.361L491.131 205.233Z" fill="white"/>
<path d="M473.673 187.775L421.299 240.149L421.096 240.352L420.893 240.555L409.119 252.329C410.946 252.329 412.773 252.329 414.397 252.126L423.532 242.991L423.735 242.788L423.938 242.585L476.109 190.414L476.312 190.211L476.515 190.008L507.371 159.152C507.371 157.325 507.574 155.498 507.574 153.874L473.673 187.775Z" fill="white"/>
<path d="M362.633 76.7339L376.64 62.7269C373.595 63.7419 370.55 65.1629 367.708 66.5839L360.197 74.0949L359.994 74.2979L359.791 74.5009L321.627 112.665C320.206 115.71 318.988 118.552 317.77 121.597L362.633 76.7339Z" fill="white"/>
<path d="M362.632 181.482L415.006 129.108L415.209 128.905L415.412 128.702L467.38 76.734L467.583 76.531L467.786 76.328L468.192 75.922C467.177 75.313 466.365 74.501 465.35 73.892L465.147 73.689L464.944 73.892L464.741 74.095L412.57 126.266L412.367 126.469L412.164 126.672L359.993 178.843L359.79 179.046L359.587 179.249L329.34 209.699C329.949 210.714 330.761 211.729 331.573 212.744L362.632 181.482Z" fill="white"/>
<path d="M345.174 164.024L397.548 111.65L397.751 111.447L397.954 111.244L445.862 63.3359C444.644 62.9299 443.223 62.3209 442.005 61.9149L395.315 108.605L395.112 108.808L394.909 109.011L342.738 161.182L342.535 161.385L342.332 161.588L317.566 186.354C317.972 187.572 318.581 188.993 318.987 190.211L345.174 164.024Z" fill="white"/>
<path d="M327.716 146.566L380.09 94.192L380.293 93.989L380.496 93.786L417.442 56.84C415.818 56.637 414.194 56.637 412.367 56.637L377.857 91.147L377.654 91.35L377.451 91.553L325.28 143.724L325.077 143.927L324.874 144.13L312.288 156.716C312.288 158.34 312.491 159.964 312.491 161.791L327.716 146.566Z" fill="white"/>
<path d="M353.903 172.753L406.277 120.379L406.48 120.176L406.683 119.973L457.636 69.02C456.418 68.411 455.403 67.802 454.185 67.193L404.044 117.334L403.841 117.537L403.638 117.74L351.467 169.911L351.264 170.114L351.061 170.317L322.641 198.737C323.25 199.955 323.859 200.97 324.468 202.188L353.903 172.753Z" fill="white"/>
<path d="M336.445 155.295L388.819 102.921L389.022 102.718L389.225 102.515L432.464 59.276C431.043 58.87 429.622 58.667 428.201 58.261L386.586 99.876L386.383 100.079L386.18 100.282L334.009 152.453L333.806 152.656L333.603 152.859L313.912 172.55C314.115 173.971 314.521 175.392 314.927 176.813L336.445 155.295Z" fill="white"/>
<path d="M318.987 137.837L371.361 85.463L371.564 85.26L371.767 85.057L399.578 57.246C397.548 57.449 395.518 57.652 393.488 58.058L369.128 82.418L368.925 82.621L368.722 82.824L316.551 134.995L316.348 135.198L316.145 135.401L313.709 137.837C313.303 139.867 313.1 141.897 312.897 143.927L318.987 137.837Z" fill="white"/>
<path d="M371.361 190.211L423.735 138.04L423.938 137.837L424.141 137.634L476.312 85.463L476.515 85.26L476.718 85.057L477.733 84.042C476.921 83.23 475.906 82.418 475.094 81.606L474.079 82.621L473.876 82.824L473.673 83.027L421.502 135.198L421.299 135.401L421.096 135.604L368.925 187.775L368.722 187.978L368.519 188.181L336.851 219.849C337.663 220.864 338.475 221.676 339.287 222.488L371.361 190.211Z" fill="white"/>
<path d="M830.75 440.916C863.712 440.916 890.432 414.195 890.432 381.234C890.432 348.273 863.712 321.552 830.75 321.552C797.789 321.552 771.068 348.273 771.068 381.234C771.068 414.195 797.789 440.916 830.75 440.916Z" fill="#F7941E"/>
<path d="M1272.68 1092.95C1305.64 1092.95 1332.36 1066.23 1332.36 1033.27C1332.36 1000.31 1305.64 973.588 1272.68 973.588C1239.72 973.588 1213 1000.31 1213 1033.27C1213 1066.23 1239.72 1092.95 1272.68 1092.95Z" fill="#68C9E2"/>
</g>
</svg>
