<svg width="30" height="30" viewBox="0 0 44 44" fill="none" xmlns="http://www.w3.org/2000/svg">
<path fill-rule="evenodd" clip-rule="evenodd" d="M37.862 7.64716C35.6087 4.36858 32.1452 2.11941 28.2336 1.39443L23.1433 0.450992C19.2316 -0.273986 15.1922 0.584619 11.9136 2.83792L7.64712 5.77023C4.36854 8.02353 2.11936 11.4869 1.39439 15.3986L0.450946 20.4889C-0.274032 24.4006 0.584574 28.44 2.83788 31.7186L5.77018 35.9851C8.02348 39.2637 11.4869 41.5128 15.3985 42.2378L20.4889 43.1813C24.4005 43.9062 28.4399 43.0476 31.7185 40.7943L35.985 37.862C39.2636 35.6087 41.5128 32.1453 42.2378 28.2337L43.1812 23.1433C43.9062 19.2317 43.0476 15.1923 40.7943 11.9137L37.862 7.64716ZM18.8083 31.7879L30.425 26.5604L23.7667 11.6854C22.2367 8.52622 18.4683 7.13789 15.2667 8.55455C14.6292 8.90872 13.9775 9.33372 13.425 9.82955C15.1392 10.6937 16.2442 12.4504 16.2583 14.3771C16.2388 15.3895 15.9186 16.3733 15.3384 17.2033C14.7582 18.0332 13.9442 18.6719 13 19.0379L18.8083 31.7879ZM25.6083 36.3354L23.3417 31.3771L27.1667 29.6629L29.4333 34.6212L25.6083 36.3354Z" fill="#FC9D1F"/>
</svg>
