<svg width="30" height="30" viewBox="0 0 44 44" fill="none" xmlns="http://www.w3.org/2000/svg">
<path fill-rule="evenodd" clip-rule="evenodd" d="M37.862 7.64716C35.6087 4.36858 32.1452 2.11941 28.2336 1.39443L23.1433 0.450992C19.2316 -0.273986 15.1922 0.584619 11.9136 2.83792L7.64712 5.77023C4.36854 8.02353 2.11936 11.4869 1.39439 15.3986L0.450946 20.4889C-0.274032 24.4006 0.584574 28.44 2.83788 31.7186L5.77018 35.9851C8.02348 39.2637 11.4869 41.5128 15.3985 42.2378L20.4889 43.1813C24.4005 43.9062 28.4399 43.0476 31.7185 40.7943L35.985 37.862C39.2636 35.6087 41.5128 32.1453 42.2378 28.2337L43.1812 23.1433C43.9062 19.2317 43.0476 15.1923 40.7943 11.9137L37.862 7.64716ZM23.42 21.5823C25.4882 20.7228 25.9294 18.5059 25.9497 16.8686C25.9568 16.2444 26.5894 15.9611 26.8956 16.4601C27.8247 17.9721 29 20.5627 29 23.9757C29 29.6383 26.0979 31 24.5882 31C22.8129 31 19.1582 29.2908 18.4118 22.8482C18.4118 22.8482 15.7285 26.5978 19.2941 31C15.7647 31 14 27.0368 14 23.9376C14 21.469 14.9768 19.0103 16.9056 16.6311C18.3535 14.8434 18.6518 13.0732 18.6341 11.8618C18.6253 11.1984 19.2218 10.7844 19.6868 11.1178C21.0482 12.0895 23.0944 13.8739 23.7077 16.1583C24.1665 17.8599 24.0677 19.6803 23.42 21.5823Z" fill="#FF4444"/>
</svg>
