<svg width="80" height="80" viewBox="0 0 139 138" fill="none" xmlns="http://www.w3.org/2000/svg">
<path d="M88.7411 24.9047C93.8407 26.2711 98.3768 29.2169 101.699 33.3198L110.762 44.5112C114.084 48.6141 116.023 53.6635 116.299 58.9358L117.053 73.3166C117.329 78.5888 115.929 83.8132 113.054 88.241L105.21 100.318C102.335 104.746 98.1317 108.15 93.2029 110.042L79.7588 115.203C74.83 117.095 69.4287 117.378 64.3292 116.011L50.4193 112.284C45.3197 110.918 40.7836 107.972 37.4611 103.869L28.3986 92.6775C25.0761 88.5746 23.1378 83.5252 22.8615 78.2529L22.1078 63.8721C21.8315 58.5999 23.2314 53.3755 26.1068 48.9478L33.9499 36.8704C36.8253 32.4427 41.0286 29.0389 45.9575 27.1469L59.4015 21.9862C64.3303 20.0942 69.7316 19.8111 74.8312 21.1776L88.7411 24.9047Z" fill="#FC9D1F"/>
<path d="M86.8 52H53.2C50.8837 52 49 53.9061 49 56.25V81.75C49 84.0939 50.8837 86 53.2 86H86.8C89.1163 86 91 84.0939 91 81.75V56.25C91 53.9061 89.1163 52 86.8 52ZM58.45 58.375C59.2854 58.375 60.0866 58.7108 60.6774 59.3086C61.2681 59.9064 61.6 60.7171 61.6 61.5625C61.6 62.4079 61.2681 63.2186 60.6774 63.8164C60.0866 64.4142 59.2854 64.75 58.45 64.75C57.6146 64.75 56.8134 64.4142 56.2226 63.8164C55.6319 63.2186 55.3 62.4079 55.3 61.5625C55.3 60.7171 55.6319 59.9064 56.2226 59.3086C56.8134 58.7108 57.6146 58.375 58.45 58.375V58.375ZM70 79.625H55.3L63.7 69L66.85 73.25L73.15 64.75L84.7 79.625H70Z" fill="#FFF0DD"/>
</svg>
