<svg width="70" height="70" viewBox="0 0 90 89" fill="none" xmlns="http://www.w3.org/2000/svg">
<circle cx="43.7864" cy="44.2479" r="35.1588" fill="#FC9D1F"/>
<path d="M70.1692 26.0522C71.3562 27.5186 72.3052 29.1626 72.9816 30.924L74.559 35.0315C75.2355 36.7932 75.6308 38.6504 75.7304 40.5349L75.9624 44.9245C76.0621 46.8101 75.8644 48.6997 75.3767 50.5239L74.2433 54.7637C73.7553 56.5892 72.9829 58.3264 71.9546 59.9117L69.57 63.5876C68.541 65.1737 67.2686 66.5878 65.7996 67.7779L62.3986 70.5333C60.9292 71.7237 59.2815 72.6751 57.5161 73.3525L53.4295 74.9205C51.6645 75.5978 49.8037 75.9927 47.9158 76.0908L43.5404 76.3182C41.6535 76.4163 39.7629 76.2166 37.9382 75.7265L33.7 74.5883C31.8765 74.0986 30.1415 73.325 28.5585 72.2959L24.8733 69.9002C23.2912 68.8716 21.8807 67.6007 20.6934 66.1339L17.9252 62.7139C16.7382 61.2474 15.7892 59.6034 15.1128 57.8421L13.5354 53.7346C12.8589 51.9729 12.4636 50.1157 12.364 48.2312L12.132 43.8416C12.0323 41.956 12.23 40.0664 12.7177 38.2422L13.8511 34.0024C14.3391 32.1769 15.1115 30.4396 16.1398 28.8544L18.5244 25.1785C19.5534 23.5924 20.8258 22.1783 22.2948 20.9882L25.6958 18.2328C27.1652 17.0424 28.8129 16.091 30.5783 15.4136L34.6649 13.8456C36.4299 13.1683 38.2907 12.7734 40.1786 12.6752L44.554 12.4479C46.4409 12.3498 48.3315 12.5495 50.1562 13.0395L54.3944 14.1778C56.2179 14.6675 57.9529 15.4411 59.5359 16.4702L63.2211 18.8659C64.8032 19.8945 66.2137 21.1654 67.401 22.6322L70.1692 26.0522Z" fill="#FFF0DD"/>
<path d="M71.4178 26.6822C73.3983 28.6672 74.8224 31.1396 75.5473 33.8512L77.5027 41.1657C78.2281 43.8788 78.2279 46.7361 77.5022 49.4506L75.5498 56.7538C74.8233 59.4713 73.3953 61.9499 71.4095 63.9403L66.0837 69.2784C64.0968 71.2698 61.6216 72.7021 58.9075 73.431L51.6322 75.3849C48.9196 76.1134 46.064 76.1136 43.3527 75.3855L36.0662 73.4286C33.3579 72.7012 30.8891 71.2728 28.9075 69.2866L23.5652 63.932C21.5846 61.947 20.1605 59.4747 19.4356 56.763L17.4802 49.4485C16.7549 46.7354 16.755 43.8781 17.4807 41.1636L19.4331 33.8604C20.1596 31.1429 21.5876 28.6643 23.5734 26.6739L28.8992 21.3358C30.8861 19.3444 33.3613 17.9121 36.0754 17.1832L43.3507 15.2293C46.0633 14.5008 48.9189 14.5006 51.6302 15.2287L58.9167 17.1856C61.625 17.913 64.0938 19.3414 66.0755 21.3276L71.4178 26.6822Z" fill="#FC9D1F"/>
<path d="M37.1562 43.7186C37.1023 43.7726 37.0431 43.805 36.9784 43.8158C36.9138 43.8266 36.8491 43.832 36.7845 43.832C36.6228 43.9076 36.4504 43.9454 36.2673 43.9454C36.1488 43.8806 36.0841 43.859 36.0733 43.8806C36.0626 43.9022 36.041 43.9238 36.0087 43.9454C35.8471 44.021 35.7016 44.0588 35.5723 44.0588C35.443 44.0696 35.3353 44.102 35.2491 44.156C35.1629 44.0912 35.1144 43.994 35.1036 43.8644C35.1036 43.7456 35.0928 43.643 35.0713 43.5567C35.0174 43.4811 34.9797 43.3893 34.9582 43.2813C34.9366 43.1625 34.9204 43.0437 34.9097 42.9249C34.8989 42.8061 34.8827 42.6927 34.8612 42.5847C34.8504 42.4659 34.8235 42.3633 34.7804 42.2769C34.7696 42.2229 34.7642 42.1743 34.7642 42.1311C34.775 42.0879 34.7696 42.0393 34.748 41.9853C34.7588 41.8017 34.7534 41.656 34.7319 41.548C34.7103 41.44 34.6888 41.3266 34.6672 41.2078C34.6565 41.143 34.6511 41.0728 34.6511 40.9972C34.6511 40.9108 34.6187 40.846 34.5541 40.8028C34.5864 40.6516 34.5918 40.5382 34.5703 40.4626C34.5487 40.387 34.5326 40.3168 34.5218 40.252C34.511 40.1656 34.5056 40.0738 34.5056 39.9766C34.5056 39.8687 34.4948 39.7715 34.4733 39.6851C34.4086 39.1667 34.3386 38.6483 34.2632 38.1299C34.1878 37.6116 34.1177 37.0932 34.0531 36.5748C33.9884 36.6288 33.9399 36.7098 33.9076 36.8178C33.8861 36.9258 33.8645 37.023 33.843 37.1094C33.7783 37.3038 33.7191 37.5036 33.6652 37.7088C33.6113 37.914 33.5574 38.1137 33.5036 38.3081C33.482 38.3945 33.4605 38.4971 33.4389 38.6159C33.4281 38.7239 33.4066 38.8211 33.3743 38.9075C33.2665 39.2207 33.1696 39.4907 33.0834 39.7175C33.0079 39.9442 32.9325 40.1764 32.8571 40.414C32.8355 40.5436 32.814 40.6678 32.7924 40.7866C32.7709 40.9054 32.7493 41.0242 32.7278 41.143C32.717 41.2078 32.7009 41.2996 32.6793 41.4184C32.6578 41.5372 32.6362 41.6236 32.6147 41.6776C32.5931 41.7316 32.5716 41.7693 32.55 41.7909C32.5392 41.8125 32.5392 41.8503 32.55 41.9043C32.4423 42.0663 32.3668 42.2445 32.3237 42.4389C32.2914 42.6333 32.2268 42.8223 32.1298 43.0059C32.1298 43.1355 32.0813 43.2489 31.9843 43.3461C31.9305 43.3569 31.8766 43.3677 31.8227 43.3785C31.7796 43.3893 31.7311 43.4109 31.6773 43.4433C31.6234 43.4217 31.5587 43.4109 31.4833 43.4109C31.4187 43.4001 31.354 43.3947 31.2894 43.3947C31.2355 43.3839 31.187 43.3677 31.1439 43.3461C31.1008 43.3137 31.0523 43.2921 30.9985 43.2813C30.9446 43.2165 30.8853 43.1625 30.8207 43.1193C30.756 43.0653 30.6914 43.0113 30.6267 42.9573C30.5621 42.7953 30.5028 42.6873 30.4489 42.6333C30.4166 42.5145 30.3735 42.4065 30.3197 42.3093C30.2658 42.2013 30.2281 42.0825 30.2065 41.9529C30.1742 41.8341 30.1311 41.7262 30.0772 41.629C30.0341 41.521 29.9856 41.4076 29.9318 41.2888C29.9102 41.2132 29.8833 41.143 29.851 41.0782C29.8294 41.0026 29.8025 40.927 29.7701 40.8514C29.7594 40.765 29.727 40.657 29.6732 40.5274C29.6301 40.3978 29.5977 40.2844 29.5762 40.1872C29.5762 40.1764 29.5546 40.1224 29.5116 40.0252C29.4792 39.9172 29.4415 39.8039 29.3984 39.6851C29.3661 39.5663 29.3284 39.4583 29.2853 39.3611C29.253 39.2639 29.2314 39.2099 29.2206 39.1991C29.1991 39.1451 29.1775 39.0965 29.156 39.0533C29.1452 38.9993 29.129 38.9399 29.1075 38.8751C29.0644 38.7347 29.0105 38.5943 28.9459 38.4539C28.8812 38.3027 28.8166 38.1623 28.7519 38.0327C28.6981 37.9248 28.6604 37.8222 28.6388 37.725C28.6173 37.617 28.5903 37.5144 28.558 37.4172C28.5364 37.3632 28.5149 37.3146 28.4933 37.2714C28.4826 37.2282 28.4664 37.1796 28.4449 37.1256C28.4233 37.0608 28.4018 36.996 28.3802 36.9312C28.3587 36.8556 28.3371 36.78 28.3156 36.7044C28.2617 36.726 28.2348 36.7746 28.2348 36.8502C28.2455 36.915 28.2455 36.9744 28.2348 37.0284C28.2132 37.1472 28.2024 37.266 28.2024 37.3848C28.2024 37.4928 28.197 37.6062 28.1863 37.725C28.1647 37.8546 28.1432 37.9788 28.1216 38.0975C28.1001 38.2163 28.0839 38.3351 28.0731 38.4539C28.0731 38.7455 28.057 39.0371 28.0246 39.3287C28.0031 39.5879 27.9762 39.8525 27.9438 40.1224C27.9115 40.3816 27.89 40.6516 27.8792 40.9324C27.8792 41.1376 27.8576 41.3428 27.8145 41.548C27.7714 41.7423 27.7607 41.9475 27.7822 42.1635C27.7607 42.2067 27.7499 42.2391 27.7499 42.2607C27.7499 42.2823 27.7499 42.3147 27.7499 42.3579C27.7499 42.4119 27.7445 42.4713 27.7337 42.5361C27.7337 42.6009 27.7337 42.6603 27.7337 42.7143C27.7337 42.8115 27.7445 42.8763 27.7661 42.9087C27.7337 43.0059 27.7176 43.1139 27.7176 43.2327C27.7176 43.3407 27.7176 43.4487 27.7176 43.5567C27.696 43.5999 27.6799 43.643 27.6691 43.6862C27.6691 43.7294 27.6529 43.7726 27.6206 43.8158C27.6314 43.9994 27.5775 44.0912 27.459 44.0912C27.4267 44.0912 27.3889 44.0804 27.3458 44.0588C27.3135 44.048 27.2866 44.0264 27.265 43.994C27.1465 44.0048 27.0765 43.9778 27.0549 43.913C27.0441 43.8482 27.0118 43.8212 26.958 43.832C26.8287 43.886 26.7532 43.9022 26.7317 43.8806C26.7209 43.859 26.6886 43.8536 26.6347 43.8644C26.5485 43.778 26.4893 43.7402 26.4569 43.751C26.4354 43.7618 26.4138 43.7672 26.3923 43.7672C26.2953 43.7348 26.2414 43.7294 26.2307 43.751C26.2199 43.7618 26.1983 43.7672 26.166 43.7672C26.1121 43.7132 26.0367 43.6862 25.9397 43.6862C25.8535 43.6862 25.7781 43.6808 25.7135 43.67C25.7027 43.6268 25.6919 43.5891 25.6812 43.5567C25.6812 43.5135 25.6812 43.4649 25.6812 43.4109C25.6812 43.3461 25.6812 43.2867 25.6812 43.2327C25.6919 43.1679 25.6973 43.1031 25.6973 43.0383C25.6973 42.9843 25.6919 42.9303 25.6812 42.8763C25.6812 42.8115 25.6812 42.7413 25.6812 42.6657C25.6812 42.5901 25.6865 42.5199 25.6973 42.4551C25.7081 42.3795 25.7135 42.2985 25.7135 42.2121C25.7135 42.1797 25.7081 42.1527 25.6973 42.1311C25.6865 42.0987 25.6812 42.0609 25.6812 42.0177C25.7458 41.8773 25.7727 41.7693 25.762 41.6938C25.762 41.6074 25.7673 41.5264 25.7781 41.4508C25.7997 41.2672 25.8158 41.089 25.8266 40.9162C25.8482 40.7326 25.8697 40.549 25.8913 40.3654C25.8913 40.063 25.8966 39.8147 25.9074 39.6203C25.929 39.4151 25.9559 39.2099 25.9882 39.0047C26.0098 38.9075 26.0259 38.8157 26.0367 38.7293C26.0583 38.6429 26.0798 38.5511 26.1014 38.4539C26.1229 38.2919 26.1337 38.1245 26.1337 37.9518C26.1445 37.7682 26.1606 37.59 26.1822 37.4172C26.2037 37.1472 26.2307 36.8826 26.263 36.6234C26.2953 36.3534 26.3222 36.0889 26.3438 35.8297C26.3653 35.6245 26.3869 35.4247 26.4084 35.2303C26.4408 35.0251 26.4569 34.8307 26.4569 34.6471C26.4569 34.5499 26.4677 34.4257 26.4893 34.2746C26.5216 34.1234 26.5431 33.9938 26.5539 33.8858C26.5755 33.6266 26.5916 33.3728 26.6024 33.1244C26.6239 32.876 26.6347 32.6276 26.6347 32.3793V32.2011C26.6347 32.1795 26.6455 32.1579 26.667 32.1363C26.6886 32.1147 26.6994 32.0769 26.6994 32.0229C26.6994 31.9257 26.7209 31.8609 26.764 31.8285C26.8179 31.7853 26.861 31.7205 26.8933 31.6341C26.9472 31.6341 27.0064 31.6395 27.0711 31.6503C27.1465 31.6611 27.2004 31.6935 27.2327 31.7475C27.3081 31.7259 27.3836 31.7151 27.459 31.7151C27.5344 31.7151 27.599 31.6881 27.6529 31.6341C27.7176 31.6341 27.7661 31.6503 27.7984 31.6827C27.8307 31.7151 27.8738 31.7421 27.9277 31.7637C27.9708 31.7421 28.0139 31.7259 28.057 31.7151C28.1001 31.6935 28.1432 31.6719 28.1863 31.6503C28.2186 31.6719 28.2401 31.6989 28.2509 31.7313C28.2725 31.7529 28.2994 31.7691 28.3317 31.7799C28.4933 31.7367 28.6011 31.7313 28.655 31.7637C28.6765 31.8069 28.6873 31.8501 28.6873 31.8933C28.6981 31.9365 28.7088 31.9797 28.7196 32.0229C28.8274 32.1309 28.8974 32.2551 28.9297 32.3955C28.962 32.525 29.0213 32.6438 29.1075 32.7518C29.129 32.8166 29.1506 32.8814 29.1721 32.9462C29.2045 33.011 29.2314 33.0866 29.253 33.173L29.3014 33.3674C29.3445 33.4754 29.3984 33.605 29.4631 33.7562C29.5169 33.9614 29.5654 34.172 29.6085 34.3879C29.6516 34.6039 29.7217 34.8037 29.8186 34.9873C29.8294 35.0521 29.8456 35.1331 29.8671 35.2303C29.8994 35.3167 29.9264 35.3923 29.9479 35.4571C30.0233 35.6407 30.0988 35.8243 30.1742 36.0079C30.2604 36.1806 30.3358 36.3696 30.4005 36.5748C30.4651 36.78 30.519 36.9906 30.5621 37.2066C30.616 37.4226 30.6806 37.6332 30.756 37.8384C30.8207 38.0327 30.8692 38.1731 30.9015 38.2595C30.9338 38.3459 30.9769 38.4323 31.0308 38.5187C31.0308 38.5511 31.0362 38.6051 31.0469 38.6807C31.0685 38.7563 31.0954 38.8373 31.1278 38.9237C31.1601 38.9993 31.1924 39.0749 31.2247 39.1505C31.257 39.2153 31.2894 39.2531 31.3217 39.2639C31.354 39.2423 31.3702 39.2099 31.3702 39.1667C31.381 39.1235 31.4025 39.0857 31.4348 39.0533C31.4456 38.9345 31.4618 38.7887 31.4833 38.6159C31.5156 38.4431 31.5587 38.3027 31.6126 38.1947C31.6126 38.1407 31.6234 38.0435 31.6449 37.9032C31.6773 37.752 31.715 37.5954 31.7581 37.4334C31.8012 37.2606 31.8389 37.104 31.8712 36.9636C31.9143 36.8232 31.952 36.7368 31.9843 36.7044C32.0059 36.564 32.0221 36.4776 32.0328 36.4452C32.0544 36.4128 32.0759 36.3858 32.0975 36.3642C32.1082 36.2778 32.1298 36.1968 32.1621 36.1213C32.1944 36.0457 32.216 35.9647 32.2268 35.8783C32.2483 35.6947 32.2753 35.5435 32.3076 35.4247C32.3399 35.3059 32.383 35.1601 32.4369 34.9873C32.48 34.8361 32.5177 34.6849 32.55 34.5337C32.5931 34.3717 32.6416 34.2152 32.6955 34.064C32.8248 33.6536 32.9379 33.2918 33.0349 32.9786C33.1426 32.6546 33.2719 32.3415 33.4228 32.0391C33.4551 31.9419 33.482 31.8825 33.5036 31.8609C33.5251 31.8393 33.5467 31.8177 33.5682 31.7961C33.6544 31.7637 33.7406 31.7475 33.8268 31.7475C33.9238 31.7475 34.0208 31.7529 34.1177 31.7637C34.2255 31.7205 34.3063 31.6719 34.3602 31.6179C34.4033 31.6719 34.4679 31.6989 34.5541 31.6989C34.6618 31.6989 34.7373 31.6665 34.7804 31.6017C34.8235 31.6233 34.8558 31.6287 34.8773 31.6179C34.9097 31.6071 34.9528 31.6125 35.0066 31.6341C35.0282 31.6125 35.0551 31.5909 35.0874 31.5693C35.1198 31.5369 35.1521 31.5207 35.1844 31.5207C35.2706 31.6287 35.3353 31.7151 35.3784 31.7799C35.4322 31.8339 35.4699 31.8987 35.4915 31.9743C35.5238 32.0715 35.54 32.1795 35.54 32.2983C35.5508 32.4063 35.5831 32.5088 35.637 32.606C35.6262 32.7464 35.6316 32.9624 35.6531 33.254C35.6854 33.5348 35.7178 33.8372 35.7501 34.1612C35.7932 34.4743 35.8363 34.7659 35.8794 35.0359C35.9225 35.3059 35.9602 35.4733 35.9925 35.5381C35.9817 35.6785 35.9871 35.7973 36.0087 35.8945C36.0302 35.9917 36.041 36.0889 36.041 36.186C36.041 36.2184 36.0464 36.2886 36.0572 36.3966C36.0679 36.4938 36.0787 36.6018 36.0895 36.7206C36.1003 36.8286 36.111 36.9366 36.1218 37.0446C36.1434 37.1418 36.1595 37.212 36.1703 37.2552C36.1703 37.4496 36.2026 37.6008 36.2673 37.7088C36.3211 37.9788 36.3642 38.2487 36.3966 38.5187C36.4397 38.7887 36.4774 39.0641 36.5097 39.3449C36.5313 39.4853 36.542 39.6203 36.542 39.7499C36.5528 39.8794 36.569 40.0144 36.5905 40.1548C36.6013 40.2088 36.6121 40.2628 36.6228 40.3168C36.6444 40.3708 36.6605 40.4248 36.6713 40.4788C36.6929 40.5868 36.709 40.6894 36.7198 40.7866C36.7306 40.8838 36.7467 40.981 36.7683 41.0782C36.7791 41.1322 36.7952 41.1916 36.8168 41.2564C36.8383 41.3104 36.8383 41.3698 36.8168 41.4346C36.8383 41.5102 36.8437 41.5912 36.8329 41.6776C36.8329 41.7639 36.8545 41.8395 36.8976 41.9043C36.8976 42.1311 36.9138 42.3309 36.9461 42.5037C36.9569 42.6333 36.9892 42.7629 37.0431 42.8925C37.0646 43.0221 37.0808 43.1571 37.0915 43.2975C37.1131 43.4379 37.1346 43.5783 37.1562 43.7186Z" fill="#FFF0DD"/>
<path d="M47.5548 31.8285C47.5764 31.8717 47.5979 31.9041 47.6195 31.9257C47.6518 31.9365 47.6733 31.9689 47.6841 32.0229C47.7595 32.0769 47.8188 32.1201 47.8619 32.1525C47.905 32.1741 47.9319 32.2173 47.9427 32.2821C48.0397 32.3577 48.0936 32.4063 48.1043 32.4279C48.1259 32.4494 48.142 32.4764 48.1528 32.5088C48.2067 32.552 48.2552 32.5898 48.2983 32.6222C48.3522 32.6546 48.3899 32.7032 48.4114 32.768C48.4976 32.8436 48.5515 32.903 48.573 32.9462C48.5946 32.9894 48.6107 33.038 48.6215 33.092C48.5784 33.1676 48.4922 33.2702 48.3629 33.3998C48.2336 33.5294 48.0882 33.6698 47.9266 33.821C47.7649 33.9614 47.6087 34.1018 47.4579 34.2422C47.307 34.3717 47.1885 34.4743 47.1023 34.5499C47.0807 34.5931 47.0538 34.6309 47.0215 34.6633C46.9892 34.6957 46.9622 34.7335 46.9407 34.7767C46.876 34.8307 46.8168 34.8901 46.7629 34.9549C46.709 35.0089 46.6444 35.0521 46.5689 35.0845C46.4612 35.2357 46.3104 35.3869 46.1164 35.5381C45.9225 35.6785 45.7932 35.8189 45.7285 35.9593C45.7393 35.9917 45.7608 36.0241 45.7932 36.0565C45.8363 36.0889 45.8686 36.1159 45.8901 36.1375C45.9763 36.2238 46.0787 36.3048 46.1972 36.3804C46.3157 36.4452 46.4181 36.5208 46.5043 36.6072C46.5905 36.6828 46.6767 36.7584 46.7629 36.834C46.8491 36.8988 46.9353 36.969 47.0215 37.0446C47.0646 37.0878 47.1185 37.1526 47.1831 37.239C47.2908 37.3254 47.3932 37.4064 47.4902 37.482C47.5979 37.5468 47.7003 37.6224 47.7973 37.7088C48.002 37.8816 48.2013 38.0597 48.3953 38.2433C48.5892 38.4161 48.7939 38.5889 49.0094 38.7617L49.1387 38.9075C49.1387 38.9939 49.1603 39.0965 49.2034 39.2153C49.2572 39.3233 49.3057 39.4151 49.3488 39.4907C49.3273 39.5987 49.3273 39.6689 49.3488 39.7013C49.3811 39.7229 49.4081 39.7445 49.4296 39.7661C49.4188 39.9712 49.4242 40.1062 49.4458 40.171C49.2626 40.333 49.0902 40.4842 48.9286 40.6246C48.7778 40.7542 48.6431 40.8838 48.5245 41.0134C48.4276 41.1322 48.3252 41.2402 48.2175 41.3374C48.1205 41.4238 48.0128 41.521 47.8942 41.629C47.8296 41.7154 47.7757 41.7747 47.7326 41.8071C47.6572 41.8827 47.5818 41.9421 47.5063 41.9853C47.377 42.1041 47.2478 42.2175 47.1185 42.3255C46.9999 42.4335 46.8814 42.5415 46.7629 42.6495C46.6767 42.7251 46.5959 42.8007 46.5205 42.8763C46.445 42.9411 46.3696 43.0167 46.2942 43.1031C46.2295 43.1679 46.1541 43.2435 46.0679 43.3299C45.9925 43.4163 45.9117 43.4865 45.8255 43.5405C45.7932 43.6052 45.7501 43.6646 45.6962 43.7186C45.6423 43.7618 45.5938 43.8104 45.5507 43.8644C45.4753 43.9076 45.4053 43.9508 45.3406 43.994C45.276 44.0372 45.2006 44.0804 45.1144 44.1236C45.0282 44.0588 44.942 43.9994 44.8558 43.9454C44.7803 43.8914 44.6942 43.8536 44.5972 43.832C44.5325 43.778 44.484 43.724 44.4517 43.67C44.4194 43.616 44.3601 43.5783 44.2739 43.5567C44.2524 43.5243 44.2255 43.4919 44.1931 43.4595C44.1716 43.4163 44.15 43.3731 44.1285 43.3299C43.9992 43.3191 43.8968 43.2381 43.8214 43.0869C43.843 43.0221 43.8699 42.9735 43.9022 42.9411C43.9453 42.9087 43.9561 42.8493 43.9345 42.7629C43.9992 42.6549 44.0746 42.5631 44.1608 42.4875C44.2578 42.4011 44.3494 42.3147 44.4356 42.2283C44.5325 42.1419 44.6187 42.0555 44.6942 41.9691C44.7803 41.8719 44.8719 41.7801 44.9689 41.6938C45.0228 41.6398 45.0767 41.5912 45.1305 41.548C45.1844 41.494 45.2437 41.44 45.3083 41.386C45.4268 41.2672 45.5454 41.1592 45.6639 41.062C45.7932 40.954 45.9225 40.8406 46.0518 40.7218C46.2242 40.549 46.4019 40.387 46.5851 40.2358C46.7683 40.0738 46.9353 39.8956 47.0861 39.7013C47.0754 39.6581 47.0592 39.6311 47.0376 39.6203C47.0161 39.5987 46.9999 39.5717 46.9892 39.5393C46.8168 39.3773 46.6444 39.2207 46.472 39.0695C46.3104 38.9075 46.1326 38.7671 45.9386 38.6483C45.874 38.5835 45.8309 38.5295 45.8093 38.4863C45.6154 38.3459 45.4268 38.1893 45.2437 38.0166C45.0713 37.8438 44.8773 37.698 44.6618 37.5792C44.6187 37.5252 44.5649 37.482 44.5002 37.4496C44.4463 37.4064 44.3925 37.3686 44.3386 37.3362C44.3063 37.2822 44.2686 37.239 44.2255 37.2066C44.1931 37.1634 44.15 37.131 44.0962 37.1094C44.01 37.0338 43.9507 36.9744 43.9184 36.9312C43.8968 36.8772 43.8537 36.8448 43.7891 36.834C43.7675 36.78 43.7298 36.7368 43.6759 36.7044C43.6328 36.672 43.5844 36.6342 43.5305 36.591C43.5089 36.5262 43.4766 36.4722 43.4335 36.429C43.4227 36.3426 43.4281 36.2832 43.4497 36.2508C43.4712 36.2076 43.4874 36.1752 43.4982 36.1537C43.4874 36.0889 43.4605 36.0403 43.4174 36.0079C43.3635 35.9755 43.3365 35.9215 43.3365 35.8459C43.3365 35.8027 43.3527 35.7757 43.385 35.7649C43.4066 35.7433 43.4227 35.7163 43.4335 35.6839L43.482 35.4409C43.5682 35.3761 43.6382 35.3005 43.6921 35.2141C43.7568 35.1169 43.8376 35.0413 43.9345 34.9873C44.0423 34.8253 44.177 34.6903 44.3386 34.5823C44.3925 34.4959 44.4571 34.4257 44.5325 34.3717C44.6187 34.3177 44.6888 34.2476 44.7426 34.1612C44.8288 34.1072 44.8989 34.0478 44.9527 33.983C45.0174 33.9182 45.0928 33.8588 45.179 33.8048C45.2006 33.7616 45.2221 33.7292 45.2437 33.7076C45.276 33.6752 45.2975 33.6428 45.3083 33.6104C45.5992 33.3296 45.8524 33.0866 46.0679 32.8814C46.2942 32.6762 46.5258 32.471 46.7629 32.2659C46.8275 32.2119 46.8922 32.1525 46.9568 32.0877C47.0215 32.0229 47.0915 31.9635 47.1669 31.9095C47.1885 31.8879 47.2154 31.8771 47.2478 31.8771C47.2801 31.8771 47.3124 31.8663 47.3447 31.8447C47.474 31.8447 47.5441 31.8393 47.5548 31.8285Z" fill="#FFF0DD"/>
<path d="M54.734 39.7013L54.3784 39.8309C54.2599 39.8633 54.1414 39.901 54.0229 39.9442C53.9043 39.9658 53.802 39.9982 53.7158 40.0414L53.4572 40.171C53.3818 40.6786 53.3387 41.1646 53.3279 41.629C53.3279 42.0825 53.3441 42.5361 53.3764 42.9897C53.3548 43.0545 53.3441 43.1301 53.3441 43.2165C53.3441 43.2921 53.3279 43.3569 53.2956 43.4109C53.1771 43.4433 53.0962 43.4487 53.0531 43.4271C53.0208 43.3947 52.9831 43.3677 52.94 43.3461C52.8969 43.3569 52.8592 43.3785 52.8269 43.4109C52.8053 43.4433 52.7838 43.4703 52.7622 43.4919C52.676 43.4919 52.606 43.5135 52.5521 43.5567C52.509 43.5891 52.4659 43.616 52.4228 43.6376C52.3905 43.6484 52.3582 43.6484 52.3259 43.6376C52.2935 43.6268 52.2558 43.6322 52.2127 43.6538C52.105 43.6538 52.0511 43.643 52.0511 43.6214C52.0619 43.5891 52.0511 43.5729 52.0188 43.5729C51.9757 43.5729 51.9434 43.5945 51.9218 43.6376C51.911 43.67 51.8841 43.697 51.841 43.7186C51.7979 43.7402 51.7494 43.7564 51.6955 43.7672C51.6417 43.7672 51.5878 43.778 51.5339 43.7996C51.48 43.7456 51.4531 43.6862 51.4531 43.6214C51.4531 43.5567 51.4262 43.4973 51.3723 43.4433C51.3507 43.2921 51.3346 43.1463 51.3238 43.0059C51.3238 42.8547 51.3076 42.7035 51.2753 42.5523C51.2969 42.2499 51.3023 42.0069 51.2915 41.8233V41.2564C51.2915 41.0836 51.2861 40.9108 51.2753 40.738L51.243 40.2196C51.2215 39.9064 51.1999 39.5879 51.1784 39.2639C51.1676 38.9399 51.1622 38.6159 51.1622 38.2919C51.1622 38.0219 51.173 37.7574 51.1945 37.4982C51.2268 37.239 51.243 36.9744 51.243 36.7044V36.1698C51.2538 35.9863 51.2592 35.8027 51.2592 35.6191C51.2592 35.4679 51.2538 35.3221 51.243 35.1817V34.7443C51.243 34.5823 51.2538 34.4257 51.2753 34.2746C51.2969 34.1126 51.3076 33.956 51.3076 33.8048C51.3076 33.6212 51.2969 33.443 51.2753 33.2702C51.2538 33.0866 51.243 32.903 51.243 32.7194C51.243 32.6654 51.2484 32.6168 51.2592 32.5736C51.2699 32.5196 51.2753 32.4656 51.2753 32.4117C51.2645 32.2929 51.2699 32.2227 51.2915 32.2011C51.313 32.1687 51.3346 32.1309 51.3561 32.0877C51.41 32.0769 51.4693 32.0607 51.5339 32.0391C51.5986 32.0175 51.6578 32.0175 51.7117 32.0391C51.7763 31.9743 51.8625 31.9419 51.9703 31.9419C52.0888 31.9419 52.175 31.9041 52.2289 31.8285C52.3043 31.8393 52.3528 31.8447 52.3743 31.8447C52.4067 31.8339 52.4336 31.8285 52.4552 31.8285C52.5521 31.8501 52.6006 31.8501 52.6006 31.8285C52.6114 31.7961 52.6329 31.7799 52.6653 31.7799C52.7191 31.7799 52.7999 31.7853 52.9077 31.7961C53.0262 31.7961 53.107 31.8177 53.1501 31.8609C53.2579 32.4333 53.3171 33.0164 53.3279 33.6104C53.3387 34.2044 53.3441 34.7929 53.3441 35.3761C53.3441 35.5273 53.3494 35.6839 53.3602 35.8459C53.371 35.9971 53.3656 36.1483 53.3441 36.2994C53.3441 36.3642 53.3387 36.429 53.3279 36.4938C53.3171 36.5478 53.3117 36.6072 53.3117 36.672C53.3117 36.8556 53.301 37.05 53.2794 37.2552C53.2579 37.4496 53.2471 37.6386 53.2471 37.8222C53.3764 37.8978 53.4841 37.9248 53.5703 37.9032C53.6673 37.8708 53.7589 37.8384 53.8451 37.806C53.9528 37.7736 54.0498 37.7412 54.136 37.7088C54.233 37.6656 54.3299 37.6278 54.4269 37.5954C54.5131 37.5522 54.6047 37.5198 54.7017 37.4982L54.734 39.7013Z" fill="#FFF0DD"/>
<path d="M58.0634 31.292C58.1927 31.2596 58.2843 31.2488 58.3381 31.2596C58.392 31.2596 58.4459 31.265 58.4997 31.2758C58.5644 31.319 58.6183 31.373 58.6614 31.4378C58.6614 31.6646 58.656 31.8914 58.6452 32.1182V32.7823C58.6452 33.1927 58.6506 33.6031 58.6614 34.0135C58.6721 34.4238 58.6721 34.8342 58.6614 35.2446C58.6829 35.3418 58.6883 35.3958 58.6775 35.4066C58.6668 35.4174 58.6614 35.4336 58.6614 35.4552C58.6614 35.8656 58.6721 36.2705 58.6937 36.6701C58.7152 37.0697 58.726 37.4747 58.726 37.8851V40.0395C58.726 40.5039 58.7368 40.9629 58.7583 41.4165C58.7907 41.87 58.8068 42.3236 58.8068 42.7772C58.8068 42.8204 58.7799 42.8798 58.726 42.9554C58.7045 43.0418 58.6721 43.112 58.629 43.166C58.5321 43.1768 58.4405 43.1606 58.3543 43.1174C58.3112 43.1174 58.2789 43.1336 58.2573 43.166C58.2465 43.1876 58.225 43.2092 58.1927 43.2308C58.1065 43.2308 58.0364 43.2524 57.9826 43.2956C57.9287 43.3388 57.864 43.3604 57.7886 43.3604C57.724 43.3604 57.6593 43.3496 57.5947 43.328C57.5408 43.3172 57.4762 43.3118 57.4007 43.3118C57.3792 43.3118 57.3469 43.328 57.3038 43.3604C57.2607 43.4036 57.2283 43.4306 57.2068 43.4414C57.1529 43.4414 57.1044 43.4468 57.0613 43.4576C57.0182 43.4792 56.9697 43.49 56.9159 43.49C56.862 43.4468 56.8351 43.382 56.8351 43.2956C56.8458 43.2092 56.8135 43.1552 56.7381 43.1336V42.9554C56.7489 42.8906 56.7542 42.8258 56.7542 42.761C56.7542 42.3398 56.7435 41.9186 56.7219 41.4975C56.7004 41.0655 56.6842 40.6389 56.6734 40.2177C56.6627 40.0341 56.6573 39.8559 56.6573 39.6832C56.6681 39.4996 56.6734 39.316 56.6734 39.1324V38.8408C56.6734 38.7436 56.6627 38.6518 56.6411 38.5654C56.5765 38.5546 56.5172 38.5654 56.4633 38.5978C56.4202 38.6194 56.3717 38.6302 56.3179 38.6302C56.0916 38.7058 55.9408 38.7814 55.8653 38.857C55.8007 38.857 55.7468 38.8678 55.7037 38.8894C55.6606 38.911 55.6121 38.9326 55.5583 38.9542L55.2997 39.019L55.8169 36.5729C56.0862 36.4325 56.361 36.3191 56.6411 36.2327C56.6196 35.6388 56.6088 35.0502 56.6088 34.467V32.7013V32.1992C56.6088 32.0264 56.6196 31.859 56.6411 31.697C56.6519 31.6538 56.6627 31.6214 56.6734 31.5998C56.695 31.5674 56.7058 31.5242 56.7058 31.4702C56.7381 31.4162 56.7758 31.3784 56.8189 31.3568C56.862 31.3352 56.8943 31.3028 56.9159 31.2596L56.9805 31.3244L57.0775 31.3568C57.1637 31.3352 57.2122 31.319 57.2229 31.3082L57.2876 31.2758C57.3415 31.2542 57.4115 31.2434 57.4977 31.2434H57.7078H57.9018L58.0634 31.292Z" fill="#FFF0DD"/>
<path fill-rule="evenodd" clip-rule="evenodd" d="M39.9554 35.9431C39.9231 35.8675 39.8692 35.8081 39.7938 35.7649C39.7292 35.7865 39.6538 35.7865 39.5676 35.7649C39.5568 35.8189 39.5352 35.8621 39.5029 35.8945C39.4814 35.9161 39.4544 35.9377 39.4221 35.9593C39.3898 35.9809 39.3628 36.0133 39.3413 36.0565C39.3197 36.0889 39.309 36.1429 39.309 36.2184C39.309 36.7044 39.3467 37.185 39.4221 37.6602C39.4975 38.1353 39.5137 38.6105 39.4706 39.0857C39.4814 39.1181 39.4975 39.1397 39.5191 39.1505C39.5406 39.1505 39.5568 39.1559 39.5676 39.1667C39.5783 39.1775 39.5891 39.1937 39.5999 39.2153C39.6107 39.2369 39.616 39.2855 39.616 39.3611C39.616 39.5231 39.6214 39.6905 39.6322 39.8633C39.643 40.036 39.6484 40.2088 39.6484 40.3816C39.6484 40.4572 39.643 40.5382 39.6322 40.6246V40.8676C39.6107 40.8892 39.5945 40.9378 39.5837 41.0134V41.1754C39.5837 41.2078 39.5945 41.2348 39.616 41.2564C39.6376 41.278 39.6484 41.3158 39.6484 41.3698C39.6484 41.4238 39.6376 41.4724 39.616 41.5156C39.6053 41.5588 39.5999 41.6074 39.5999 41.6614C39.5783 41.8125 39.5729 41.9691 39.5837 42.1311C39.5945 42.2823 39.5999 42.4335 39.5999 42.5847V42.7467C39.5999 42.7899 39.5837 42.8763 39.5514 43.0059V43.1031C39.5622 43.1247 39.5729 43.1517 39.5837 43.1841C39.6376 43.2813 39.6591 43.3893 39.6484 43.5081C39.6484 43.6268 39.6699 43.7402 39.713 43.8482C39.9285 43.7942 40.1278 43.7672 40.311 43.7672C40.4295 43.7672 40.5427 43.7726 40.6504 43.7834C40.7582 43.7942 40.8713 43.805 40.9898 43.8158C41.0437 43.7726 41.1299 43.751 41.2484 43.751H41.3454C41.3885 43.751 41.4262 43.7564 41.4585 43.7672C41.5232 43.7132 41.5555 43.6268 41.5555 43.5081C41.5555 43.4325 41.5501 43.3623 41.5393 43.2975C41.5286 43.2327 41.5232 43.1679 41.5232 43.1031V42.5847C41.5232 42.4767 41.5286 42.4011 41.5393 42.3579C41.6255 42.2499 41.6686 42.0987 41.6686 41.9043C41.6794 41.71 41.6848 41.548 41.6848 41.4184C41.6848 41.17 41.6956 40.9162 41.7171 40.657C41.7387 40.3978 41.7494 40.144 41.7494 39.8956C41.7494 39.6473 41.7333 39.4043 41.7009 39.1667C41.6686 38.9183 41.6417 38.6699 41.6201 38.4215C41.5986 38.3027 41.5824 38.1623 41.5716 38.0004C41.5609 37.8276 41.5447 37.6602 41.5232 37.4982C41.5016 37.3254 41.4693 37.1634 41.4262 37.0122C41.3939 36.861 41.34 36.7368 41.2646 36.6396C41.2215 36.5856 41.1299 36.537 40.9898 36.4938C40.8605 36.4506 40.7635 36.402 40.6989 36.348L40.6343 36.2508C40.6127 36.2184 40.5804 36.1914 40.5373 36.1698C40.4834 36.1483 40.4188 36.1375 40.3433 36.1375C40.2679 36.1375 40.1979 36.1213 40.1332 36.0889C40.0578 36.0565 39.9985 36.0079 39.9554 35.9431Z" fill="#FFF0DD"/>
<path d="M42.5104 58.843C42.4566 58.897 42.3973 58.9294 42.3326 58.9402C42.268 58.951 42.2034 58.9564 42.1387 58.9564C41.9771 59.032 41.8047 59.0698 41.6215 59.0698C41.503 59.005 41.4384 58.9834 41.4276 59.005C41.4168 59.0266 41.3953 59.0482 41.3629 59.0698C41.2013 59.1454 41.0558 59.1832 40.9266 59.1832C40.7973 59.194 40.6895 59.2264 40.6033 59.2804C40.5171 59.2156 40.4686 59.1184 40.4579 58.9888C40.4579 58.87 40.4471 58.7674 40.4255 58.681C40.3717 58.6054 40.3339 58.5136 40.3124 58.4056C40.2908 58.2868 40.2747 58.168 40.2639 58.0492C40.2531 57.9304 40.237 57.8171 40.2154 57.7091C40.2047 57.5903 40.1777 57.4877 40.1346 57.4013C40.1238 57.3473 40.1185 57.2987 40.1185 57.2555C40.1292 57.2123 40.1238 57.1637 40.1023 57.1097C40.1131 56.9261 40.1077 56.7803 40.0861 56.6723C40.0646 56.5643 40.043 56.4509 40.0215 56.3321C40.0107 56.2673 40.0053 56.1971 40.0053 56.1215C40.0053 56.0351 39.973 55.9704 39.9083 55.9272C39.9407 55.776 39.9461 55.6626 39.9245 55.587C39.903 55.5114 39.8868 55.4412 39.876 55.3764C39.8652 55.29 39.8599 55.1982 39.8599 55.101C39.8599 54.993 39.8491 54.8958 39.8275 54.8094C39.7629 54.291 39.6929 53.7727 39.6174 53.2543C39.542 52.7359 39.472 52.2176 39.4073 51.6992C39.3427 51.7532 39.2942 51.8342 39.2619 51.9422C39.2403 52.0502 39.2188 52.1474 39.1972 52.2338C39.1326 52.4281 39.0733 52.6279 39.0194 52.8331C38.9656 53.0383 38.9117 53.2381 38.8578 53.4325C38.8363 53.5189 38.8147 53.6215 38.7932 53.7403C38.7824 53.8483 38.7608 53.9455 38.7285 54.0319C38.6208 54.345 38.5238 54.615 38.4376 54.8418C38.3622 55.0686 38.2868 55.3008 38.2113 55.5384C38.1898 55.668 38.1682 55.7922 38.1467 55.911C38.1251 56.0297 38.1036 56.1485 38.082 56.2673C38.0713 56.3321 38.0551 56.4239 38.0336 56.5427C38.012 56.6615 37.9905 56.7479 37.9689 56.8019C37.9474 56.8559 37.9258 56.8937 37.9043 56.9153C37.8935 56.9369 37.8935 56.9747 37.9043 57.0287C37.7965 57.1907 37.7211 57.3689 37.678 57.5633C37.6457 57.7577 37.581 57.9466 37.484 58.1302C37.484 58.2598 37.4356 58.3732 37.3386 58.4704C37.2847 58.4812 37.2308 58.492 37.177 58.5028C37.1339 58.5136 37.0854 58.5352 37.0315 58.5676C36.9776 58.546 36.913 58.5352 36.8376 58.5352C36.7729 58.5244 36.7083 58.519 36.6436 58.519C36.5897 58.5082 36.5413 58.492 36.4982 58.4704C36.4551 58.438 36.4066 58.4164 36.3527 58.4056C36.2988 58.3408 36.2396 58.2868 36.1749 58.2436C36.1103 58.1896 36.0456 58.1356 35.981 58.0816C35.9163 57.9196 35.8571 57.8117 35.8032 57.7577C35.7709 57.6389 35.7278 57.5309 35.6739 57.4337C35.62 57.3257 35.5823 57.2069 35.5608 57.0773C35.5284 56.9585 35.4853 56.8505 35.4315 56.7533C35.3884 56.6453 35.3399 56.5319 35.286 56.4131C35.2645 56.3375 35.2375 56.2673 35.2052 56.2025C35.1837 56.1269 35.1567 56.0513 35.1244 55.9758C35.1136 55.8894 35.0813 55.7814 35.0274 55.6518C34.9843 55.5222 34.952 55.4088 34.9304 55.3116C34.9304 55.3008 34.9089 55.2468 34.8658 55.1496C34.8335 55.0416 34.7958 54.9282 34.7527 54.8094C34.7203 54.6906 34.6826 54.5826 34.6395 54.4854C34.6072 54.3882 34.5857 54.3342 34.5749 54.3234C34.5533 54.2694 34.5318 54.2208 34.5102 54.1776C34.4995 54.1237 34.4833 54.0643 34.4617 53.9995C34.4186 53.8591 34.3648 53.7187 34.3001 53.5783C34.2355 53.4271 34.1708 53.2867 34.1062 53.1571C34.0523 53.0491 34.0146 52.9465 33.993 52.8493C33.9715 52.7413 33.9446 52.6387 33.9122 52.5415C33.8907 52.4875 33.8691 52.4389 33.8476 52.3957C33.8368 52.3525 33.8207 52.3039 33.7991 52.25C33.7776 52.1852 33.756 52.1204 33.7345 52.0556C33.7129 51.98 33.6914 51.9044 33.6698 51.8288C33.6159 51.8504 33.589 51.899 33.589 51.9746C33.5998 52.0394 33.5998 52.0988 33.589 52.1528C33.5674 52.2715 33.5567 52.3903 33.5567 52.5091C33.5567 52.6171 33.5513 52.7305 33.5405 52.8493C33.519 52.9789 33.4974 53.1031 33.4759 53.2219C33.4543 53.3407 33.4382 53.4595 33.4274 53.5783C33.4274 53.8699 33.4112 54.1614 33.3789 54.453C33.3573 54.7122 33.3304 54.9768 33.2981 55.2468C33.2658 55.506 33.2442 55.776 33.2334 56.0567C33.2334 56.2619 33.2119 56.4671 33.1688 56.6723C33.1257 56.8667 33.1149 57.0719 33.1365 57.2879C33.1149 57.3311 33.1041 57.3635 33.1041 57.3851C33.1041 57.4067 33.1041 57.4391 33.1041 57.4823C33.1041 57.5363 33.0988 57.5957 33.088 57.6605C33.088 57.7253 33.088 57.7847 33.088 57.8387C33.088 57.9358 33.0988 58.0006 33.1203 58.033C33.088 58.1302 33.0718 58.2382 33.0718 58.357C33.0718 58.465 33.0718 58.573 33.0718 58.681C33.0503 58.7242 33.0341 58.7674 33.0233 58.8106C33.0233 58.8538 33.0072 58.897 32.9748 58.9402C32.9856 59.1238 32.9317 59.2156 32.8132 59.2156C32.7809 59.2156 32.7432 59.2048 32.7001 59.1832C32.6678 59.1724 32.6408 59.1508 32.6193 59.1184C32.5008 59.1292 32.4307 59.1022 32.4092 59.0374C32.3984 58.9726 32.3661 58.9456 32.3122 58.9564C32.1829 59.0104 32.1075 59.0266 32.0859 59.005C32.0752 58.9834 32.0428 58.978 31.989 58.9888C31.9028 58.9024 31.8435 58.8646 31.8112 58.8754C31.7896 58.8862 31.7681 58.8916 31.7465 58.8916C31.6496 58.8592 31.5957 58.8538 31.5849 58.8754C31.5741 58.8862 31.5526 58.8916 31.5203 58.8916C31.4664 58.8376 31.391 58.8106 31.294 58.8106C31.2078 58.8106 31.1324 58.8052 31.0677 58.7944C31.0569 58.7512 31.0462 58.7134 31.0354 58.681C31.0354 58.6378 31.0354 58.5892 31.0354 58.5352C31.0354 58.4704 31.0354 58.411 31.0354 58.357C31.0462 58.2922 31.0516 58.2274 31.0516 58.1626C31.0516 58.1086 31.0462 58.0546 31.0354 58.0006C31.0354 57.9358 31.0354 57.8657 31.0354 57.7901C31.0354 57.7145 31.0408 57.6443 31.0516 57.5795C31.0623 57.5039 31.0677 57.4229 31.0677 57.3365C31.0677 57.3041 31.0623 57.2771 31.0516 57.2555C31.0408 57.2231 31.0354 57.1853 31.0354 57.1421C31.1 57.0017 31.127 56.8937 31.1162 56.8181C31.1162 56.7317 31.1216 56.6507 31.1324 56.5751C31.1539 56.3915 31.1701 56.2133 31.1809 56.0405C31.2024 55.857 31.224 55.6734 31.2455 55.4898C31.2455 55.1874 31.2509 54.939 31.2617 54.7446C31.2832 54.5394 31.3102 54.3342 31.3425 54.1291C31.364 54.0319 31.3802 53.9401 31.391 53.8537C31.4125 53.7673 31.4341 53.6755 31.4556 53.5783C31.4772 53.4163 31.4879 53.2489 31.4879 53.0761C31.4987 52.8925 31.5149 52.7143 31.5364 52.5415C31.558 52.2715 31.5849 52.007 31.6172 51.7478C31.6496 51.4778 31.6765 51.2132 31.698 50.954C31.7196 50.7488 31.7411 50.549 31.7627 50.3547C31.795 50.1495 31.8112 49.9551 31.8112 49.7715C31.8112 49.6743 31.822 49.5501 31.8435 49.3989C31.8758 49.2477 31.8974 49.1181 31.9081 49.0101C31.9297 48.7509 31.9459 48.4972 31.9566 48.2488C31.9782 48.0004 31.989 47.752 31.989 47.5036V47.3254C31.989 47.3038 31.9997 47.2822 32.0213 47.2606C32.0428 47.239 32.0536 47.2012 32.0536 47.1472C32.0536 47.05 32.0752 46.9852 32.1183 46.9528C32.1721 46.9096 32.2152 46.8448 32.2476 46.7584C32.3014 46.7584 32.3607 46.7638 32.4253 46.7746C32.5008 46.7854 32.5546 46.8178 32.587 46.8718C32.6624 46.8502 32.7378 46.8394 32.8132 46.8394C32.8886 46.8394 32.9533 46.8124 33.0072 46.7584C33.0718 46.7584 33.1203 46.7746 33.1526 46.807C33.1849 46.8394 33.228 46.8664 33.2819 46.888C33.325 46.8664 33.3681 46.8502 33.4112 46.8394C33.4543 46.8178 33.4974 46.7962 33.5405 46.7746C33.5728 46.7962 33.5944 46.8232 33.6052 46.8556C33.6267 46.8772 33.6536 46.8934 33.686 46.9042C33.8476 46.861 33.9553 46.8556 34.0092 46.888C34.0308 46.9312 34.0415 46.9744 34.0415 47.0176C34.0523 47.0608 34.0631 47.104 34.0739 47.1472C34.1816 47.2552 34.2516 47.3794 34.284 47.5198C34.3163 47.6494 34.3756 47.7682 34.4617 47.8762C34.4833 47.941 34.5048 48.0058 34.5264 48.0706C34.5587 48.1354 34.5857 48.211 34.6072 48.2974L34.6557 48.4918C34.6988 48.5997 34.7527 48.7293 34.8173 48.8805C34.8712 49.0857 34.9197 49.2963 34.9628 49.5123C35.0059 49.7283 35.0759 49.9281 35.1729 50.1117C35.1837 50.1765 35.1998 50.2575 35.2214 50.3547C35.2537 50.441 35.2806 50.5166 35.3022 50.5814C35.3776 50.765 35.453 50.9486 35.5284 51.1322C35.6146 51.305 35.6901 51.494 35.7547 51.6992C35.8194 51.9044 35.8732 52.115 35.9163 52.3309C35.9702 52.5469 36.0349 52.7575 36.1103 52.9627C36.1749 53.1571 36.2234 53.2975 36.2557 53.3839C36.2881 53.4703 36.3312 53.5567 36.385 53.6431C36.385 53.6755 36.3904 53.7295 36.4012 53.8051C36.4227 53.8807 36.4497 53.9617 36.482 54.0481C36.5143 54.1237 36.5466 54.1992 36.579 54.2748C36.6113 54.3396 36.6436 54.3774 36.6759 54.3882C36.7083 54.3666 36.7244 54.3342 36.7244 54.291C36.7352 54.2478 36.7568 54.21 36.7891 54.1776C36.7999 54.0589 36.816 53.9131 36.8376 53.7403C36.8699 53.5675 36.913 53.4271 36.9669 53.3191C36.9669 53.2651 36.9776 53.1679 36.9992 53.0275C37.0315 52.8763 37.0692 52.7197 37.1123 52.5577C37.1554 52.3849 37.1931 52.2284 37.2255 52.088C37.2686 51.9476 37.3063 51.8612 37.3386 51.8288C37.3601 51.6884 37.3763 51.602 37.3871 51.5696C37.4086 51.5372 37.4302 51.5102 37.4517 51.4886C37.4625 51.4022 37.484 51.3212 37.5164 51.2456C37.5487 51.17 37.5702 51.089 37.581 51.0026C37.6026 50.819 37.6295 50.6678 37.6618 50.549C37.6942 50.4302 37.7372 50.2845 37.7911 50.1117C37.8342 49.9605 37.8719 49.8093 37.9043 49.6581C37.9474 49.4961 37.9958 49.3395 38.0497 49.1883C38.179 48.7779 38.2921 48.4162 38.3891 48.103C38.4969 47.779 38.6262 47.4658 38.777 47.1634C38.8093 47.0662 38.8363 47.0068 38.8578 46.9852C38.8794 46.9636 38.9009 46.942 38.9225 46.9204C39.0087 46.888 39.0949 46.8718 39.1811 46.8718C39.278 46.8718 39.375 46.8772 39.472 46.888C39.5797 46.8448 39.6605 46.7962 39.7144 46.7422C39.7575 46.7962 39.8221 46.8232 39.9083 46.8232C40.0161 46.8232 40.0915 46.7908 40.1346 46.726C40.1777 46.7476 40.21 46.753 40.2316 46.7422C40.2639 46.7314 40.307 46.7368 40.3609 46.7584C40.3824 46.7368 40.4094 46.7152 40.4417 46.6936C40.474 46.6612 40.5063 46.6451 40.5387 46.6451C40.6249 46.753 40.6895 46.8394 40.7326 46.9042C40.7865 46.9582 40.8242 47.023 40.8457 47.0986C40.8781 47.1958 40.8942 47.3038 40.8942 47.4226C40.905 47.5306 40.9373 47.6332 40.9912 47.7304C40.9804 47.8708 40.9858 48.0868 41.0074 48.3784C41.0397 48.6591 41.072 48.9615 41.1043 49.2855C41.1474 49.5987 41.1905 49.8903 41.2336 50.1603C41.2767 50.4302 41.3144 50.5976 41.3468 50.6624C41.336 50.8028 41.3414 50.9216 41.3629 51.0188C41.3845 51.116 41.3953 51.2132 41.3953 51.3104C41.3953 51.3428 41.4006 51.413 41.4114 51.521C41.4222 51.6182 41.433 51.7262 41.4437 51.845C41.4545 51.953 41.4653 52.061 41.4761 52.169C41.4976 52.2662 41.5138 52.3363 41.5245 52.3795C41.5245 52.5739 41.5569 52.7251 41.6215 52.8331C41.6754 53.1031 41.7185 53.3731 41.7508 53.6431C41.7939 53.9131 41.8316 54.1884 41.864 54.4692C41.8855 54.6096 41.8963 54.7446 41.8963 54.8742C41.907 55.0038 41.9232 55.1388 41.9448 55.2792C41.9555 55.3332 41.9663 55.3872 41.9771 55.4412C41.9986 55.4952 42.0148 55.5492 42.0256 55.6032C42.0471 55.7112 42.0633 55.8138 42.0741 55.911C42.0848 56.0082 42.101 56.1053 42.1225 56.2025C42.1333 56.2565 42.1495 56.3159 42.171 56.3807C42.1926 56.4347 42.1926 56.4941 42.171 56.5589C42.1926 56.6345 42.198 56.7155 42.1872 56.8019C42.1872 56.8883 42.2087 56.9639 42.2518 57.0287C42.2518 57.2555 42.268 57.4553 42.3003 57.6281C42.3111 57.7577 42.3434 57.8872 42.3973 58.0168C42.4188 58.1464 42.435 58.2814 42.4458 58.4218C42.4673 58.5622 42.4889 58.7026 42.5104 58.843Z" fill="#FFF0DD"/>
<path d="M48.0734 46.6289C48.1273 46.8232 48.1811 47.0176 48.235 47.212C48.2889 47.3956 48.3535 47.5792 48.429 47.7628C48.5906 47.7844 48.6876 47.8006 48.7199 47.8114C48.763 47.8222 48.8115 47.8384 48.8653 47.86C48.9839 48.1408 49.0539 48.4432 49.0754 48.7671C49.1078 49.0803 49.1509 49.3881 49.2047 49.6905C49.4095 49.9605 49.5549 50.2521 49.6411 50.5652C49.7381 50.8676 49.8458 51.1754 49.9644 51.4886C49.9967 51.5966 50.0182 51.6668 50.029 51.6992C50.0398 51.7208 50.0452 51.7424 50.0452 51.764C50.1098 51.9476 50.1745 52.1366 50.2391 52.3309C50.3038 52.5253 50.3738 52.7143 50.4492 52.8979C50.4815 52.9951 50.5139 53.0923 50.5462 53.1895C50.5893 53.2759 50.627 53.3623 50.6593 53.4487C50.6916 53.5567 50.7186 53.6701 50.7401 53.7889C50.7725 53.8969 50.8048 54.0049 50.8371 54.1129C50.9125 54.3288 50.9933 54.5448 51.0795 54.7608C51.1657 54.9768 51.2519 55.1928 51.3381 55.4088C51.3704 55.4844 51.4297 55.6518 51.5159 55.911C51.6129 56.1701 51.7099 56.4455 51.8068 56.7371C51.9038 57.0179 51.99 57.2825 52.0654 57.5309C52.1516 57.7685 52.1947 57.9142 52.1947 57.9682C52.1947 58.0546 52.2001 58.1464 52.2109 58.2436C52.2324 58.33 52.2486 58.4218 52.2594 58.519C52.2163 58.627 52.1624 58.6864 52.0977 58.6972C52.0331 58.708 51.9738 58.7026 51.92 58.681C51.8661 58.7026 51.8122 58.7242 51.7583 58.7458C51.7152 58.7674 51.6721 58.789 51.629 58.8106C51.5967 58.8214 51.5698 58.8376 51.5482 58.8592C51.5267 58.8808 51.4997 58.8916 51.4674 58.8916C51.3381 58.8916 51.2519 58.9024 51.2088 58.924C51.1765 58.9564 51.1226 58.9726 51.0472 58.9726C50.9502 58.9402 50.8856 58.9348 50.8533 58.9564C50.8317 58.9888 50.8102 59.0104 50.7886 59.0212C50.7455 59.0428 50.697 59.0536 50.6432 59.0536C50.5893 59.0536 50.5354 59.059 50.4815 59.0698C50.46 59.0266 50.4384 58.9834 50.4169 58.9402C50.4061 58.897 50.3846 58.8484 50.3522 58.7944C50.2337 58.6216 50.1475 58.4542 50.0936 58.2922C50.0506 58.1302 50.0128 58.0006 49.9805 57.9034C49.9266 57.7847 49.8782 57.6659 49.8351 57.5471C49.8027 57.4283 49.7596 57.3095 49.7058 57.1907C49.6411 57.2123 49.5819 57.2393 49.528 57.2717C49.4741 57.2933 49.431 57.3257 49.3987 57.3689C49.2694 57.3689 49.2047 57.3851 49.2047 57.4175C49.2047 57.4499 49.194 57.4823 49.1724 57.5147C49.1078 57.5363 49.0539 57.5579 49.0108 57.5795C48.9785 57.6011 48.9192 57.6065 48.833 57.5957C48.7791 57.6497 48.7253 57.6983 48.6714 57.7415C48.6175 57.7739 48.5475 57.7955 48.4613 57.8063C48.3751 57.8926 48.2835 57.9682 48.1865 58.033C48.1003 58.087 47.998 58.0978 47.8795 58.0654C47.7286 58.0978 47.5778 58.1302 47.4269 58.1626C47.2761 58.1842 47.1252 58.195 46.9744 58.195C46.802 58.141 46.6942 58.0924 46.6511 58.0492C46.608 58.006 46.5434 57.9844 46.4572 57.9844C46.468 57.8333 46.4356 57.7307 46.3602 57.6767C46.3602 57.6443 46.3602 57.5957 46.3602 57.5309C46.371 57.4553 46.3872 57.4067 46.4087 57.3851C46.5488 57.3203 46.6296 57.2501 46.6511 57.1745C46.6727 57.0989 46.7319 57.0503 46.8289 57.0287C46.8505 56.9855 46.872 56.9477 46.8936 56.9153C46.9259 56.8721 46.9528 56.8289 46.9744 56.7857C47.0283 56.7641 47.0714 56.7479 47.1037 56.7371C47.1468 56.7263 47.1791 56.6939 47.2006 56.6399C47.2545 56.6399 47.3353 56.6075 47.4431 56.5427C47.5508 56.4671 47.6209 56.4077 47.6532 56.3645C47.7394 56.3321 47.7933 56.3051 47.8148 56.2835C47.8364 56.2511 47.8633 56.2241 47.8956 56.2025C48.0034 56.2133 48.0734 56.2025 48.1057 56.1701C48.1919 56.2133 48.2889 56.2349 48.3966 56.2349C48.4397 56.2349 48.4774 56.2349 48.5098 56.2349C48.5421 56.2241 48.5798 56.2187 48.6229 56.2187C48.7091 56.1323 48.8168 56.0783 48.9461 56.0567C49.0862 56.0243 49.1994 55.965 49.2855 55.8786C49.2532 55.7922 49.2263 55.6896 49.2047 55.5708C49.1832 55.4412 49.1455 55.3386 49.0916 55.263C49.0701 55.1226 49.0323 54.9876 48.9785 54.858C48.9354 54.7284 48.8977 54.6042 48.8653 54.4854C48.7468 54.0319 48.6067 53.5891 48.4451 53.1571C48.2835 52.7251 48.1488 52.2823 48.0411 51.8288C48.0195 51.7748 47.9926 51.7208 47.9603 51.6668C47.9387 51.602 47.9172 51.5426 47.8956 51.4886C47.8417 51.6182 47.8148 51.6938 47.8148 51.7154C47.8148 51.7262 47.804 51.7424 47.7825 51.764C47.7717 51.818 47.7609 51.8666 47.7502 51.9098C47.7394 51.9422 47.7232 51.9854 47.7017 52.0394C47.6693 52.1258 47.637 52.223 47.6047 52.3309C47.5831 52.4281 47.5616 52.5199 47.5401 52.6063C47.4862 52.7899 47.4377 52.9843 47.3946 53.1895C47.3515 53.3839 47.303 53.5783 47.2491 53.7727C47.1414 54.1075 47.0283 54.4422 46.9097 54.777C46.802 55.101 46.6942 55.4304 46.5865 55.7652C46.5649 55.9164 46.538 56.0351 46.5057 56.1215C46.4841 56.1971 46.4572 56.2781 46.4249 56.3645C46.4033 56.4401 46.3818 56.5157 46.3602 56.5913C46.3494 56.6669 46.3441 56.7263 46.3441 56.7695C46.1932 57.1151 46.0639 57.4661 45.9562 57.8225C45.8592 58.1788 45.7353 58.5244 45.5844 58.8592C45.5413 58.8808 45.5036 58.9078 45.4713 58.9402C45.439 58.9726 45.4013 58.9888 45.3582 58.9888C45.272 58.9888 45.2235 58.9672 45.2127 58.924C45.2127 58.8808 45.1912 58.8592 45.1481 58.8592C45.105 58.8592 45.0673 58.87 45.0349 58.8916C45.0026 58.9024 44.9703 58.9186 44.938 58.9402C44.8841 58.9186 44.8194 58.9024 44.744 58.8916C44.6794 58.8916 44.6309 58.87 44.5986 58.8268C44.5231 58.8808 44.4477 58.9078 44.3723 58.9078C44.2861 58.9078 44.1999 58.8808 44.1137 58.8268C44.0491 58.8484 43.9844 58.8592 43.9198 58.8592C43.8874 58.8592 43.8497 58.8538 43.8066 58.843C43.7635 58.8322 43.7312 58.816 43.7097 58.7944C43.6989 58.7512 43.6935 58.708 43.6935 58.6648C43.6935 58.6216 43.6935 58.573 43.6935 58.519C43.6935 58.411 43.6827 58.33 43.6612 58.276C43.8551 57.7253 44.0437 57.1691 44.2268 56.6075C44.41 56.0351 44.5932 55.4574 44.7763 54.8742C44.8733 54.6042 44.9649 54.3396 45.0511 54.0805C45.1481 53.8213 45.2397 53.5567 45.3259 53.2867C45.369 53.1355 45.4067 52.9951 45.439 52.8655C45.4713 52.7251 45.5144 52.5901 45.5683 52.4605C45.6545 52.1798 45.7407 51.899 45.8269 51.6182C45.9238 51.3266 46.01 51.0404 46.0855 50.7596C46.1286 50.7272 46.1555 50.6894 46.1663 50.6462C46.1771 50.603 46.1932 50.5544 46.2148 50.5004L46.1986 50.2899C46.274 50.1819 46.3225 50.0901 46.3441 50.0145C46.3764 49.9281 46.3979 49.8417 46.4087 49.7553C46.4626 49.6257 46.5111 49.4853 46.5542 49.3341C46.5973 49.1829 46.6296 49.0425 46.6511 48.9129C46.6727 48.7401 46.6835 48.5457 46.6835 48.3298C46.6942 48.103 46.7266 47.914 46.7804 47.7628C46.802 47.7196 46.8181 47.6926 46.8289 47.6818C46.8505 47.6602 46.8612 47.6224 46.8612 47.5684C46.8828 47.5468 46.9043 47.5252 46.9259 47.5036C46.9582 47.4712 46.9798 47.4388 46.9905 47.4064C47.0444 47.32 47.0606 47.2444 47.039 47.1796C47.0283 47.1148 47.0229 47.0446 47.0229 46.969C47.1198 46.915 47.1629 46.8664 47.1522 46.8232C47.1414 46.78 47.136 46.7368 47.136 46.6936C47.136 46.6397 47.1683 46.5911 47.233 46.5479C47.3084 46.4939 47.3569 46.4399 47.3784 46.3859C47.4431 46.3967 47.5077 46.4075 47.5724 46.4183C47.637 46.4183 47.7017 46.4129 47.7663 46.4021C47.8417 46.5425 47.9333 46.6127 48.0411 46.6127L48.0734 46.6289Z" fill="#FFF0DD"/>
<path d="M57.0627 46.9528C57.0843 46.996 57.1058 47.0284 57.1274 47.05C57.1597 47.0608 57.1812 47.0932 57.192 47.1472C57.2674 47.2012 57.3267 47.2444 57.3698 47.2768C57.4129 47.2984 57.4398 47.3416 57.4506 47.4064C57.5476 47.482 57.6014 47.5306 57.6122 47.5522C57.6338 47.5738 57.6499 47.6008 57.6607 47.6332C57.7146 47.6764 57.7631 47.7142 57.8062 47.7466C57.86 47.779 57.8977 47.8276 57.9193 47.8924C58.0055 47.968 58.0594 48.0274 58.0809 48.0706C58.1025 48.1138 58.1186 48.1624 58.1294 48.2164C58.0863 48.292 58.0001 48.3946 57.8708 48.5241C57.7415 48.6537 57.5961 48.7941 57.4344 48.9453C57.2728 49.0857 57.1166 49.2261 56.9657 49.3665C56.8149 49.4961 56.6964 49.5987 56.6102 49.6743C56.5886 49.7175 56.5617 49.7553 56.5294 49.7877C56.497 49.8201 56.4701 49.8579 56.4486 49.9011C56.3839 49.9551 56.3246 50.0145 56.2708 50.0793C56.2169 50.1333 56.1523 50.1765 56.0768 50.2089C55.9691 50.3601 55.8182 50.5112 55.6243 50.6624C55.4303 50.8028 55.3011 50.9432 55.2364 51.0836C55.2472 51.116 55.2687 51.1484 55.3011 51.1808C55.3441 51.2132 55.3765 51.2402 55.398 51.2618C55.4842 51.3482 55.5866 51.4292 55.7051 51.5048C55.8236 51.5696 55.926 51.6452 56.0122 51.7316C56.0984 51.8072 56.1846 51.8828 56.2708 51.9584C56.357 52.0232 56.4432 52.0934 56.5294 52.169C56.5725 52.2122 56.6263 52.2769 56.691 52.3633C56.7987 52.4497 56.9011 52.5307 56.9981 52.6063C57.1058 52.6711 57.2082 52.7467 57.3051 52.8331C57.5099 53.0059 57.7092 53.1841 57.9031 53.3677C58.0971 53.5405 58.3018 53.7133 58.5173 53.8861L58.6466 54.0319C58.6466 54.1183 58.6681 54.2208 58.7112 54.3396C58.7651 54.4476 58.8136 54.5394 58.8567 54.615C58.8351 54.723 58.8351 54.7932 58.8567 54.8256C58.889 54.8472 58.916 54.8688 58.9375 54.8904C58.9267 55.0956 58.9321 55.2306 58.9537 55.2954C58.7705 55.4574 58.5981 55.6086 58.4365 55.749C58.2856 55.8786 58.151 56.0082 58.0324 56.1377C57.9355 56.2565 57.8331 56.3645 57.7254 56.4617C57.6284 56.5481 57.5206 56.6453 57.4021 56.7533C57.3375 56.8397 57.2836 56.8991 57.2405 56.9315C57.1651 57.0071 57.0896 57.0665 57.0142 57.1097C56.8849 57.2285 56.7556 57.3419 56.6263 57.4499C56.5078 57.5579 56.3893 57.6659 56.2708 57.7739C56.1846 57.8495 56.1038 57.925 56.0283 58.0006C55.9529 58.0654 55.8775 58.141 55.8021 58.2274C55.7374 58.2922 55.662 58.3678 55.5758 58.4542C55.5004 58.5406 55.4196 58.6108 55.3334 58.6648C55.3011 58.7296 55.258 58.789 55.2041 58.843C55.1502 58.8862 55.1017 58.9348 55.0586 58.9888C54.9832 59.032 54.9132 59.0752 54.8485 59.1184C54.7839 59.1616 54.7084 59.2048 54.6222 59.248C54.536 59.1832 54.4499 59.1238 54.3637 59.0698C54.2882 59.0158 54.202 58.978 54.1051 58.9564C54.0404 58.9024 53.9919 58.8484 53.9596 58.7944C53.9273 58.7404 53.868 58.7026 53.7818 58.681C53.7603 58.6486 53.7333 58.6162 53.701 58.5838C53.6795 58.5406 53.6579 58.4974 53.6364 58.4542C53.5071 58.4434 53.4047 58.3624 53.3293 58.2112C53.3508 58.1464 53.3778 58.0978 53.4101 58.0654C53.4532 58.033 53.464 57.9736 53.4424 57.8872C53.5071 57.7793 53.5825 57.6875 53.6687 57.6119C53.7657 57.5255 53.8572 57.4391 53.9434 57.3527C54.0404 57.2663 54.1266 57.1799 54.202 57.0935C54.2882 56.9963 54.3798 56.9045 54.4768 56.8181C54.5307 56.7641 54.5845 56.7155 54.6384 56.6723C54.6923 56.6183 54.7515 56.5643 54.8162 56.5103C54.9347 56.3915 55.0532 56.2835 55.1718 56.1863C55.3011 56.0783 55.4303 55.965 55.5596 55.8462C55.732 55.6734 55.9098 55.5114 56.093 55.3602C56.2762 55.1982 56.4432 55.02 56.594 54.8256C56.5832 54.7824 56.5671 54.7554 56.5455 54.7446C56.524 54.723 56.5078 54.696 56.497 54.6636C56.3246 54.5016 56.1523 54.345 55.9799 54.1938C55.8182 54.0319 55.6405 53.8915 55.4465 53.7727C55.3819 53.7079 55.3388 53.6539 55.3172 53.6107C55.1233 53.4703 54.9347 53.3137 54.7515 53.1409C54.5791 52.9681 54.3852 52.8223 54.1697 52.7035C54.1266 52.6495 54.0727 52.6063 54.0081 52.5739C53.9542 52.5307 53.9003 52.4929 53.8465 52.4605C53.8141 52.4065 53.7764 52.3633 53.7333 52.3309C53.701 52.2877 53.6579 52.2554 53.604 52.2338C53.5178 52.1582 53.4586 52.0988 53.4263 52.0556C53.4047 52.0016 53.3616 51.9692 53.297 51.9584C53.2754 51.9044 53.2377 51.8612 53.1838 51.8288C53.1407 51.7964 53.0922 51.7586 53.0384 51.7154C53.0168 51.6506 52.9845 51.5966 52.9414 51.5534C52.9306 51.467 52.936 51.4076 52.9576 51.3752C52.9791 51.332 52.9953 51.2996 53.006 51.278C52.9953 51.2132 52.9683 51.1646 52.9252 51.1322C52.8714 51.0998 52.8444 51.0458 52.8444 50.9702C52.8444 50.927 52.8606 50.9 52.8929 50.8892C52.9145 50.8676 52.9306 50.8406 52.9414 50.8082L52.9899 50.5652C53.0761 50.5004 53.1461 50.4248 53.2 50.3385C53.2646 50.2413 53.3454 50.1657 53.4424 50.1117C53.5502 49.9497 53.6848 49.8147 53.8465 49.7067C53.9003 49.6203 53.965 49.5501 54.0404 49.4961C54.1266 49.4421 54.1966 49.3719 54.2505 49.2855C54.3367 49.2315 54.4068 49.1721 54.4606 49.1073C54.5253 49.0425 54.6007 48.9831 54.6869 48.9291C54.7084 48.8859 54.73 48.8535 54.7515 48.8319C54.7839 48.7995 54.8054 48.7671 54.8162 48.7347C55.1071 48.454 55.3603 48.211 55.5758 48.0058C55.8021 47.8006 56.0337 47.5954 56.2708 47.3902C56.3354 47.3362 56.4001 47.2768 56.4647 47.212C56.5294 47.1472 56.5994 47.0878 56.6748 47.0338C56.6964 47.0122 56.7233 47.0014 56.7556 47.0014C56.788 47.0014 56.8203 46.9906 56.8526 46.969C56.9819 46.969 57.0519 46.9636 57.0627 46.9528Z" fill="#FFF0DD"/>
<path d="M67.5713 46.9042C67.7005 46.8718 67.7921 46.861 67.846 46.8718C67.8999 46.8718 67.9538 46.8772 68.0076 46.888C68.0723 46.9312 68.1261 46.9852 68.1692 47.05C68.1692 47.2768 68.1639 47.5036 68.1531 47.7304V48.3946C68.1531 48.8049 68.1585 49.2153 68.1692 49.6257C68.18 50.0361 68.18 50.4464 68.1692 50.8568C68.1908 50.954 68.1962 51.008 68.1854 51.0188C68.1746 51.0296 68.1692 51.0458 68.1692 51.0674C68.1692 51.4778 68.18 51.8828 68.2016 52.2823C68.2231 52.6819 68.2339 53.0869 68.2339 53.4973V55.6518C68.2339 56.1161 68.2447 56.5751 68.2662 57.0287C68.2985 57.4823 68.3147 57.9358 68.3147 58.3894C68.3147 58.4326 68.2878 58.492 68.2339 58.5676C68.2123 58.654 68.18 58.7242 68.1369 58.7782C68.0399 58.789 67.9484 58.7728 67.8622 58.7296C67.8191 58.7296 67.7867 58.7458 67.7652 58.7782C67.7544 58.7998 67.7329 58.8214 67.7005 58.843C67.6143 58.843 67.5443 58.8646 67.4904 58.9078C67.4366 58.951 67.3719 58.9726 67.2965 58.9726C67.2318 58.9726 67.1672 58.9618 67.1026 58.9402C67.0487 58.9294 66.984 58.924 66.9086 58.924C66.8871 58.924 66.8547 58.9402 66.8116 58.9726C66.7685 59.0158 66.7362 59.0428 66.7147 59.0536C66.6608 59.0536 66.6123 59.059 66.5692 59.0698C66.5261 59.0914 66.4776 59.1022 66.4237 59.1022C66.3699 59.059 66.3429 58.9942 66.3429 58.9078C66.3537 58.8214 66.3214 58.7674 66.246 58.7458V58.5676C66.2567 58.5028 66.2621 58.438 66.2621 58.3732C66.2621 57.952 66.2514 57.5309 66.2298 57.1097C66.2083 56.6777 66.1921 56.2511 66.1813 55.83C66.1705 55.6464 66.1652 55.4682 66.1652 55.2954C66.1759 55.1118 66.1813 54.9282 66.1813 54.7446V54.453C66.1813 54.3558 66.1705 54.264 66.149 54.1776C66.0843 54.1668 66.0251 54.1776 65.9712 54.21C65.9281 54.2316 65.8796 54.2424 65.8258 54.2424C65.5995 54.318 64.9274 54.4518 64.852 54.5274V52.3795C65.1214 52.2392 65.8689 51.9314 66.149 51.845C66.1274 51.251 66.1167 50.6624 66.1167 50.0793V48.3136V47.8114C66.1167 47.6386 66.1274 47.4712 66.149 47.3092C66.1598 47.266 66.1705 47.2336 66.1813 47.212C66.2029 47.1796 66.2136 47.1364 66.2136 47.0824C66.246 47.0284 66.2837 46.9906 66.3268 46.969C66.3699 46.9474 66.4022 46.915 66.4237 46.8718L66.4884 46.9366L66.5854 46.969C66.6716 46.9474 66.7201 46.9312 66.7308 46.9204L66.7955 46.888C66.8493 46.8664 66.9194 46.8556 67.0056 46.8556H67.2157H67.4096L67.5713 46.9042Z" fill="#FFF0DD"/>
<path d="M63.8863 55.4431C63.7678 55.4755 63.6493 55.5133 63.5307 55.5565C63.4122 55.5781 63.3099 55.6105 63.2237 55.6537L62.9651 55.2954C62.8897 55.803 62.8466 56.2889 62.8358 56.7533C62.8358 57.2069 62.8519 57.6605 62.8843 58.114C62.8627 58.1788 62.8519 58.2544 62.8519 58.3408C62.8519 58.4164 62.8358 58.4812 62.8035 58.5352C62.6849 58.5676 62.6041 58.573 62.561 58.5514C62.5287 58.519 62.491 58.492 62.4479 58.4704C62.4048 58.4812 62.3671 58.5028 62.3348 58.5352C62.3132 58.5676 62.2917 58.5946 62.2701 58.6162C62.1839 58.6162 62.1139 58.6378 62.06 58.681C62.0169 58.7134 61.9738 58.7404 61.9307 58.762C61.8984 58.7728 61.8661 58.7728 61.8337 58.762C61.8014 58.7512 61.7637 58.7566 61.7206 58.7782C61.6129 58.7782 61.559 58.7674 61.559 58.7458C61.5698 58.7134 61.559 58.6972 61.5267 58.6972C61.4836 58.6972 61.4512 58.7188 61.4297 58.762C61.4189 58.7944 61.392 58.8214 61.3489 58.843C61.3058 58.8646 61.2573 58.8808 61.2034 58.8916C61.1495 58.8916 61.0957 58.9024 61.0418 58.924C60.9879 58.87 60.961 58.8106 60.961 58.7458C60.961 58.681 60.9341 58.6216 60.8802 58.5676C60.8586 58.4164 60.8425 58.2706 60.8317 58.1302C60.8317 57.979 60.8155 57.8279 60.7832 57.6767C60.8048 57.3743 60.8101 57.1313 60.7994 56.9477V56.3807C60.7994 56.2079 60.794 56.0351 60.7832 55.8624L60.7509 55.344C60.7293 55.0308 60.7078 54.7122 60.6862 54.3882C60.6755 54.0643 60.6701 53.7403 60.6701 53.4163C60.6701 53.1463 60.6808 52.8817 60.7024 52.6225C60.7347 52.3633 60.7509 52.0988 60.7509 51.8288V51.2942C60.7617 51.1106 60.767 50.927 60.767 50.7434C60.767 50.5922 60.7617 50.4464 60.7509 50.3061V49.8687C60.7509 49.7067 60.7617 49.5501 60.7832 49.3989C60.8048 49.2369 60.8155 49.0803 60.8155 48.9291C60.8155 48.7455 60.8048 48.5673 60.7832 48.3946C60.7617 48.211 60.7509 48.0274 60.7509 47.8438C60.7509 47.7898 60.7563 47.7412 60.767 47.698C60.7778 47.644 60.7832 47.59 60.7832 47.536C60.7724 47.4172 60.7778 47.347 60.7994 47.3254C60.8209 47.293 60.8425 47.2552 60.864 47.212C60.9179 47.2012 60.9771 47.185 61.0418 47.1634C61.1064 47.1418 61.1657 47.1418 61.2196 47.1634C61.2842 47.0986 61.3704 47.0662 61.4782 47.0662C61.5967 47.0662 61.6829 47.0284 61.7368 46.9528C61.8122 46.9636 61.8607 46.969 61.8822 46.969C61.9145 46.9582 61.9415 46.9528 61.963 46.9528C62.06 46.9744 62.1085 46.9744 62.1085 46.9528C62.1193 46.9204 62.1408 46.9042 62.1731 46.9042C62.227 46.9042 62.3078 46.9096 62.4156 46.9204C62.5341 46.9204 62.6149 46.942 62.658 46.9852C62.7657 47.5576 62.825 48.1408 62.8358 48.7347C62.8466 49.3287 62.8519 49.9173 62.8519 50.5004C62.8519 50.6516 62.8573 50.8082 62.8681 50.9702C62.8789 51.1214 62.8735 51.2726 62.8519 51.4238C62.8519 51.4886 62.8466 51.5534 62.8358 51.6182C62.825 51.6722 62.8196 51.7316 62.8196 51.7964C62.8196 51.98 62.8088 52.1744 62.7873 52.3795C62.7657 52.5739 62.755 52.7629 62.755 52.9465C62.8843 53.0221 62.992 53.0491 63.0782 53.0275C63.1752 53.483 63.2668 53.4506 63.353 53.4182C63.4607 53.3858 63.5577 53.3534 63.6439 53.321C63.7409 53.2778 63.8378 53.24 63.9348 53.2076C64.021 53.1644 64.1449 53.1158 64.2419 53.0942L63.8863 55.4431Z" fill="#FFF0DD"/>
<path d="M40.5564 33.0905C40.5579 33.0926 40.5591 33.0943 40.5601 33.0958L40.6566 33.2748L40.8481 33.3814C40.8681 33.3926 40.8876 33.4034 40.9067 33.414C40.9579 33.4425 41.0056 33.469 41.0497 33.4938C41.0302 33.5614 41.0165 33.6217 41.0065 33.6695C40.9714 33.8379 40.9537 34.0056 40.9466 34.1434L40.935 34.1757C40.9348 34.1757 40.9346 34.1757 40.9344 34.1757C40.8159 34.1818 40.7333 34.1881 40.6684 34.1931C40.5965 34.1987 40.5463 34.2025 40.4932 34.2025C40.4015 34.2025 40.3148 34.2082 40.2433 34.2141C40.2 34.0562 40.1306 33.9296 40.0791 33.8475C40.0378 33.7814 39.993 33.7207 39.9486 33.6668L39.9216 33.5916C40.0282 33.5018 40.162 33.3887 40.2836 33.2759C40.3788 33.1876 40.4595 33.1158 40.5297 33.0549C40.541 33.0694 40.5499 33.0814 40.5564 33.0905Z" stroke="#FFF0DD" stroke-width="1.5"/>
</svg>
