<svg width="66" height="49" viewBox="0 0 66 49" fill="none" xmlns="http://www.w3.org/2000/svg">
<path d="M13.4494 12.7364L16.1876 12.693L16.1878 15.6035C16.8646 13.5391 17.8133 12.5069 19.034 12.5069C19.2537 12.4971 19.4729 12.5349 19.6745 12.6173C19.876 12.6997 20.0546 12.8245 20.1963 12.9821C20.4773 13.2966 20.6275 13.6955 20.6193 14.1055C20.6309 14.5058 20.489 14.8967 20.2194 15.2075C20.0944 15.3538 19.9349 15.4709 19.7534 15.5496C19.5718 15.6284 19.3732 15.6665 19.1732 15.6611C18.7015 15.6604 18.2708 15.444 17.881 15.012C17.1425 16.1163 16.7733 17.4846 16.7733 19.1169V21.1342C16.7773 21.3563 16.8314 21.5751 16.9322 21.7761C17.033 21.9772 17.1781 22.156 17.3579 22.3008C17.4751 22.3718 17.5621 22.4788 17.6041 22.6034V23.3236C17.6101 23.3507 17.6094 23.3787 17.602 23.4055C17.5946 23.4323 17.5806 23.4571 17.5613 23.478C17.5419 23.4989 17.5176 23.5154 17.4903 23.526C17.4631 23.5367 17.4335 23.5413 17.404 23.5395H13.2032C13.1806 23.5444 13.157 23.5442 13.1344 23.5392C13.1118 23.5341 13.0908 23.5242 13.0729 23.5103C13.0551 23.4964 13.0409 23.4788 13.0315 23.4589C13.0221 23.439 13.0177 23.4173 13.0187 23.3956V22.5026C13.0272 22.4505 13.0523 22.402 13.0907 22.3634C13.1291 22.3249 13.1791 22.298 13.234 22.2865C13.3961 22.2134 13.5303 22.0955 13.6184 21.9486C13.7064 21.8018 13.7441 21.6331 13.7263 21.4655V15.3152C13.7352 15.0852 13.6949 14.8558 13.6078 14.6406C13.5206 14.4254 13.3883 14.2287 13.2187 14.0621C13.1159 13.9806 13.0454 13.8689 13.0187 13.7452V13.0388C13.0187 12.8467 13.1623 12.7459 13.4494 12.7364Z" fill="#FFF0DD"/>
<path fill-rule="evenodd" clip-rule="evenodd" d="M21.0336 18.5985C20.9412 16.822 21.2694 15.3913 22.0182 14.3063C22.767 13.2212 23.7567 12.6787 24.9873 12.6787C28.228 12.6788 29.7151 14.7385 29.4486 18.8576C29.3875 19.7605 29.067 20.8071 28.4872 21.9976C27.9073 23.1881 26.8433 23.7931 25.295 23.8126C23.7363 23.8124 22.6466 23.1666 22.0259 21.8752C21.4052 20.5838 21.0744 19.4916 21.0336 18.5985ZM26.3025 21.6448C26.5337 21.0077 26.6406 20.3368 26.618 19.6643L26.6172 17.2445C26.6355 16.4914 26.5265 15.7404 26.2942 15.0193C26.0786 14.4094 25.7299 14.1045 25.2481 14.1045C24.3557 14.1047 23.9095 15.2666 23.9095 17.5903V19.6941C23.9399 20.2527 24.0408 20.806 24.2103 21.3424C24.4103 22.0577 24.7769 22.4154 25.3103 22.4154C25.7615 22.4154 26.0922 22.1585 26.3025 21.6448Z" fill="#FFF0DD"/>
<path d="M35.3406 19.405L34.1715 21.0615V21.3343C34.1623 21.5412 34.2207 21.7458 34.3389 21.9208C34.4571 22.0958 34.6294 22.2329 34.833 22.3138C34.9187 22.3492 34.991 22.4081 35.0404 22.4826C35.0898 22.5571 35.114 22.6439 35.1099 22.7315V23.2644C35.1098 23.4468 34.9969 23.538 34.7714 23.538H30.5256C30.2999 23.5381 30.187 23.4469 30.187 23.2644V22.7329C30.1866 22.6441 30.2141 22.5571 30.266 22.4828C30.318 22.4085 30.3922 22.3502 30.4793 22.3151C30.6827 22.2234 30.8526 22.0773 30.9676 21.8953C31.0826 21.7134 31.1375 21.5036 31.1255 21.2925V3.37467C31.1254 2.84656 30.9049 2.4817 30.464 2.28008C30.3831 2.25073 30.3135 2.19934 30.2641 2.13257C30.2148 2.06579 30.1879 1.98669 30.187 1.90549V1.37261C30.187 1.19976 30.2999 1.11333 30.5256 1.11333L34.1715 0.998779V19.175L36.479 15.6317C36.7255 15.2938 36.8739 14.9017 36.9097 14.4938C36.9096 14.1962 36.7096 13.985 36.3098 13.8601C36.0636 13.7835 35.9405 13.6635 35.9405 13.5001V12.823C35.9357 12.7847 35.9405 12.7459 35.9545 12.7097C35.9685 12.6734 35.9914 12.6407 36.0212 12.6141C36.0511 12.5876 36.0872 12.5679 36.1266 12.5567C36.166 12.5455 36.2076 12.543 36.2482 12.5494H40.1093C40.3759 12.5496 40.5092 12.66 40.5092 12.8807V13.5432C40.509 13.7162 40.3449 13.8458 40.0169 13.9321C39.3597 14.0784 38.7873 14.4546 38.4169 14.9836L37.2018 16.6828L39.8015 21.1478C40.0274 21.7528 40.2992 22.1561 40.6172 22.3577C40.6736 22.3863 40.7214 22.4276 40.7563 22.478C40.7913 22.5283 40.8122 22.586 40.8173 22.6458V23.1932C40.8253 23.239 40.8218 23.286 40.8071 23.3303C40.7924 23.3746 40.7669 23.4152 40.7326 23.4487C40.6982 23.4822 40.6561 23.5078 40.6094 23.5234C40.5627 23.5391 40.5127 23.5443 40.4635 23.5388H36.479C36.4298 23.5444 36.3798 23.5391 36.3331 23.5235C36.2864 23.5079 36.2442 23.4823 36.2099 23.4488C36.1755 23.4153 36.15 23.3747 36.1353 23.3303C36.1206 23.286 36.1172 23.239 36.1252 23.1932V22.7178C36.1329 22.6068 36.1708 22.4995 36.2354 22.4062C36.3001 22.3129 36.3892 22.2367 36.4943 22.1849C36.7507 22.0217 36.8789 21.8489 36.8789 21.6663C36.8766 21.4901 36.8455 21.3152 36.7868 21.1478L35.3406 19.405Z" fill="#FFF0DD"/>
<path fill-rule="evenodd" clip-rule="evenodd" d="M46.0479 21.868C46.8271 21.8681 47.3655 21.5512 47.6631 20.9173L49.3092 20.8881C49.0733 22.8566 47.8477 23.8408 45.6325 23.8408C44.1657 23.8408 43.0786 23.2599 42.371 22.098C41.6633 20.9362 41.3198 20.2065 41.3403 19.9089C41.0122 17.5657 41.2557 15.7508 42.071 14.4642C42.8863 13.1776 43.9811 12.5344 45.3555 12.5344C46.576 12.5344 47.5605 13.0338 48.3092 14.0325C49.0578 15.0313 49.4321 16.3997 49.4321 18.1375V18.9153C49.4384 18.9634 49.4326 19.0121 49.4152 19.0578C49.3979 19.1034 49.3694 19.1446 49.3321 19.1781C49.2948 19.2117 49.2497 19.2366 49.2003 19.251C49.1509 19.2654 49.0986 19.2689 49.0476 19.2611H43.9401V19.5778C43.8582 19.4338 43.894 19.7796 44.0478 20.6149C44.2016 21.4503 44.8682 21.868 46.0479 21.868ZM44.2478 16.4102V17.2445L46.4785 17.2455V15.8339C46.4785 14.7393 46.099 14.192 45.3401 14.192C44.6119 14.192 44.2478 14.9314 44.2478 16.4102Z" fill="#FFF0DD"/>
<path d="M50.4278 22.4172C50.4622 22.375 50.5057 22.3401 50.5553 22.3145C50.7208 22.1942 50.8532 22.0391 50.9415 21.8612C51.0297 21.6833 51.0714 21.4883 51.0629 21.2923V14.9259C51.0628 14.3978 50.8423 14.0329 50.4014 13.8313C50.3205 13.802 50.2509 13.7506 50.2016 13.6839C50.1522 13.6172 50.1253 13.5381 50.1245 13.4569V12.9238C50.1245 12.7511 50.2373 12.6599 50.463 12.6502L54.1089 12.5494V13.7305C54.9806 12.8567 55.9344 12.4198 56.9703 12.4198C57.3219 12.4074 57.6713 12.4773 57.9868 12.623C58.3023 12.7688 58.5741 12.9859 58.7775 13.2547C59.2133 13.8118 59.4312 14.5368 59.4312 15.4297V21.4649C59.4507 21.8081 59.5977 22.1342 59.8466 22.3867C59.9416 22.4743 60.0106 22.5835 60.0467 22.7037V23.3085C60.0523 23.3387 60.0504 23.3697 60.041 23.3991C60.0316 23.4284 60.0151 23.4553 59.9927 23.4777C59.9703 23.5 59.9427 23.5172 59.912 23.5279C59.8813 23.5385 59.8484 23.5423 59.8158 23.539H56.0622C56.0279 23.5446 55.9927 23.5426 55.9593 23.5332C55.9259 23.5239 55.8953 23.5073 55.87 23.485C55.8446 23.4626 55.8251 23.435 55.8131 23.4044C55.8011 23.3738 55.7969 23.3409 55.8008 23.3085V22.5595C55.8076 22.5113 55.8265 22.4654 55.8559 22.4253C55.8852 22.3853 55.9243 22.3523 55.9699 22.3291C56.0955 22.2488 56.1988 22.1416 56.2711 22.0163C56.3434 21.891 56.3825 21.7513 56.3853 21.6089V15.4299C56.3853 14.729 56.1186 14.3785 55.5853 14.3785C55.0723 14.3786 54.5801 14.6667 54.1085 15.2426V21.4649C54.1039 21.7805 54.2308 22.0853 54.4623 22.3147C54.543 22.3791 54.6018 22.4642 54.6315 22.5595V23.3518C54.6345 23.3784 54.6309 23.4052 54.6209 23.4302C54.6109 23.4552 54.5948 23.4777 54.5739 23.4958C54.553 23.514 54.5278 23.5274 54.5005 23.5348C54.4731 23.5423 54.4442 23.5437 54.4162 23.539H50.6014C50.5692 23.5443 50.5361 23.5425 50.5047 23.5337C50.4734 23.525 50.4446 23.5095 50.4207 23.4886C50.3968 23.4676 50.3785 23.4418 50.3671 23.413C50.3558 23.3843 50.3517 23.3535 50.3553 23.323V22.5593C50.3686 22.5077 50.3933 22.4593 50.4278 22.4172Z" fill="#FFF0DD"/>
<path fill-rule="evenodd" clip-rule="evenodd" d="M10.9241 14.4515C10.9408 15.4826 10.6551 16.4982 10.098 17.3878C9.54728 18.2556 8.59591 18.9282 7.24392 19.4055C9.95702 20.2103 11.3136 21.82 11.3136 24.2344C11.3155 24.343 11.3139 24.4514 11.3088 24.5595L11.3482 24.5593C13.0048 24.5593 14.3188 25.3998 15.2902 27.0807C16.2617 28.7616 16.7475 31.2913 16.7475 34.6698C16.7472 38.0315 16.2659 40.5549 15.3037 42.24C14.3416 43.925 13.0678 44.7675 11.4824 44.7675C9.61095 44.7674 8.21633 43.8872 7.29855 42.1268C6.38077 40.3665 5.92188 37.9311 5.92188 34.8207C5.92197 32.6729 6.13149 30.8351 6.55046 29.3071C6.15909 29.3683 5.76223 29.4004 5.36355 29.4028H1.24006C1.20618 29.4064 1.17186 29.4026 1.13982 29.3917C1.10777 29.3808 1.07887 29.3631 1.05541 29.3399C1.03195 29.3167 1.01457 29.2888 1.00464 29.2582C0.994713 29.2277 0.99251 29.1954 0.998206 29.1639V28.5476C1.00908 28.4437 1.04647 28.3438 1.10722 28.2562C1.16798 28.1687 1.25033 28.0961 1.34732 28.0445C1.51715 27.9368 1.65454 27.7901 1.74629 27.6183C1.83803 27.4465 1.88105 27.2556 1.87119 27.0637V12.0245C1.88514 11.8321 1.84393 11.6398 1.75183 11.4673C1.65972 11.2949 1.52007 11.1486 1.34732 11.0437C1.24604 10.9972 1.1601 10.9258 1.09863 10.8372C1.03717 10.7487 1.00246 10.6462 0.998206 10.5406V9.96229C0.998206 9.78626 1.11016 9.69824 1.33406 9.69824H5.61866C7.21237 9.69824 8.49504 10.1404 9.46666 11.0248C10.4383 11.9092 10.9241 13.0514 10.9241 14.4515ZM10.5144 27.0387C10.3194 27.3426 10.0868 27.6212 9.82294 27.8694C9.69799 28.5288 9.5867 29.6302 9.48908 31.1738C9.37719 32.9428 9.32125 34.8207 9.32125 36.8074C9.32125 39.1801 9.4869 40.8736 9.8182 41.8878C10.1491 42.9022 10.655 43.4092 11.336 43.4087C11.7388 43.4088 12.1082 43.1657 12.4441 42.6794C12.7798 42.193 13.0192 40.86 13.1625 38.6804C13.3058 36.5008 13.3775 34.4594 13.3775 32.5563C13.4015 31.1981 13.2936 29.8407 13.0551 28.5008C12.84 27.4405 12.6072 26.7573 12.3568 26.451C12.2472 26.3071 12.1019 26.1902 11.9335 26.1104C11.765 26.0306 11.5784 25.9903 11.3896 25.9928C11.2588 25.9935 11.1291 26.0131 11.005 26.0509C10.8788 26.3936 10.7147 26.7247 10.5144 27.0387ZM7.44539 12.6597C7.18573 12.0771 6.86782 11.6956 6.49165 11.5153C6.01513 11.3159 5.4955 11.2233 4.97406 11.2449V18.6893C6.88127 18.6893 7.83488 17.4738 7.83488 15.0426C7.83488 14.0366 7.70505 13.2423 7.44539 12.6597ZM8.13036 24.1596C8.13036 22.8181 7.88634 21.8142 7.39828 21.1479C6.91023 20.4814 6.10216 20.144 4.97406 20.1356V27.9195C5.59468 27.9235 6.20805 27.7945 6.76715 27.5422C7.24243 27.2801 7.60201 26.8676 7.78104 26.3791C8.01392 25.83 8.13036 25.0901 8.13036 24.1596Z" fill="#FFF0DD"/>
<path d="M19.2541 31.7011L21.9923 31.658H21.9934V34.5677C22.6701 32.5031 23.6188 31.4709 24.8395 31.4709C25.0591 31.4612 25.2781 31.4991 25.4795 31.5815C25.6809 31.664 25.8593 31.7888 26.0008 31.9463C26.282 32.2607 26.4323 32.6597 26.424 33.0697C26.4356 33.4699 26.2938 33.8608 26.0241 34.1715C25.8991 34.3178 25.7396 34.4349 25.5581 34.5137C25.3765 34.5924 25.1779 34.6305 24.978 34.6251C24.5059 34.6258 24.0752 34.4097 23.6857 33.977C22.9472 35.0811 22.578 36.4495 22.578 38.0819V40.0988C22.582 40.3209 22.6362 40.5397 22.7369 40.7408C22.8377 40.9419 22.9828 41.1207 23.1626 41.2656C23.2797 41.3366 23.3668 41.4435 23.4088 41.568V42.2882C23.4149 42.3153 23.4142 42.3433 23.4068 42.3702C23.3994 42.397 23.3855 42.4218 23.3661 42.4427C23.3467 42.4637 23.3224 42.4801 23.2951 42.4908C23.2678 42.5015 23.2383 42.5061 23.2087 42.5043H19.0079C18.9853 42.5092 18.9617 42.5091 18.9391 42.504C18.9164 42.499 18.8953 42.4891 18.8775 42.4751C18.8596 42.4611 18.8454 42.4435 18.836 42.4236C18.8267 42.4036 18.8223 42.3819 18.8234 42.3601V41.4672C18.8319 41.4151 18.857 41.3666 18.8954 41.328C18.9339 41.2894 18.9838 41.2626 19.0387 41.2511C19.2008 41.178 19.335 41.0601 19.4231 40.9132C19.5111 40.7663 19.5488 40.5977 19.531 40.4301V34.28C19.54 34.0499 19.4996 33.8205 19.4124 33.6053C19.3252 33.39 19.1929 33.1933 19.0232 33.0267C18.9205 32.9451 18.8501 32.8336 18.8234 32.71V32.0035C18.8231 31.8117 18.9667 31.7109 19.2541 31.7011Z" fill="#FFF0DD"/>
<path fill-rule="evenodd" clip-rule="evenodd" d="M28.1228 33.2784C28.7946 32.3805 29.8227 31.9316 31.2074 31.9316L31.2065 31.9306C31.9793 31.918 32.7389 32.1184 33.3909 32.5068C34.16 31.8346 34.8267 31.4985 35.391 31.4985C35.6807 31.5106 35.9574 31.6147 36.1755 31.7937C36.3029 31.8831 36.4056 31.9996 36.4752 32.1336C36.5447 32.2677 36.5791 32.4153 36.5754 32.5643C36.5753 33.1308 36.2727 33.4141 35.6677 33.4141C35.4869 33.384 35.3143 33.3204 35.1602 33.227C35.0336 33.153 34.8923 33.104 34.7448 33.0829C34.5283 33.0931 34.3152 33.1369 34.1141 33.2125C34.8848 34.1494 35.3015 35.2995 35.2986 36.4821C35.2992 38.076 34.9505 39.3146 34.2525 40.1981C33.5546 41.0816 32.5802 41.5233 31.3295 41.5233C30.9218 41.5164 30.5154 41.4781 30.1143 41.4088L29.3296 42.6906H30.7451C34.2628 42.6906 36.0217 43.5405 36.0217 45.2401C36.0221 46.4116 35.5531 47.331 34.6147 47.9984C33.6762 48.6657 32.4481 48.9994 30.9302 48.9994C29.72 48.9995 28.7688 48.8027 28.0765 48.4089C27.3843 48.0151 27.0382 47.4821 27.0382 46.8101C27.0313 46.6312 27.0641 46.453 27.1346 46.2866C27.205 46.1202 27.3116 45.9693 27.4474 45.8434C27.5833 45.7175 27.7456 45.6194 27.9241 45.5552C28.1025 45.491 28.2932 45.4622 28.4842 45.4705C28.8523 45.4599 29.2115 45.578 29.4918 45.8018C29.6224 45.9035 29.7268 46.0314 29.7974 46.176C29.868 46.3206 29.903 46.4783 29.8996 46.6373C29.8873 46.8804 29.8135 47.1174 29.6843 47.3286C30.1587 47.5455 30.6794 47.6588 31.2074 47.6599C31.8207 47.6752 32.4227 47.5033 32.9225 47.1702C33.1396 47.0398 33.3186 46.861 33.4435 46.6498C33.5684 46.4386 33.6352 46.2017 33.6379 45.9603C33.6378 44.9233 32.4174 44.4048 29.9767 44.4048C29.4843 44.4047 28.8894 44.419 28.1922 44.4479C27.833 44.4672 27.5663 44.4768 27.3922 44.4768C27.064 44.4766 26.8999 44.3854 26.8999 44.203C26.9361 43.9391 27.0139 43.6818 27.1306 43.4393L28.8382 40.8618C27.6896 39.9303 27.1153 38.5379 27.1153 36.6847C27.1153 35.3117 27.4511 34.1762 28.1228 33.2784ZM30.0844 37.376C30.0844 38.4514 30.1664 39.198 30.3305 39.6158C30.4944 40.0335 30.7812 40.2423 31.1919 40.2422C31.6227 40.2422 31.9201 40.0165 32.0842 39.5652C32.2483 39.1138 32.3304 38.1968 32.3304 36.8141C32.3304 35.3451 32.2483 34.3778 32.0842 33.912C31.9201 33.4463 31.6432 33.2134 31.2534 33.2134C30.7405 33.2136 30.4174 33.5593 30.2842 34.2506C30.1264 35.2855 30.0596 36.3308 30.0844 37.376Z" fill="#FFF0DD"/>
<path fill-rule="evenodd" clip-rule="evenodd" d="M37.8224 41.7906C37.2583 41.114 36.9763 40.2474 36.9763 39.191C36.9762 38.4996 38.6483 37.4865 41.9918 36.1518V34.7109C41.9918 33.6164 41.448 33.117 40.3604 33.2129C40.1655 33.2785 39.9873 33.3815 39.8373 33.5153C39.8306 33.6323 39.8101 33.7483 39.7761 33.8611C39.7971 34.0525 39.8074 34.2448 39.8069 34.4373C39.8071 34.706 39.6532 34.9916 39.3455 35.2942C39.0377 35.5967 38.7607 35.748 38.5147 35.748C38.2898 35.7556 38.0661 35.7149 37.8607 35.6288C37.6553 35.5427 37.4738 35.4137 37.3301 35.2516C37.0322 34.9193 36.8736 34.4969 36.8839 34.0633C36.8838 33.3048 37.2966 32.6878 38.1223 32.2124C38.9225 31.744 39.8478 31.4968 40.7915 31.4995C42.135 31.4992 43.1786 31.8377 43.9221 32.5148C44.6656 33.192 45.0373 34.1979 45.0373 35.5324V39.6811C45.0232 39.986 45.0675 40.2908 45.1682 40.5811C45.219 40.6886 45.299 40.7818 45.4002 40.8513C45.5014 40.9208 45.6204 40.9642 45.7451 40.9773C45.8465 40.9827 45.9416 41.0248 46.0105 41.0947C46.0793 41.1645 46.1165 41.2567 46.1142 41.3517V41.971C46.114 42.4802 45.6935 42.7347 44.8528 42.7347C43.7248 42.7347 42.9454 42.2256 42.5144 41.2073C41.5299 42.2732 40.5812 42.8062 39.6685 42.8062C39.0018 42.8058 38.3864 42.4673 37.8224 41.7906ZM41.869 39.8031C41.9428 39.3525 41.9837 38.8977 41.9913 38.442L41.992 37.621C40.5459 38.3125 39.7203 38.8358 39.5151 39.191C39.3098 40.1416 39.7867 40.6649 40.9458 40.7608C41.4797 40.6649 41.7874 40.3457 41.869 39.8031Z" fill="#FFF0DD"/>
<path d="M47.0789 41.3821C47.1133 41.3399 47.1568 41.3049 47.2064 41.2793C47.3719 41.1591 47.5044 41.0035 47.5927 40.8256C47.681 40.6478 47.7227 40.4527 47.7142 40.2567V33.8912C47.7141 33.3633 47.4936 32.9983 47.0527 32.7965C46.9718 32.7672 46.9021 32.7158 46.8528 32.6491C46.8034 32.5823 46.7766 32.5032 46.7757 32.4221V31.8892C46.7757 31.7163 46.8886 31.6251 47.1143 31.6154L50.7602 31.5146V32.6957C51.6319 31.8218 52.5857 31.3849 53.6216 31.3849C53.9733 31.3726 54.3228 31.4425 54.6384 31.5884C54.954 31.7342 55.2258 31.9515 55.4292 32.2204C55.865 32.7773 56.0829 33.5023 56.0829 34.3953V40.4295C56.1024 40.7727 56.2493 41.0988 56.4983 41.3513C56.5933 41.4389 56.6622 41.5481 56.6984 41.6682V42.2733C56.704 42.3035 56.7021 42.3345 56.6927 42.3638C56.6833 42.3932 56.6668 42.4201 56.6444 42.4425C56.622 42.4648 56.5944 42.482 56.5637 42.4926C56.533 42.5033 56.5001 42.5071 56.4675 42.5037H52.7139C52.6796 42.5093 52.6444 42.5074 52.611 42.498C52.5776 42.4886 52.547 42.4721 52.5217 42.4497C52.4963 42.4274 52.4768 42.3998 52.4648 42.3692C52.4528 42.3385 52.4486 42.3057 52.4525 42.2733V41.5243C52.4593 41.4761 52.4782 41.4301 52.5076 41.3901C52.5369 41.35 52.576 41.3171 52.6216 41.2938C52.7472 41.2136 52.8505 41.1063 52.9228 40.981C52.9951 40.8557 53.0342 40.716 53.037 40.5737V34.3945C53.037 33.6936 52.7703 33.3431 52.237 33.3431C51.724 33.3431 51.2318 33.6312 50.7602 34.2074V40.4299C50.7555 40.7455 50.8824 41.0503 51.114 41.2797C51.1947 41.3442 51.2535 41.4293 51.2832 41.5247V42.3168C51.2863 42.3434 51.2826 42.3702 51.2726 42.3952C51.2626 42.4203 51.2466 42.4428 51.2257 42.4609C51.2048 42.4791 51.1796 42.4925 51.1522 42.5C51.1248 42.5075 51.096 42.5089 51.0679 42.5041H47.2527C47.2205 42.5094 47.1874 42.5076 47.156 42.4988C47.1246 42.49 47.0959 42.4745 47.072 42.4536C47.0481 42.4326 47.0298 42.4067 47.0184 42.378C47.0071 42.3493 47.003 42.3184 47.0066 42.288V41.5243C47.0199 41.4727 47.0445 41.4243 47.0789 41.3821Z" fill="#FFF0DD"/>
<path d="M58.906 32.709C59.3042 32.3709 59.7658 32.1047 60.2674 31.9239C60.7718 31.7381 61.3084 31.6431 61.8505 31.6431C62.3195 31.6386 62.7865 31.7017 63.2351 31.8304C63.6299 31.9428 63.9999 32.1209 64.3273 32.3562C64.6244 32.5704 64.8707 32.8401 65.0504 33.1483C65.2249 33.4513 65.3148 33.7906 65.3118 34.1349C65.3188 34.5313 65.1585 34.9143 64.8658 35.2008C64.7137 35.3499 64.5294 35.4669 64.3251 35.5438C64.1208 35.6208 63.9013 35.6561 63.6813 35.6472C63.4908 35.6479 63.3014 35.6213 63.1197 35.5681C62.9446 35.5177 62.7824 35.4343 62.6429 35.3232C62.505 35.2136 62.3924 35.0788 62.3121 34.927C62.2273 34.7608 62.1853 34.5783 62.1898 34.3941C62.1921 34.3232 62.2051 34.2529 62.2283 34.1853L62.3046 33.9409C62.3301 33.8592 62.3558 33.7823 62.3815 33.7104C62.4029 33.6573 62.4159 33.6014 62.42 33.5447C62.42 33.2087 62.1481 33.0407 61.6043 33.0407C61.412 33.0403 61.2214 33.0745 61.0429 33.1415C60.864 33.2083 60.7017 33.3088 60.5659 33.4368C60.4228 33.5729 60.3104 33.7345 60.2352 33.912C60.1509 34.1114 60.1093 34.3243 60.1128 34.5387C60.11 34.7382 60.1574 34.9355 60.2513 35.1147C60.3537 35.3001 60.4889 35.468 60.6512 35.6111C60.8881 35.8105 61.1519 35.98 61.4359 36.1151C61.7844 36.293 62.1588 36.4874 62.5589 36.6986C63.1294 36.9274 63.6668 37.2225 64.1586 37.5769C64.44 37.7816 64.7048 38.0055 64.9511 38.2466C65.0893 38.3958 65.1842 38.504 65.2355 38.5712C65.3254 38.7089 65.4026 38.8534 65.4664 39.0033C65.5689 39.6564 65.4996 40.1893 65.2586 40.6021C65.0032 41.0318 64.67 41.4168 64.2741 41.7398C63.8517 42.0895 63.3605 42.3586 62.828 42.5322C62.2722 42.7156 61.6867 42.8081 61.0974 42.8058C60.5559 42.8114 60.0166 42.741 59.4974 42.5969C59.0515 42.4748 58.6322 42.2797 58.259 42.0207C57.9258 41.7874 57.6525 41.4873 57.459 41.1424C57.3092 40.9301 57.215 40.6877 57.1843 40.4348C57.1536 40.182 57.1871 39.9259 57.2822 39.6876C57.3507 39.4958 57.4607 39.3193 57.6052 39.169C57.7513 39.0185 57.9295 38.8983 58.1283 38.8162C58.3568 38.7255 58.6033 38.6813 58.8514 38.6865C59.8359 38.6867 60.3282 39.1236 60.3282 39.9972C60.3254 40.0772 60.3151 40.1567 60.2974 40.235C60.2948 40.2946 60.2736 40.3521 60.2362 40.4005C60.2003 40.4414 60.179 40.4918 60.175 40.5446C60.1595 40.601 60.1493 40.6585 60.1444 40.7165C60.1443 41.1874 60.5032 41.4229 61.2211 41.4229C61.4977 41.4228 61.6744 41.3796 61.7513 41.2933C61.8283 41.207 61.9257 41.0893 62.0436 40.9402C62.1386 40.8273 62.2187 40.704 62.2822 40.5731C62.3304 40.4287 62.3511 40.2776 62.3433 40.1265C62.3565 39.9557 62.322 39.7846 62.2432 39.6301C62.1763 39.5294 62.1071 39.4238 62.0356 39.3134C61.9492 39.1881 61.8398 39.0782 61.7124 38.9888C61.5692 38.8833 61.2158 38.6673 60.652 38.3408C60.2102 38.0067 59.7304 37.7193 59.2213 37.4837C58.8902 37.3522 58.5897 37.1614 58.3367 36.922C58.0752 36.6771 57.8881 36.4899 57.7753 36.3603C57.6624 36.2307 57.606 35.9403 57.606 35.4889C57.5981 34.9475 57.7189 34.4112 57.9598 33.9189C58.1861 33.4607 58.5078 33.0493 58.906 32.709Z" fill="#FFF0DD"/>
<path d="M18.7095 26.944L42.0299 26.1353L42.6776 28.157L18.7095 28.9657V26.944Z" fill="#FFF0DD"/>
<path d="M65.9973 27.5502L44.1885 26.9438L44.6204 28.9656L65.5656 29.572L65.9973 27.5502Z" fill="#FFF0DD"/>
</svg>
