<svg width="157" height="116" viewBox="0 0 157 116" fill="none" xmlns="http://www.w3.org/2000/svg">
<path d="M30.8792 29.1181L37.451 29.0143L37.4515 35.9873C39.0757 31.0413 41.3526 28.5683 44.2822 28.5683C44.8095 28.5449 45.3356 28.6354 45.8194 28.8329C46.3032 29.0303 46.7318 29.3294 47.0718 29.7068C47.7463 30.4603 48.1067 31.4161 48.0869 32.3983C48.1148 33.3573 47.7744 34.294 47.1272 35.0386C46.8273 35.3891 46.4444 35.6697 46.0087 35.8583C45.573 36.0469 45.0964 36.1383 44.6165 36.1254C43.4843 36.1236 42.4505 35.6052 41.5151 34.5702C39.7427 37.2159 38.8566 40.4942 38.8566 44.4049V49.238C38.8662 49.7701 38.9962 50.2942 39.238 50.7759C39.4798 51.2576 39.828 51.686 40.2597 52.0329C40.5409 52.203 40.7497 52.4594 40.8504 52.7579V54.4834C40.865 54.5483 40.8633 54.6154 40.8455 54.6796C40.8277 54.7438 40.7942 54.8033 40.7477 54.8534C40.7012 54.9035 40.643 54.9428 40.5775 54.9684C40.512 54.9939 40.4411 55.005 40.3703 55.0007H30.2885C30.2341 55.0123 30.1776 55.012 30.1233 54.9998C30.0691 54.9877 30.0186 54.964 29.9757 54.9306C29.9329 54.8973 29.8988 54.8551 29.8763 54.8074C29.8537 54.7598 29.8432 54.7079 29.8455 54.6558V52.5164C29.866 52.3915 29.9262 52.2753 30.0184 52.1829C30.1106 52.0906 30.2305 52.0263 30.3624 51.9986C30.7514 51.8236 31.0734 51.541 31.2847 51.1892C31.4961 50.8373 31.5865 50.4332 31.5438 50.0317V35.2966C31.5653 34.7455 31.4686 34.196 31.2594 33.6804C31.0501 33.1649 30.7327 32.6936 30.3257 32.2945C30.0788 32.099 29.9097 31.8315 29.8455 31.5351V29.8427C29.8455 29.3825 30.1901 29.141 30.8792 29.1181Z" fill="#341B1B"/>
<path fill-rule="evenodd" clip-rule="evenodd" d="M49.0814 43.1629C48.8595 38.9067 49.6471 35.4789 51.4443 32.8795C53.2414 30.2798 55.6167 28.9799 58.5701 28.9799C66.3478 28.9803 69.9169 33.9148 69.2774 43.7837C69.1306 45.9467 68.3614 48.4543 66.9699 51.3065C65.5783 54.1587 63.0246 55.6082 59.3086 55.6548C55.5679 55.6545 52.9526 54.1073 51.4629 51.0133C49.9731 47.9193 49.1793 45.3025 49.0814 43.1629ZM61.7268 50.4612C62.2816 48.9348 62.5381 47.3276 62.4839 45.7163H62.482V39.9189C62.5258 38.1147 62.2642 36.3154 61.7067 34.5876C61.1893 33.1265 60.3524 32.396 59.196 32.396C57.0544 32.3963 55.9835 35.1801 55.9835 40.7473V45.7877C56.0564 47.126 56.2987 48.4516 56.7054 49.7366C57.1854 51.4505 58.0653 52.3074 59.3453 52.3074C60.4282 52.3074 61.222 51.692 61.7268 50.4612Z" fill="#341B1B"/>
<path d="M83.418 45.0951L80.6122 49.0638V49.7174C80.5901 50.213 80.7303 50.7032 81.0139 51.1225C81.2976 51.5417 81.7113 51.8702 82.1999 52.064C82.4055 52.149 82.579 52.2899 82.6976 52.4685C82.8161 52.6471 82.8743 52.8549 82.8645 53.0649V54.3416C82.8642 54.7785 82.5933 54.997 82.0521 54.997H71.862C71.3204 54.9973 71.0496 54.7789 71.0496 54.3416V53.0681C71.0485 52.8553 71.1145 52.647 71.2392 52.469C71.3639 52.2911 71.5418 52.1513 71.7509 52.0672C72.2392 51.8474 72.647 51.4975 72.9229 51.0615C73.1989 50.6256 73.3307 50.1231 73.3019 49.6172V6.68905C73.3015 5.42381 72.7723 4.54966 71.7142 4.06662C71.5201 3.99629 71.353 3.87318 71.2346 3.7132C71.1161 3.55321 71.0517 3.36371 71.0496 3.16915V1.89247C71.0496 1.47834 71.3204 1.27128 71.862 1.27128L80.6122 0.996826V44.5439L86.1504 36.055C86.7419 35.2453 87.098 34.3058 87.184 33.3287C87.1837 32.6157 86.7037 32.1097 85.7442 31.8105C85.1533 31.6269 84.8578 31.3394 84.8578 30.9478V29.3258C84.8463 29.234 84.8579 29.141 84.8915 29.0541C84.9251 28.9673 84.98 28.8889 85.0516 28.8253C85.1233 28.7617 85.2099 28.7146 85.3044 28.6876C85.399 28.6607 85.4989 28.6548 85.5964 28.6703H94.8629C95.5027 28.6706 95.8226 28.9351 95.8226 29.4639V31.0512C95.8223 31.4656 95.4285 31.7762 94.6412 31.983C93.064 32.3335 91.6901 33.2348 90.8013 34.502L87.8849 38.5731L94.1244 49.2705C94.6663 50.7199 95.3189 51.6862 96.082 52.1692C96.2173 52.2378 96.332 52.3368 96.4158 52.4574C96.4997 52.5779 96.55 52.7161 96.5621 52.8595V54.1709C96.5814 54.2807 96.573 54.3932 96.5377 54.4994C96.5024 54.6057 96.4412 54.7028 96.3588 54.7831C96.2764 54.8634 96.1752 54.9247 96.0631 54.9622C95.951 54.9996 95.8312 55.0122 95.713 54.9989H86.1504C86.0322 55.0123 85.9123 54.9998 85.8001 54.9624C85.688 54.925 85.5867 54.8637 85.5043 54.7833C85.422 54.703 85.3607 54.6058 85.3255 54.4995C85.2902 54.3932 85.2819 54.2807 85.3013 54.1709V53.0319C85.3195 52.766 85.4106 52.509 85.5657 52.2854C85.7208 52.0619 85.9348 51.8793 86.1871 51.7553C86.8024 51.3643 87.1101 50.9502 87.1101 50.5129C87.1046 50.0906 87.03 49.6717 86.8889 49.2705L83.418 45.0951Z" fill="#341B1B"/>
<path fill-rule="evenodd" clip-rule="evenodd" d="M109.116 50.9959C110.986 50.9962 112.278 50.2371 112.992 48.7184L116.943 48.6484C116.377 53.3645 113.435 55.7225 108.119 55.7225C104.598 55.7225 101.989 54.3307 100.291 51.5471C98.5927 48.7635 97.7682 47.0152 97.8175 46.3023C97.0298 40.6884 97.6144 36.3403 99.571 33.2578C101.528 30.1754 104.155 28.6341 107.454 28.6341C110.383 28.6341 112.746 29.8306 114.543 32.2236C116.339 34.6165 117.238 37.8948 117.238 42.0583V43.9218C117.253 44.037 117.239 44.1538 117.197 44.2631C117.156 44.3724 117.087 44.4712 116.998 44.5515C116.908 44.6319 116.8 44.6917 116.681 44.7261C116.563 44.7606 116.437 44.7689 116.315 44.7502H104.057V45.5091C103.86 45.1642 103.946 45.9924 104.315 47.9938C104.684 49.9952 106.284 50.9959 109.116 50.9959ZM104.796 37.9199V39.9212H110.149V36.5394C110.149 33.9168 109.238 32.6055 107.417 32.6055C105.669 32.6055 104.796 34.377 104.796 37.9199Z" fill="#341B1B"/>
<path d="M119.627 52.3118C119.71 52.2108 119.814 52.127 119.933 52.0658C120.331 51.7776 120.648 51.4059 120.86 50.9797C121.072 50.5536 121.172 50.0863 121.152 49.6168V34.3639C121.151 33.0986 120.622 32.2245 119.564 31.7414C119.37 31.6712 119.203 31.5482 119.084 31.3883C118.966 31.2283 118.901 31.0389 118.899 30.8444V29.5673C118.899 29.1535 119.17 28.935 119.712 28.9118L128.462 28.6703V31.4999C130.554 29.4064 132.843 28.3597 135.329 28.3597C136.173 28.33 137.012 28.4973 137.769 28.8466C138.526 29.1958 139.178 29.716 139.667 30.36C140.713 31.6948 141.236 33.4318 141.236 35.571V50.0303C141.282 50.8525 141.635 51.6337 142.233 52.2388C142.461 52.4485 142.626 52.7102 142.713 52.9981V54.4472C142.726 54.5195 142.722 54.5938 142.699 54.6642C142.677 54.7345 142.637 54.799 142.583 54.8526C142.529 54.9061 142.463 54.9473 142.389 54.9727C142.316 54.9982 142.237 55.0073 142.159 54.9993H133.15C133.068 55.0128 132.983 55.0081 132.903 54.9856C132.823 54.9632 132.749 54.9236 132.689 54.87C132.628 54.8164 132.581 54.7503 132.552 54.6769C132.523 54.6035 132.513 54.5249 132.523 54.4472V52.6527C132.539 52.5373 132.584 52.4272 132.655 52.3313C132.725 52.2353 132.819 52.1563 132.928 52.1006C133.23 51.9084 133.478 51.6514 133.651 51.3512C133.825 51.051 133.919 50.7163 133.925 50.3752V35.5715C133.925 33.8921 133.285 33.0524 132.005 33.0524C130.774 33.0527 129.593 33.7428 128.461 35.1227V50.0303C128.45 50.7864 128.755 51.5167 129.31 52.0663C129.504 52.2206 129.645 52.4244 129.716 52.6527V54.551C129.724 54.6147 129.715 54.6789 129.691 54.7388C129.667 54.7987 129.628 54.8525 129.578 54.896C129.528 54.9396 129.467 54.9715 129.402 54.9895C129.336 55.0074 129.267 55.0108 129.2 54.9993H120.044C119.967 55.0121 119.887 55.0078 119.812 54.9868C119.737 54.9659 119.668 54.9288 119.61 54.8786C119.553 54.8284 119.509 54.7665 119.482 54.6976C119.455 54.6288 119.445 54.555 119.453 54.482V52.6523C119.485 52.5287 119.545 52.4127 119.627 52.3118Z" fill="#341B1B"/>
<path fill-rule="evenodd" clip-rule="evenodd" d="M24.8188 33.2276C24.8589 35.6979 24.1732 38.1311 22.8362 40.2624C21.5144 42.3415 19.2312 43.9529 15.9864 45.0965C22.4978 47.0247 25.7536 50.8811 25.7536 56.6657C25.7582 56.9259 25.7544 57.1856 25.742 57.4446C25.7735 57.4443 25.8051 57.4442 25.8367 57.4442C29.8124 57.4442 32.966 59.4578 35.2975 63.485C37.6291 67.5122 38.7949 73.573 38.7949 81.6673C38.7942 89.7214 37.6392 95.767 35.3299 99.8043C33.0208 103.841 29.9638 105.86 26.1588 105.86C21.6673 105.859 18.3202 103.751 16.1175 99.533C13.9148 95.3156 12.8135 89.4808 12.8135 82.0287C12.8137 76.883 13.3166 72.4797 14.3221 68.819C13.3828 68.9656 12.4303 69.0426 11.4735 69.0482H1.57711C1.49581 69.057 1.41345 69.0479 1.33653 69.0218C1.25962 68.9957 1.19027 68.9531 1.13397 68.8976C1.07766 68.8421 1.03595 68.7751 1.01212 68.702C0.988288 68.6288 0.983001 68.5514 0.99667 68.476V66.9994C1.02276 66.7505 1.1125 66.511 1.25831 66.3013C1.40413 66.0915 1.60176 65.9176 1.83454 65.7941C2.24214 65.5361 2.57188 65.1844 2.79207 64.7729C3.01225 64.3614 3.11549 63.9039 3.09184 63.4443V27.4128C3.12532 26.9519 3.02641 26.4911 2.80536 26.0779C2.58431 25.6648 2.24914 25.3144 1.83454 25.063C1.59146 24.9515 1.38522 24.7806 1.2377 24.5683C1.09018 24.3561 1.00689 24.1105 0.99667 23.8576V22.4721C0.99667 22.0504 1.26535 21.8395 1.80273 21.8395H12.0858C15.9107 21.8395 18.9891 22.8989 21.321 25.0177C23.6528 27.1365 24.8188 29.8731 24.8188 33.2276ZM23.8356 63.3844C23.3676 64.1125 22.8094 64.7799 22.1761 65.3746C21.8762 66.9543 21.6091 69.5932 21.3748 73.2913C21.1062 77.5295 20.972 82.0287 20.972 86.7887C20.972 92.4733 21.3695 96.5305 22.1647 98.9603C22.9588 101.391 24.1731 102.605 25.8074 102.604C26.7741 102.604 27.6606 102.022 28.4668 100.857C29.2724 99.6916 29.8471 96.498 30.191 91.276C30.5349 86.054 30.7069 81.1632 30.7069 76.6036C30.7647 73.3496 30.5057 70.0975 29.9331 66.8873C29.4169 64.3471 28.8584 62.7101 28.2574 61.9764C27.9943 61.6316 27.6456 61.3516 27.2413 61.1604C26.837 60.9692 26.3891 60.8725 25.9361 60.8786C25.622 60.8801 25.3107 60.9273 25.013 61.0178C24.71 61.8387 24.3162 62.6321 23.8356 63.3844ZM16.4699 28.9346C15.8467 27.5389 15.0837 26.6249 14.1809 26.1928C13.0373 25.7151 11.7902 25.4933 10.5387 25.5451V43.3806C15.116 43.3806 17.4047 40.4684 17.4047 34.6438C17.4047 32.2334 17.0931 30.3304 16.4699 28.9346ZM18.1138 56.4864C18.1138 53.2725 17.5282 50.8673 16.3569 49.2709C15.1855 47.6742 13.2462 46.8658 10.5387 46.8456V65.4945C12.0282 65.5042 13.5003 65.195 14.8421 64.5906C15.9828 63.9626 16.8458 62.9743 17.2755 61.804C17.8344 60.4884 18.1138 58.7159 18.1138 56.4864Z" fill="#341B1B"/>
<path d="M44.8109 74.5548L51.3827 74.4514H51.3851V81.4226C53.0093 76.4763 55.2862 74.0031 58.2159 74.0031C58.7428 73.98 59.2684 74.0708 59.7518 74.2683C60.2352 74.4659 60.6634 74.7649 61.0031 75.1421C61.678 75.8954 62.0387 76.8513 62.0186 77.8336C62.0466 78.7925 61.7061 79.729 61.0589 80.4734C60.759 80.8239 60.3761 81.1046 59.9404 81.2932C59.5047 81.4818 59.0281 81.5732 58.5482 81.5603C57.4153 81.5618 56.3815 81.0442 55.4468 80.0073C53.6744 82.6528 52.7883 85.931 52.7883 89.842V94.6743C52.7979 95.2064 52.9279 95.7306 53.1697 96.2123C53.4116 96.6941 53.7598 97.1226 54.1914 97.4696C54.4724 97.6397 54.6813 97.8959 54.7822 98.1942V99.9196C54.7968 99.9845 54.7952 100.052 54.7774 100.116C54.7596 100.18 54.7262 100.24 54.6797 100.29C54.6332 100.34 54.5749 100.38 54.5094 100.405C54.4439 100.431 54.3729 100.442 54.302 100.437H44.2201C44.1657 100.449 44.1091 100.449 44.0548 100.437C44.0005 100.425 43.9499 100.401 43.907 100.367C43.8641 100.334 43.8301 100.292 43.8076 100.244C43.7851 100.196 43.7747 100.144 43.7772 100.092V97.9527C43.7977 97.8278 43.8579 97.7116 43.9501 97.6192C44.0423 97.5268 44.1622 97.4626 44.2941 97.4349C44.6831 97.2599 45.0051 96.9773 45.2164 96.6254C45.4278 96.2736 45.5182 95.8695 45.4755 95.4679V80.7333C45.497 80.1821 45.4002 79.6325 45.1909 79.1168C44.9816 78.6012 44.664 78.1299 44.2569 77.7307C44.0103 77.5353 43.8414 77.268 43.7772 76.9718V75.2794C43.7766 74.8198 44.1211 74.5783 44.8109 74.5548Z" fill="#341B1B"/>
<path fill-rule="evenodd" clip-rule="evenodd" d="M66.0959 78.3336C67.708 76.1825 70.1756 75.1069 73.4987 75.1069L73.4968 75.1046C75.3513 75.0745 77.1744 75.5546 78.7393 76.4851C80.5851 74.8747 82.1851 74.0695 83.5395 74.0695C84.2348 74.0985 84.8988 74.3479 85.4223 74.7766C85.728 74.9907 85.9746 75.2699 86.1415 75.591C86.3085 75.9121 86.3909 76.2659 86.382 76.6228C86.3817 77.9802 85.6556 78.6588 84.2036 78.6588C83.7697 78.5868 83.3555 78.4344 82.9855 78.2105C82.6817 78.0334 82.3425 77.9159 81.9886 77.8652C81.4691 77.8898 80.9575 77.9947 80.4748 78.1758C82.3246 80.4205 83.3246 83.1758 83.3178 86.0092C83.3191 89.8278 82.4822 92.7955 80.8071 94.9122C79.132 97.0288 76.7936 98.0872 73.7919 98.0872C72.8133 98.0705 71.8379 97.9787 70.8755 97.8127L68.9922 100.884H72.3892C80.8319 100.884 85.0533 102.92 85.0533 106.992C85.0542 109.799 83.9286 112.001 81.6763 113.6C79.424 115.199 76.4765 115.999 72.8336 115.999C69.9291 115.999 67.6462 115.527 65.9848 114.584C64.3234 113.64 63.4927 112.363 63.4927 110.753C63.4762 110.325 63.555 109.898 63.7241 109.499C63.8932 109.1 64.1488 108.739 64.475 108.437C64.8011 108.136 65.1906 107.901 65.6188 107.747C66.0471 107.593 66.5048 107.524 66.9631 107.544C67.8467 107.519 68.7087 107.802 69.3813 108.338C69.6947 108.581 69.9455 108.888 70.1149 109.234C70.2844 109.581 70.3682 109.958 70.3601 110.339C70.3305 110.922 70.1534 111.49 69.8433 111.996C70.9818 112.515 72.2317 112.787 73.4987 112.789C74.9707 112.826 76.4156 112.414 77.6152 111.616C78.1361 111.304 78.5657 110.875 78.8654 110.369C79.1651 109.863 79.3255 109.296 79.332 108.717C79.3317 106.233 76.4027 104.991 70.5451 104.991C69.3634 104.99 67.9358 105.025 66.2623 105.094C65.4003 105.14 64.7603 105.163 64.3423 105.163C63.5547 105.163 63.1609 104.944 63.1609 104.507C63.2478 103.875 63.4343 103.258 63.7144 102.677L67.8127 96.5022C65.0561 94.2705 63.6777 90.9347 63.6777 86.4946C63.6777 83.2051 64.4838 80.4847 66.0959 78.3336ZM70.8035 88.1509C70.8035 90.7274 71.0004 92.5161 71.3943 93.517H71.3928C71.7863 94.5178 72.4759 95.0181 73.4615 95.0178C74.4955 95.0178 75.2094 94.4771 75.6032 93.3958C75.997 92.3144 76.1939 90.1174 76.1939 86.8047C76.1939 83.2853 75.997 80.9676 75.6032 79.8518C75.2094 78.736 74.5448 78.1781 73.6093 78.1781C72.3783 78.1784 71.6029 79.0066 71.2832 80.6628C70.9045 83.1424 70.7441 85.6468 70.8035 88.1509Z" fill="#341B1B"/>
<path fill-rule="evenodd" clip-rule="evenodd" d="M89.3748 98.7276C88.021 97.1064 87.3442 95.0303 87.3442 92.4992C87.3439 90.8427 91.3569 88.4156 99.3813 85.2179V81.7657C99.3813 79.1434 98.0762 77.9471 95.466 78.1767C94.9982 78.334 94.5706 78.5807 94.2106 78.9013C94.1946 79.1816 94.1453 79.4594 94.0638 79.7297C94.1141 80.1883 94.1387 80.6491 94.1377 81.1102C94.138 81.7539 93.7689 82.4383 93.0302 83.1631C92.2915 83.888 91.6269 84.2504 91.0363 84.2504C90.4966 84.2688 89.9597 84.1711 89.4668 83.9649C88.9739 83.7587 88.5382 83.4495 88.1933 83.0611C87.4783 82.2651 87.0977 81.2531 87.1225 80.2141C87.1222 78.3969 88.1129 76.9188 90.0947 75.7798C92.015 74.6574 94.2357 74.0653 96.5006 74.0718C99.7252 74.0711 102.23 74.882 104.014 76.5043C105.798 78.1267 106.691 80.5366 106.691 83.734V93.6734C106.657 94.404 106.763 95.1343 107.005 95.8297C107.127 96.0873 107.319 96.3105 107.562 96.477C107.805 96.6436 108.09 96.7477 108.389 96.7789C108.633 96.792 108.861 96.8929 109.026 97.0602C109.191 97.2275 109.281 97.4483 109.275 97.6759V99.1598C109.275 100.38 108.265 100.99 106.248 100.99C103.541 100.99 101.67 99.7697 100.636 97.3301C98.2728 99.8838 95.996 101.161 93.8054 101.161C92.2054 101.16 90.7285 100.349 89.3748 98.7276ZM99.0866 93.9657C99.2638 92.8862 99.3619 91.7967 99.3803 90.7047H99.3818V88.7378C95.9112 90.3946 93.9297 91.6484 93.4374 92.4992C92.9447 94.7769 94.0893 96.0306 96.8711 96.2602C98.1524 96.0306 98.8909 95.2657 99.0866 93.9657Z" fill="#341B1B"/>
<path d="M111.591 97.7488C111.673 97.6477 111.777 97.5639 111.897 97.5026C112.294 97.2144 112.612 96.8418 112.824 96.4156C113.036 95.9895 113.136 95.5221 113.115 95.0526V79.8019C113.115 78.537 112.586 77.6627 111.528 77.1791C111.333 77.1089 111.166 76.9859 111.048 76.826C110.929 76.6661 110.865 76.4766 110.863 76.282V75.0054C110.863 74.5912 111.134 74.3726 111.675 74.3494L120.425 74.1079V76.9375C122.518 74.844 124.807 73.7973 127.293 73.7973C128.137 73.7676 128.976 73.9352 129.733 74.2847C130.491 74.6342 131.143 75.1546 131.631 75.799C132.677 77.1332 133.2 78.87 133.2 81.0096V95.4665C133.247 96.2888 133.599 97.07 134.197 97.675C134.425 97.8848 134.59 98.1465 134.677 98.4343V99.8839C134.691 99.9563 134.686 100.031 134.664 100.101C134.641 100.171 134.601 100.236 134.548 100.289C134.494 100.343 134.428 100.384 134.354 100.409C134.28 100.435 134.201 100.444 134.123 100.436H125.115C125.032 100.449 124.948 100.445 124.867 100.422C124.787 100.4 124.714 100.36 124.653 100.307C124.592 100.253 124.545 100.187 124.517 100.114C124.488 100.04 124.478 99.9616 124.487 99.8839V98.0894C124.503 97.9741 124.549 97.8639 124.619 97.768C124.69 97.672 124.783 97.593 124.893 97.5373C125.194 97.3451 125.442 97.0881 125.616 96.7879C125.789 96.4877 125.883 96.153 125.89 95.8119V81.0077C125.89 79.3284 125.25 78.4887 123.97 78.4887C122.739 78.4887 121.557 79.1789 120.425 80.5594V95.4675C120.414 96.2235 120.719 96.9539 121.275 97.5035C121.468 97.658 121.609 97.8619 121.681 98.0904V99.9882C121.688 100.052 121.679 100.116 121.655 100.176C121.631 100.236 121.593 100.29 121.543 100.334C121.492 100.377 121.432 100.409 121.366 100.427C121.301 100.445 121.231 100.448 121.164 100.437H112.008C111.93 100.45 111.851 100.445 111.775 100.424C111.7 100.403 111.631 100.366 111.574 100.316C111.517 100.266 111.473 100.204 111.445 100.135C111.418 100.066 111.408 99.9921 111.417 99.9191V98.0894C111.449 97.9658 111.508 97.8498 111.591 97.7488Z" fill="#341B1B"/>
<path d="M139.976 76.9696C140.931 76.1595 142.039 75.5218 143.243 75.0886L143.241 75.0895C144.452 74.6444 145.741 74.4158 147.042 74.4157C148.168 74.4049 149.289 74.5563 150.365 74.8645C151.313 75.1339 152.201 75.5606 152.987 76.1242C153.7 76.6374 154.291 77.2837 154.722 78.0221C155.141 78.748 155.357 79.561 155.349 80.3856C155.366 81.3354 154.982 82.253 154.279 82.9394C153.914 83.2967 153.472 83.5769 152.981 83.7613C152.491 83.9458 151.964 84.0302 151.436 84.0089C150.979 84.0107 150.525 83.9468 150.088 83.8195C149.668 83.6986 149.279 83.4989 148.944 83.2326C148.613 82.9701 148.343 82.6471 148.15 82.2835C147.947 81.8854 147.846 81.448 147.857 81.0068C147.862 80.8368 147.893 80.6683 147.949 80.5064L148.132 79.9209C148.193 79.7251 148.255 79.5411 148.317 79.3688C148.368 79.2414 148.399 79.1076 148.409 78.9717C148.409 78.1666 147.757 77.7641 146.451 77.7641C145.99 77.7632 145.533 77.8452 145.104 78.0056C144.675 78.1658 144.285 78.4066 143.959 78.7133C143.616 79.0393 143.346 79.4264 143.166 79.8518C142.963 80.3294 142.863 80.8395 142.872 81.3531C142.865 81.8311 142.979 82.3039 143.204 82.7331C143.45 83.1774 143.774 83.5795 144.164 83.9224C144.733 84.4002 145.366 84.8062 146.047 85.1301C146.884 85.5561 147.782 86.022 148.742 86.528C150.112 87.0761 151.401 87.783 152.582 88.6321C153.257 89.1227 153.893 89.659 154.484 90.2368C154.815 90.5942 155.043 90.8534 155.166 91.0144C155.382 91.3442 155.567 91.6905 155.72 92.0496C155.966 93.6143 155.8 94.8911 155.222 95.8801C154.609 96.9096 153.809 97.8318 152.859 98.6059C151.845 99.4436 150.666 100.088 149.388 100.504C148.054 100.944 146.649 101.165 145.235 101.16C143.935 101.173 142.641 101.004 141.395 100.659C140.325 100.367 139.318 99.8993 138.423 99.2787C137.623 98.7198 136.967 98.0009 136.503 97.1746C136.143 96.666 135.917 96.0851 135.843 95.4793C135.77 94.8736 135.85 94.2601 136.078 93.689C136.243 93.2296 136.507 92.8067 136.854 92.4466C137.204 92.086 137.632 91.798 138.109 91.6013C138.657 91.3839 139.249 91.2781 139.844 91.2907C142.207 91.291 143.389 92.3377 143.389 94.4309C143.382 94.6224 143.357 94.813 143.315 95.0004C143.309 95.1433 143.258 95.2812 143.168 95.397C143.082 95.4951 143.031 95.6158 143.021 95.7424C142.984 95.8773 142.959 96.0151 142.948 96.1541C142.947 97.2824 143.809 97.8465 145.532 97.8465C146.195 97.8462 146.62 97.7427 146.804 97.5359C146.989 97.3292 147.223 97.0473 147.506 96.6902C147.734 96.4196 147.926 96.1243 148.078 95.8105C148.194 95.4647 148.244 95.1025 148.225 94.7406C148.257 94.3314 148.174 93.9215 147.985 93.5513C147.824 93.3101 147.658 93.0571 147.487 92.7924C147.279 92.4924 147.017 92.2291 146.711 92.0148C146.367 91.762 145.519 91.2445 144.166 90.4623C143.106 89.662 141.954 88.9734 140.732 88.4089C139.937 88.0938 139.216 87.6367 138.609 87.0632C137.982 86.4764 137.533 86.0278 137.262 85.7174C136.991 85.407 136.856 84.7111 136.856 83.6297C136.836 82.3325 137.126 81.0477 137.705 79.8683C138.248 78.7704 139.02 77.7849 139.976 76.9696Z" fill="#341B1B"/>
<path d="M43.5034 63.1575L99.4725 61.2198L101.027 66.0635L43.5034 68.0012V63.1575Z" fill="#341B1B"/>
<path d="M156.994 64.61L104.653 63.1572L105.69 68.0009L155.958 69.4537L156.994 64.61Z" fill="#341B1B"/>
</svg>
