<svg width="70" height="70" viewBox="0 0 90 89" fill="none" xmlns="http://www.w3.org/2000/svg">
<circle cx="43.7864" cy="44.2478" r="35.1588" fill="#402424"/>
<path d="M70.169 26.0521C71.356 27.5186 72.3051 29.1626 72.9815 30.9239L74.5589 35.0314C75.2354 36.7931 75.6307 38.6503 75.7303 40.5348L75.9623 44.9244C76.0619 46.81 75.8643 48.6996 75.3766 50.5238L74.2432 54.7636C73.7552 56.5891 72.9828 58.3264 71.9544 59.9116L69.5698 63.5875C68.5409 65.1736 67.2685 66.5877 65.7995 67.7779L62.3984 70.5332C60.9291 71.7236 59.2814 72.675 57.5159 73.3524L53.4294 74.9204C51.6643 75.5977 49.8036 75.9927 47.9157 76.0908L43.5402 76.3182C41.6534 76.4162 39.7628 76.2165 37.9381 75.7265L33.6999 74.5883C31.8764 74.0985 30.1413 73.3249 28.5583 72.2958L24.8732 69.9001C23.2911 68.8716 21.8806 67.6006 20.6933 66.1338L17.9251 62.7139C16.7381 61.2474 15.789 59.6034 15.1127 57.842L13.5353 53.7345C12.8588 51.9728 12.4634 50.1157 12.3639 48.2311L12.1319 43.8415C12.0322 41.9559 12.2299 40.0663 12.7175 38.2421L13.851 34.0023C14.339 32.1768 15.1114 30.4396 16.1397 28.8544L18.5243 25.1785C19.5533 23.5923 20.8256 22.1782 22.2946 20.9881L25.6957 18.2327C27.1651 17.0424 28.8128 16.091 30.5782 15.4135L34.6647 13.8455C36.4298 13.1682 38.2905 12.7733 40.1785 12.6752L44.5539 12.4478C46.4408 12.3497 48.3313 12.5494 50.1561 13.0395L54.3943 14.1777C56.2177 14.6674 57.9528 15.441 59.5358 16.4701L63.221 18.8659C64.8031 19.8944 66.2136 21.1653 67.4008 22.6321L70.169 26.0521Z" fill="#FFF0DD"/>
<path d="M70.6481 25.3774C73.1521 28.2392 75.0691 31.5671 76.2898 35.1715L76.4941 35.7747C77.7152 39.3802 78.2157 43.192 77.9672 46.9927L77.9263 47.6181C77.6776 51.4218 76.6834 55.1399 75.0006 58.5602L74.7304 59.1094C73.0462 62.5324 70.7053 65.5899 67.8416 68.1071L67.3899 68.5041C64.5252 71.0221 61.1935 72.9501 57.5855 74.1777L57.0166 74.3712C53.4097 75.5984 49.5975 76.1016 45.7978 75.852L45.1882 75.8119C41.3915 75.5625 37.6818 74.5664 34.2709 72.8805L33.7101 72.6032C30.3019 70.9186 27.2586 68.5783 24.7538 65.7155L24.3348 65.2366C21.8308 62.3748 19.9138 59.0469 18.6931 55.4425L18.4888 54.8394C17.2677 51.2338 16.7672 47.422 17.0157 43.6213L17.0566 42.9959C17.3053 39.1922 18.2995 35.4741 19.9823 32.0538L20.2525 31.5047C21.9367 28.0817 24.2776 25.0242 27.1413 22.5069L27.593 22.1099C30.4577 19.5919 33.7894 17.6639 37.3975 16.4363L37.9663 16.2428C41.5732 15.0156 45.3854 14.5124 49.1851 14.7621L49.7947 14.8021C53.5914 15.0515 57.3011 16.0476 60.712 17.7336L61.2728 18.0108C64.681 19.6954 67.7243 22.0358 70.2291 24.8985L70.6481 25.3774Z" fill="#402424"/>
<path d="M37.1562 43.7186C37.1023 43.7726 37.0431 43.805 36.9784 43.8158C36.9138 43.8266 36.8491 43.832 36.7845 43.832C36.6228 43.9076 36.4504 43.9454 36.2673 43.9454C36.1488 43.8806 36.0841 43.859 36.0733 43.8806C36.0626 43.9022 36.041 43.9238 36.0087 43.9454C35.8471 44.021 35.7016 44.0588 35.5723 44.0588C35.443 44.0696 35.3353 44.102 35.2491 44.156C35.1629 44.0912 35.1144 43.994 35.1036 43.8644C35.1036 43.7456 35.0928 43.643 35.0713 43.5566C35.0174 43.481 34.9797 43.3892 34.9582 43.2812C34.9366 43.1624 34.9204 43.0436 34.9097 42.9248C34.8989 42.806 34.8827 42.6926 34.8612 42.5846C34.8504 42.4658 34.8235 42.3633 34.7804 42.2769C34.7696 42.2229 34.7642 42.1743 34.7642 42.1311C34.775 42.0879 34.7696 42.0393 34.748 41.9853C34.7588 41.8017 34.7534 41.6559 34.7319 41.5479C34.7103 41.4399 34.6888 41.3265 34.6672 41.2077C34.6565 41.1429 34.6511 41.0727 34.6511 40.9971C34.6511 40.9107 34.6187 40.8459 34.5541 40.8027C34.5864 40.6515 34.5918 40.5382 34.5703 40.4626C34.5487 40.387 34.5326 40.3168 34.5218 40.252C34.511 40.1656 34.5056 40.0738 34.5056 39.9766C34.5056 39.8686 34.4948 39.7714 34.4733 39.685C34.4086 39.1666 34.3386 38.6483 34.2632 38.1299C34.1878 37.6115 34.1177 37.0931 34.0531 36.5748C33.9884 36.6288 33.9399 36.7098 33.9076 36.8178C33.8861 36.9257 33.8645 37.0229 33.843 37.1093C33.7783 37.3037 33.7191 37.5035 33.6652 37.7087C33.6113 37.9139 33.5574 38.1137 33.5036 38.3081C33.482 38.3945 33.4605 38.4971 33.4389 38.6159C33.4281 38.7239 33.4066 38.821 33.3743 38.9074C33.2665 39.2206 33.1696 39.4906 33.0834 39.7174C33.0079 39.9442 32.9325 40.1764 32.8571 40.414C32.8355 40.5436 32.814 40.6677 32.7924 40.7865C32.7709 40.9053 32.7493 41.0241 32.7278 41.1429C32.717 41.2077 32.7009 41.2995 32.6793 41.4183C32.6578 41.5371 32.6362 41.6235 32.6147 41.6775C32.5931 41.7315 32.5716 41.7693 32.55 41.7909C32.5392 41.8125 32.5392 41.8503 32.55 41.9043C32.4423 42.0663 32.3668 42.2445 32.3237 42.4389C32.2914 42.6332 32.2268 42.8222 32.1298 43.0058C32.1298 43.1354 32.0813 43.2488 31.9843 43.346C31.9305 43.3568 31.8766 43.3676 31.8227 43.3784C31.7796 43.3892 31.7311 43.4108 31.6773 43.4432C31.6234 43.4216 31.5587 43.4108 31.4833 43.4108C31.4187 43.4 31.354 43.3946 31.2894 43.3946C31.2355 43.3838 31.187 43.3676 31.1439 43.346C31.1008 43.3136 31.0523 43.292 30.9985 43.2812C30.9446 43.2164 30.8853 43.1624 30.8207 43.1192C30.756 43.0652 30.6914 43.0112 30.6267 42.9572C30.5621 42.7952 30.5028 42.6872 30.4489 42.6332C30.4166 42.5144 30.3735 42.4065 30.3197 42.3093C30.2658 42.2013 30.2281 42.0825 30.2065 41.9529C30.1742 41.8341 30.1311 41.7261 30.0772 41.6289C30.0341 41.5209 29.9856 41.4075 29.9318 41.2887C29.9102 41.2131 29.8833 41.1429 29.851 41.0781C29.8294 41.0025 29.8025 40.9269 29.7701 40.8513C29.7594 40.7649 29.727 40.6569 29.6732 40.5274C29.6301 40.3978 29.5977 40.2844 29.5762 40.1872C29.5762 40.1764 29.5546 40.1224 29.5116 40.0252C29.4792 39.9172 29.4415 39.8038 29.3984 39.685C29.3661 39.5662 29.3284 39.4582 29.2853 39.361C29.253 39.2638 29.2314 39.2098 29.2206 39.199C29.1991 39.145 29.1775 39.0964 29.156 39.0532C29.1452 38.9992 29.129 38.9398 29.1075 38.875C29.0644 38.7347 29.0105 38.5943 28.9459 38.4539C28.8812 38.3027 28.8166 38.1623 28.7519 38.0327C28.6981 37.9247 28.6604 37.8221 28.6388 37.7249C28.6173 37.6169 28.5903 37.5143 28.558 37.4171C28.5364 37.3631 28.5149 37.3145 28.4933 37.2713C28.4826 37.2281 28.4664 37.1795 28.4449 37.1255C28.4233 37.0607 28.4018 36.9959 28.3802 36.9311C28.3587 36.8556 28.3371 36.78 28.3156 36.7044C28.2617 36.726 28.2348 36.7746 28.2348 36.8502C28.2455 36.9149 28.2455 36.9743 28.2348 37.0283C28.2132 37.1471 28.2024 37.2659 28.2024 37.3847C28.2024 37.4927 28.197 37.6061 28.1863 37.7249C28.1647 37.8545 28.1432 37.9787 28.1216 38.0975C28.1001 38.2163 28.0839 38.3351 28.0731 38.4539C28.0731 38.7454 28.057 39.037 28.0246 39.3286C28.0031 39.5878 27.9762 39.8524 27.9438 40.1224C27.9115 40.3816 27.89 40.6515 27.8792 40.9323C27.8792 41.1375 27.8576 41.3427 27.8145 41.5479C27.7714 41.7423 27.7607 41.9475 27.7822 42.1635C27.7607 42.2067 27.7499 42.2391 27.7499 42.2607C27.7499 42.2823 27.7499 42.3147 27.7499 42.3579C27.7499 42.4119 27.7445 42.4712 27.7337 42.536C27.7337 42.6008 27.7337 42.6602 27.7337 42.7142C27.7337 42.8114 27.7445 42.8762 27.7661 42.9086C27.7337 43.0058 27.7176 43.1138 27.7176 43.2326C27.7176 43.3406 27.7176 43.4486 27.7176 43.5566C27.696 43.5998 27.6799 43.643 27.6691 43.6862C27.6691 43.7294 27.6529 43.7726 27.6206 43.8158C27.6314 43.9994 27.5775 44.0912 27.459 44.0912C27.4267 44.0912 27.3889 44.0804 27.3458 44.0588C27.3135 44.048 27.2866 44.0264 27.265 43.994C27.1465 44.0048 27.0765 43.9778 27.0549 43.913C27.0441 43.8482 27.0118 43.8212 26.958 43.832C26.8287 43.886 26.7532 43.9022 26.7317 43.8806C26.7209 43.859 26.6886 43.8536 26.6347 43.8644C26.5485 43.778 26.4893 43.7402 26.4569 43.751C26.4354 43.7618 26.4138 43.7672 26.3923 43.7672C26.2953 43.7348 26.2414 43.7294 26.2307 43.751C26.2199 43.7618 26.1983 43.7672 26.166 43.7672C26.1121 43.7132 26.0367 43.6862 25.9397 43.6862C25.8535 43.6862 25.7781 43.6808 25.7135 43.67C25.7027 43.6268 25.6919 43.589 25.6812 43.5566C25.6812 43.5134 25.6812 43.4648 25.6812 43.4108C25.6812 43.346 25.6812 43.2866 25.6812 43.2326C25.6919 43.1678 25.6973 43.103 25.6973 43.0382C25.6973 42.9842 25.6919 42.9302 25.6812 42.8762C25.6812 42.8114 25.6812 42.7412 25.6812 42.6656C25.6812 42.59 25.6865 42.5198 25.6973 42.4551C25.7081 42.3795 25.7135 42.2985 25.7135 42.2121C25.7135 42.1797 25.7081 42.1527 25.6973 42.1311C25.6865 42.0987 25.6812 42.0609 25.6812 42.0177C25.7458 41.8773 25.7727 41.7693 25.762 41.6937C25.762 41.6073 25.7673 41.5263 25.7781 41.4507C25.7997 41.2671 25.8158 41.0889 25.8266 40.9161C25.8482 40.7325 25.8697 40.549 25.8913 40.3654C25.8913 40.063 25.8966 39.8146 25.9074 39.6202C25.929 39.415 25.9559 39.2098 25.9882 39.0046C26.0098 38.9074 26.0259 38.8156 26.0367 38.7293C26.0583 38.6429 26.0798 38.5511 26.1014 38.4539C26.1229 38.2919 26.1337 38.1245 26.1337 37.9517C26.1445 37.7681 26.1606 37.5899 26.1822 37.4171C26.2037 37.1471 26.2307 36.8825 26.263 36.6234C26.2953 36.3534 26.3222 36.0888 26.3438 35.8296C26.3653 35.6244 26.3869 35.4246 26.4084 35.2302C26.4408 35.025 26.4569 34.8307 26.4569 34.6471C26.4569 34.5499 26.4677 34.4257 26.4893 34.2745C26.5216 34.1233 26.5431 33.9937 26.5539 33.8857C26.5755 33.6265 26.5916 33.3727 26.6024 33.1244C26.6239 32.876 26.6347 32.6276 26.6347 32.3792V32.201C26.6347 32.1794 26.6455 32.1578 26.667 32.1362C26.6886 32.1146 26.6994 32.0768 26.6994 32.0228C26.6994 31.9256 26.7209 31.8608 26.764 31.8284C26.8179 31.7852 26.861 31.7204 26.8933 31.634C26.9472 31.634 27.0064 31.6394 27.0711 31.6502C27.1465 31.661 27.2004 31.6934 27.2327 31.7474C27.3081 31.7258 27.3836 31.715 27.459 31.715C27.5344 31.715 27.599 31.688 27.6529 31.634C27.7176 31.634 27.7661 31.6502 27.7984 31.6826C27.8307 31.715 27.8738 31.742 27.9277 31.7636C27.9708 31.742 28.0139 31.7258 28.057 31.715C28.1001 31.6934 28.1432 31.6718 28.1863 31.6502C28.2186 31.6718 28.2401 31.6988 28.2509 31.7312C28.2725 31.7528 28.2994 31.769 28.3317 31.7798C28.4933 31.7366 28.6011 31.7312 28.655 31.7636C28.6765 31.8068 28.6873 31.85 28.6873 31.8932C28.6981 31.9364 28.7088 31.9796 28.7196 32.0228C28.8274 32.1308 28.8974 32.255 28.9297 32.3954C28.962 32.525 29.0213 32.6438 29.1075 32.7518C29.129 32.8166 29.1506 32.8814 29.1721 32.9462C29.2045 33.011 29.2314 33.0866 29.253 33.1729L29.3014 33.3673C29.3445 33.4753 29.3984 33.6049 29.4631 33.7561C29.5169 33.9613 29.5654 34.1719 29.6085 34.3879C29.6516 34.6039 29.7217 34.8037 29.8186 34.9873C29.8294 35.052 29.8456 35.133 29.8671 35.2302C29.8994 35.3166 29.9264 35.3922 29.9479 35.457C30.0233 35.6406 30.0988 35.8242 30.1742 36.0078C30.2604 36.1806 30.3358 36.3696 30.4005 36.5748C30.4651 36.78 30.519 36.9905 30.5621 37.2065C30.616 37.4225 30.6806 37.6331 30.756 37.8383C30.8207 38.0327 30.8692 38.1731 30.9015 38.2595C30.9338 38.3459 30.9769 38.4323 31.0308 38.5187C31.0308 38.5511 31.0362 38.6051 31.0469 38.6807C31.0685 38.7562 31.0954 38.8372 31.1278 38.9236C31.1601 38.9992 31.1924 39.0748 31.2247 39.1504C31.257 39.2152 31.2894 39.253 31.3217 39.2638C31.354 39.2422 31.3702 39.2098 31.3702 39.1666C31.381 39.1234 31.4025 39.0856 31.4348 39.0532C31.4456 38.9344 31.4618 38.7886 31.4833 38.6159C31.5156 38.4431 31.5587 38.3027 31.6126 38.1947C31.6126 38.1407 31.6234 38.0435 31.6449 37.9031C31.6773 37.7519 31.715 37.5953 31.7581 37.4333C31.8012 37.2605 31.8389 37.1039 31.8712 36.9635C31.9143 36.8232 31.952 36.7368 31.9843 36.7044C32.0059 36.564 32.0221 36.4776 32.0328 36.4452C32.0544 36.4128 32.0759 36.3858 32.0975 36.3642C32.1082 36.2778 32.1298 36.1968 32.1621 36.1212C32.1944 36.0456 32.216 35.9646 32.2268 35.8782C32.2483 35.6946 32.2753 35.5434 32.3076 35.4246C32.3399 35.3058 32.383 35.16 32.4369 34.9873C32.48 34.8361 32.5177 34.6849 32.55 34.5337C32.5931 34.3717 32.6416 34.2151 32.6955 34.0639C32.8248 33.6535 32.9379 33.2917 33.0349 32.9786C33.1426 32.6546 33.2719 32.3414 33.4228 32.039C33.4551 31.9418 33.482 31.8824 33.5036 31.8608C33.5251 31.8392 33.5467 31.8176 33.5682 31.796C33.6544 31.7636 33.7406 31.7474 33.8268 31.7474C33.9238 31.7474 34.0208 31.7528 34.1177 31.7636C34.2255 31.7204 34.3063 31.6718 34.3602 31.6178C34.4033 31.6718 34.4679 31.6988 34.5541 31.6988C34.6618 31.6988 34.7373 31.6664 34.7804 31.6016C34.8235 31.6232 34.8558 31.6286 34.8773 31.6178C34.9097 31.607 34.9528 31.6124 35.0066 31.634C35.0282 31.6124 35.0551 31.5908 35.0874 31.5692C35.1198 31.5368 35.1521 31.5206 35.1844 31.5206C35.2706 31.6286 35.3353 31.715 35.3784 31.7798C35.4322 31.8338 35.4699 31.8986 35.4915 31.9742C35.5238 32.0714 35.54 32.1794 35.54 32.2982C35.5508 32.4062 35.5831 32.5088 35.637 32.606C35.6262 32.7464 35.6316 32.9624 35.6531 33.2539C35.6854 33.5347 35.7178 33.8371 35.7501 34.1611C35.7932 34.4743 35.8363 34.7659 35.8794 35.0358C35.9225 35.3058 35.9602 35.4732 35.9925 35.538C35.9817 35.6784 35.9871 35.7972 36.0087 35.8944C36.0302 35.9916 36.041 36.0888 36.041 36.186C36.041 36.2184 36.0464 36.2886 36.0572 36.3966C36.0679 36.4938 36.0787 36.6018 36.0895 36.7206C36.1003 36.8286 36.111 36.9365 36.1218 37.0445C36.1434 37.1417 36.1595 37.2119 36.1703 37.2551C36.1703 37.4495 36.2026 37.6007 36.2673 37.7087C36.3211 37.9787 36.3642 38.2487 36.3966 38.5187C36.4397 38.7886 36.4774 39.064 36.5097 39.3448C36.5313 39.4852 36.542 39.6202 36.542 39.7498C36.5528 39.8794 36.569 40.0144 36.5905 40.1548C36.6013 40.2088 36.6121 40.2628 36.6228 40.3168C36.6444 40.3708 36.6605 40.4248 36.6713 40.4788C36.6929 40.5868 36.709 40.6893 36.7198 40.7865C36.7306 40.8837 36.7467 40.9809 36.7683 41.0781C36.7791 41.1321 36.7952 41.1915 36.8168 41.2563C36.8383 41.3103 36.8383 41.3697 36.8168 41.4345C36.8383 41.5101 36.8437 41.5911 36.8329 41.6775C36.8329 41.7639 36.8545 41.8395 36.8976 41.9043C36.8976 42.1311 36.9138 42.3309 36.9461 42.5036C36.9569 42.6332 36.9892 42.7628 37.0431 42.8924C37.0646 43.022 37.0808 43.157 37.0915 43.2974C37.1131 43.4378 37.1346 43.5782 37.1562 43.7186Z" fill="#FFF0DD"/>
<path d="M47.5548 31.8284C47.5764 31.8716 47.5979 31.904 47.6195 31.9256C47.6518 31.9364 47.6733 31.9688 47.6841 32.0228C47.7595 32.0768 47.8188 32.12 47.8619 32.1524C47.905 32.174 47.9319 32.2172 47.9427 32.282C48.0397 32.3576 48.0936 32.4062 48.1043 32.4278C48.1259 32.4494 48.142 32.4764 48.1528 32.5088C48.2067 32.552 48.2552 32.5898 48.2983 32.6222C48.3522 32.6546 48.3899 32.7032 48.4114 32.768C48.4976 32.8436 48.5515 32.903 48.573 32.9462C48.5946 32.9894 48.6107 33.038 48.6215 33.092C48.5784 33.1675 48.4922 33.2701 48.3629 33.3997C48.2336 33.5293 48.0882 33.6697 47.9266 33.8209C47.7649 33.9613 47.6087 34.1017 47.4579 34.2421C47.307 34.3717 47.1885 34.4743 47.1023 34.5499C47.0807 34.5931 47.0538 34.6309 47.0215 34.6633C46.9892 34.6957 46.9622 34.7335 46.9407 34.7767C46.876 34.8307 46.8168 34.8901 46.7629 34.9549C46.709 35.0089 46.6444 35.052 46.5689 35.0844C46.4612 35.2356 46.3104 35.3868 46.1164 35.538C45.9225 35.6784 45.7932 35.8188 45.7285 35.9592C45.7393 35.9916 45.7608 36.024 45.7932 36.0564C45.8363 36.0888 45.8686 36.1158 45.8901 36.1374C45.9763 36.2238 46.0787 36.3048 46.1972 36.3804C46.3157 36.4452 46.4181 36.5208 46.5043 36.6072C46.5905 36.6828 46.6767 36.7584 46.7629 36.834C46.8491 36.8987 46.9353 36.9689 47.0215 37.0445C47.0646 37.0877 47.1185 37.1525 47.1831 37.2389C47.2908 37.3253 47.3932 37.4063 47.4902 37.4819C47.5979 37.5467 47.7003 37.6223 47.7973 37.7087C48.002 37.8815 48.2013 38.0597 48.3953 38.2433C48.5892 38.4161 48.7939 38.5889 49.0094 38.7616L49.1387 38.9074C49.1387 38.9938 49.1603 39.0964 49.2034 39.2152C49.2572 39.3232 49.3057 39.415 49.3488 39.4906C49.3273 39.5986 49.3273 39.6688 49.3488 39.7012C49.3811 39.7228 49.4081 39.7444 49.4296 39.766C49.4188 39.9712 49.4242 40.1062 49.4458 40.171C49.2626 40.333 49.0902 40.4842 48.9286 40.6245C48.7778 40.7541 48.6431 40.8837 48.5245 41.0133C48.4276 41.1321 48.3252 41.2401 48.2175 41.3373C48.1205 41.4237 48.0128 41.5209 47.8942 41.6289C47.8296 41.7153 47.7757 41.7747 47.7326 41.8071C47.6572 41.8827 47.5818 41.9421 47.5063 41.9853C47.377 42.1041 47.2478 42.2175 47.1185 42.3255C46.9999 42.4335 46.8814 42.5414 46.7629 42.6494C46.6767 42.725 46.5959 42.8006 46.5205 42.8762C46.445 42.941 46.3696 43.0166 46.2942 43.103C46.2295 43.1678 46.1541 43.2434 46.0679 43.3298C45.9925 43.4162 45.9117 43.4864 45.8255 43.5404C45.7932 43.6052 45.7501 43.6646 45.6962 43.7186C45.6423 43.7618 45.5938 43.8104 45.5507 43.8644C45.4753 43.9076 45.4053 43.9508 45.3406 43.994C45.276 44.0372 45.2006 44.0804 45.1144 44.1236C45.0282 44.0588 44.942 43.9994 44.8558 43.9454C44.7803 43.8914 44.6942 43.8536 44.5972 43.832C44.5325 43.778 44.484 43.724 44.4517 43.67C44.4194 43.616 44.3601 43.5782 44.2739 43.5566C44.2524 43.5242 44.2255 43.4918 44.1931 43.4594C44.1716 43.4162 44.15 43.373 44.1285 43.3298C43.9992 43.319 43.8968 43.238 43.8214 43.0868C43.843 43.022 43.8699 42.9734 43.9022 42.941C43.9453 42.9086 43.9561 42.8492 43.9345 42.7628C43.9992 42.6548 44.0746 42.563 44.1608 42.4874C44.2578 42.4011 44.3494 42.3147 44.4356 42.2283C44.5325 42.1419 44.6187 42.0555 44.6942 41.9691C44.7803 41.8719 44.8719 41.7801 44.9689 41.6937C45.0228 41.6397 45.0767 41.5911 45.1305 41.5479C45.1844 41.4939 45.2437 41.4399 45.3083 41.3859C45.4268 41.2671 45.5454 41.1591 45.6639 41.0619C45.7932 40.9539 45.9225 40.8405 46.0518 40.7217C46.2242 40.549 46.4019 40.387 46.5851 40.2358C46.7683 40.0738 46.9353 39.8956 47.0861 39.7012C47.0754 39.658 47.0592 39.631 47.0376 39.6202C47.0161 39.5986 46.9999 39.5716 46.9892 39.5392C46.8168 39.3772 46.6444 39.2206 46.472 39.0694C46.3104 38.9074 46.1326 38.767 45.9386 38.6483C45.874 38.5835 45.8309 38.5295 45.8093 38.4863C45.6154 38.3459 45.4268 38.1893 45.2437 38.0165C45.0713 37.8437 44.8773 37.6979 44.6618 37.5791C44.6187 37.5251 44.5649 37.4819 44.5002 37.4495C44.4463 37.4063 44.3925 37.3685 44.3386 37.3361C44.3063 37.2821 44.2686 37.2389 44.2255 37.2065C44.1931 37.1633 44.15 37.1309 44.0962 37.1093C44.01 37.0337 43.9507 36.9743 43.9184 36.9311C43.8968 36.8772 43.8537 36.8448 43.7891 36.834C43.7675 36.78 43.7298 36.7368 43.6759 36.7044C43.6328 36.672 43.5844 36.6342 43.5305 36.591C43.5089 36.5262 43.4766 36.4722 43.4335 36.429C43.4227 36.3426 43.4281 36.2832 43.4497 36.2508C43.4712 36.2076 43.4874 36.1752 43.4982 36.1536C43.4874 36.0888 43.4605 36.0402 43.4174 36.0078C43.3635 35.9754 43.3365 35.9214 43.3365 35.8458C43.3365 35.8026 43.3527 35.7756 43.385 35.7648C43.4066 35.7432 43.4227 35.7162 43.4335 35.6838L43.482 35.4408C43.5682 35.376 43.6382 35.3004 43.6921 35.214C43.7568 35.1168 43.8376 35.0412 43.9345 34.9873C44.0423 34.8253 44.177 34.6903 44.3386 34.5823C44.3925 34.4959 44.4571 34.4257 44.5325 34.3717C44.6187 34.3177 44.6888 34.2475 44.7426 34.1611C44.8288 34.1071 44.8989 34.0477 44.9527 33.9829C45.0174 33.9181 45.0928 33.8587 45.179 33.8047C45.2006 33.7615 45.2221 33.7291 45.2437 33.7075C45.276 33.6751 45.2975 33.6427 45.3083 33.6103C45.5992 33.3295 45.8524 33.0866 46.0679 32.8814C46.2942 32.6762 46.5258 32.471 46.7629 32.2658C46.8275 32.2118 46.8922 32.1524 46.9568 32.0876C47.0215 32.0228 47.0915 31.9634 47.1669 31.9094C47.1885 31.8878 47.2154 31.877 47.2478 31.877C47.2801 31.877 47.3124 31.8662 47.3447 31.8446C47.474 31.8446 47.5441 31.8392 47.5548 31.8284Z" fill="#FFF0DD"/>
<path d="M54.734 39.7012L54.3784 39.8308C54.2599 39.8632 54.1414 39.901 54.0229 39.9442C53.9043 39.9658 53.802 39.9982 53.7158 40.0414L53.4572 40.171C53.3818 40.6785 53.3387 41.1645 53.3279 41.6289C53.3279 42.0825 53.3441 42.536 53.3764 42.9896C53.3548 43.0544 53.3441 43.13 53.3441 43.2164C53.3441 43.292 53.3279 43.3568 53.2956 43.4108C53.1771 43.4432 53.0962 43.4486 53.0531 43.427C53.0208 43.3946 52.9831 43.3676 52.94 43.346C52.8969 43.3568 52.8592 43.3784 52.8269 43.4108C52.8053 43.4432 52.7838 43.4702 52.7622 43.4918C52.676 43.4918 52.606 43.5134 52.5521 43.5566C52.509 43.589 52.4659 43.616 52.4228 43.6376C52.3905 43.6484 52.3582 43.6484 52.3259 43.6376C52.2935 43.6268 52.2558 43.6322 52.2127 43.6538C52.105 43.6538 52.0511 43.643 52.0511 43.6214C52.0619 43.589 52.0511 43.5728 52.0188 43.5728C51.9757 43.5728 51.9434 43.5944 51.9218 43.6376C51.911 43.67 51.8841 43.697 51.841 43.7186C51.7979 43.7402 51.7494 43.7564 51.6955 43.7672C51.6417 43.7672 51.5878 43.778 51.5339 43.7996C51.48 43.7456 51.4531 43.6862 51.4531 43.6214C51.4531 43.5566 51.4262 43.4972 51.3723 43.4432C51.3507 43.292 51.3346 43.1462 51.3238 43.0058C51.3238 42.8546 51.3076 42.7034 51.2753 42.5522C51.2969 42.2499 51.3023 42.0069 51.2915 41.8233V41.2563C51.2915 41.0835 51.2861 40.9107 51.2753 40.7379L51.243 40.2196C51.2215 39.9064 51.1999 39.5878 51.1784 39.2638C51.1676 38.9398 51.1622 38.6159 51.1622 38.2919C51.1622 38.0219 51.173 37.7573 51.1945 37.4981C51.2268 37.2389 51.243 36.9743 51.243 36.7044V36.1698C51.2538 35.9862 51.2592 35.8026 51.2592 35.619C51.2592 35.4678 51.2538 35.322 51.243 35.1816V34.7443C51.243 34.5823 51.2538 34.4257 51.2753 34.2745C51.2969 34.1125 51.3076 33.9559 51.3076 33.8047C51.3076 33.6211 51.2969 33.4429 51.2753 33.2701C51.2538 33.0866 51.243 32.903 51.243 32.7194C51.243 32.6654 51.2484 32.6168 51.2592 32.5736C51.2699 32.5196 51.2753 32.4656 51.2753 32.4116C51.2645 32.2928 51.2699 32.2226 51.2915 32.201C51.313 32.1686 51.3346 32.1308 51.3561 32.0876C51.41 32.0768 51.4693 32.0606 51.5339 32.039C51.5986 32.0174 51.6578 32.0174 51.7117 32.039C51.7763 31.9742 51.8625 31.9418 51.9703 31.9418C52.0888 31.9418 52.175 31.904 52.2289 31.8284C52.3043 31.8392 52.3528 31.8446 52.3743 31.8446C52.4067 31.8338 52.4336 31.8284 52.4552 31.8284C52.5521 31.85 52.6006 31.85 52.6006 31.8284C52.6114 31.796 52.6329 31.7798 52.6653 31.7798C52.7191 31.7798 52.7999 31.7852 52.9077 31.796C53.0262 31.796 53.107 31.8176 53.1501 31.8608C53.2579 32.4332 53.3171 33.0164 53.3279 33.6103C53.3387 34.2043 53.3441 34.7929 53.3441 35.376C53.3441 35.5272 53.3494 35.6838 53.3602 35.8458C53.371 35.997 53.3656 36.1482 53.3441 36.2994C53.3441 36.3642 53.3387 36.429 53.3279 36.4938C53.3171 36.5478 53.3117 36.6072 53.3117 36.672C53.3117 36.8556 53.301 37.0499 53.2794 37.2551C53.2579 37.4495 53.2471 37.6385 53.2471 37.8221C53.3764 37.8977 53.4841 37.9247 53.5703 37.9031C53.6673 37.8707 53.7589 37.8383 53.8451 37.8059C53.9528 37.7735 54.0498 37.7411 54.136 37.7087C54.233 37.6655 54.3299 37.6277 54.4269 37.5953C54.5131 37.5521 54.6047 37.5197 54.7017 37.4981L54.734 39.7012Z" fill="#FFF0DD"/>
<path d="M58.0634 31.2919C58.1927 31.2595 58.2843 31.2487 58.3381 31.2595C58.392 31.2595 58.4459 31.2649 58.4997 31.2757C58.5644 31.3189 58.6183 31.3729 58.6614 31.4377C58.6614 31.6645 58.656 31.8913 58.6452 32.1181V32.7823C58.6452 33.1926 58.6506 33.603 58.6614 34.0134C58.6721 34.4238 58.6721 34.8342 58.6614 35.2445C58.6829 35.3417 58.6883 35.3957 58.6775 35.4065C58.6668 35.4173 58.6614 35.4335 58.6614 35.4551C58.6614 35.8655 58.6721 36.2705 58.6937 36.6701C58.7152 37.0696 58.726 37.4746 58.726 37.885V40.0395C58.726 40.5038 58.7368 40.9628 58.7583 41.4164C58.7907 41.87 58.8068 42.3236 58.8068 42.7771C58.8068 42.8203 58.7799 42.8797 58.726 42.9553C58.7045 43.0417 58.6721 43.1119 58.629 43.1659C58.5321 43.1767 58.4405 43.1605 58.3543 43.1173C58.3112 43.1173 58.2789 43.1335 58.2573 43.1659C58.2465 43.1875 58.225 43.2091 58.1927 43.2307C58.1065 43.2307 58.0364 43.2523 57.9826 43.2955C57.9287 43.3387 57.864 43.3603 57.7886 43.3603C57.724 43.3603 57.6593 43.3495 57.5947 43.3279C57.5408 43.3171 57.4762 43.3117 57.4007 43.3117C57.3792 43.3117 57.3469 43.3279 57.3038 43.3603C57.2607 43.4035 57.2283 43.4305 57.2068 43.4413C57.1529 43.4413 57.1044 43.4467 57.0613 43.4575C57.0182 43.4791 56.9697 43.4899 56.9159 43.4899C56.862 43.4467 56.8351 43.3819 56.8351 43.2955C56.8458 43.2091 56.8135 43.1551 56.7381 43.1335V42.9553C56.7489 42.8905 56.7542 42.8257 56.7542 42.7609C56.7542 42.3398 56.7435 41.9186 56.7219 41.4974C56.7004 41.0654 56.6842 40.6388 56.6734 40.2177C56.6627 40.0341 56.6573 39.8559 56.6573 39.6831C56.6681 39.4995 56.6734 39.3159 56.6734 39.1323V38.8407C56.6734 38.7435 56.6627 38.6517 56.6411 38.5654C56.5765 38.5546 56.5172 38.5654 56.4633 38.5978C56.4202 38.6194 56.3717 38.6302 56.3179 38.6302C56.0916 38.7057 55.9408 38.7813 55.8653 38.8569C55.8007 38.8569 55.7468 38.8677 55.7037 38.8893C55.6606 38.9109 55.6121 38.9325 55.5583 38.9541L55.2997 39.0189L55.8169 36.5729C56.0862 36.4325 56.361 36.3191 56.6411 36.2327C56.6196 35.6387 56.6088 35.0501 56.6088 34.467V32.7013V32.1991C56.6088 32.0263 56.6196 31.8589 56.6411 31.6969C56.6519 31.6537 56.6627 31.6213 56.6734 31.5997C56.695 31.5673 56.7058 31.5241 56.7058 31.4701C56.7381 31.4161 56.7758 31.3783 56.8189 31.3567C56.862 31.3351 56.8943 31.3027 56.9159 31.2595L56.9805 31.3243L57.0775 31.3567C57.1637 31.3351 57.2122 31.3189 57.2229 31.3081L57.2876 31.2757C57.3415 31.2541 57.4115 31.2433 57.4977 31.2433H57.7078H57.9018L58.0634 31.2919Z" fill="#FFF0DD"/>
<path fill-rule="evenodd" clip-rule="evenodd" d="M39.9554 35.943C39.9231 35.8674 39.8692 35.808 39.7938 35.7648C39.7292 35.7864 39.6538 35.7864 39.5676 35.7648C39.5568 35.8188 39.5352 35.862 39.5029 35.8944C39.4814 35.916 39.4544 35.9376 39.4221 35.9592C39.3898 35.9808 39.3628 36.0132 39.3413 36.0564C39.3197 36.0888 39.309 36.1428 39.309 36.2184C39.309 36.7044 39.3467 37.1849 39.4221 37.6601C39.4975 38.1353 39.5137 38.6105 39.4706 39.0856C39.4814 39.118 39.4975 39.1396 39.5191 39.1504C39.5406 39.1504 39.5568 39.1558 39.5676 39.1666C39.5783 39.1774 39.5891 39.1936 39.5999 39.2152C39.6107 39.2368 39.616 39.2854 39.616 39.361C39.616 39.523 39.6214 39.6904 39.6322 39.8632C39.643 40.036 39.6484 40.2088 39.6484 40.3816C39.6484 40.4572 39.643 40.5382 39.6322 40.6245V40.8675C39.6107 40.8891 39.5945 40.9377 39.5837 41.0133V41.1753C39.5837 41.2077 39.5945 41.2347 39.616 41.2563C39.6376 41.2779 39.6484 41.3157 39.6484 41.3697C39.6484 41.4237 39.6376 41.4723 39.616 41.5155C39.6053 41.5587 39.5999 41.6073 39.5999 41.6613C39.5783 41.8125 39.5729 41.9691 39.5837 42.1311C39.5945 42.2823 39.5999 42.4335 39.5999 42.5846V42.7466C39.5999 42.7898 39.5837 42.8762 39.5514 43.0058V43.103C39.5622 43.1246 39.5729 43.1516 39.5837 43.184C39.6376 43.2812 39.6591 43.3892 39.6484 43.508C39.6484 43.6268 39.6699 43.7402 39.713 43.8482C39.9285 43.7942 40.1278 43.7672 40.311 43.7672C40.4295 43.7672 40.5427 43.7726 40.6504 43.7834C40.7582 43.7942 40.8713 43.805 40.9898 43.8158C41.0437 43.7726 41.1299 43.751 41.2484 43.751H41.3454C41.3885 43.751 41.4262 43.7564 41.4585 43.7672C41.5232 43.7132 41.5555 43.6268 41.5555 43.508C41.5555 43.4324 41.5501 43.3622 41.5393 43.2974C41.5286 43.2326 41.5232 43.1678 41.5232 43.103V42.5846C41.5232 42.4766 41.5286 42.4011 41.5393 42.3579C41.6255 42.2499 41.6686 42.0987 41.6686 41.9043C41.6794 41.7099 41.6848 41.5479 41.6848 41.4183C41.6848 41.1699 41.6956 40.9161 41.7171 40.6569C41.7387 40.3978 41.7494 40.144 41.7494 39.8956C41.7494 39.6472 41.7333 39.4042 41.7009 39.1666C41.6686 38.9182 41.6417 38.6699 41.6201 38.4215C41.5986 38.3027 41.5824 38.1623 41.5716 38.0003C41.5609 37.8275 41.5447 37.6601 41.5232 37.4981C41.5016 37.3253 41.4693 37.1633 41.4262 37.0121C41.3939 36.861 41.34 36.7368 41.2646 36.6396C41.2215 36.5856 41.1299 36.537 40.9898 36.4938C40.8605 36.4506 40.7635 36.402 40.6989 36.348L40.6343 36.2508C40.6127 36.2184 40.5804 36.1914 40.5373 36.1698C40.4834 36.1482 40.4188 36.1374 40.3433 36.1374C40.2679 36.1374 40.1979 36.1212 40.1332 36.0888C40.0578 36.0564 39.9985 36.0078 39.9554 35.943Z" fill="#FFF0DD"/>
<path d="M42.5104 58.8429C42.4566 58.8969 42.3973 58.9293 42.3326 58.9401C42.268 58.9509 42.2034 58.9563 42.1387 58.9563C41.9771 59.0319 41.8047 59.0697 41.6215 59.0697C41.503 59.0049 41.4384 58.9833 41.4276 59.0049C41.4168 59.0265 41.3953 59.0481 41.3629 59.0697C41.2013 59.1453 41.0558 59.1831 40.9266 59.1831C40.7973 59.1939 40.6895 59.2263 40.6033 59.2803C40.5171 59.2155 40.4686 59.1183 40.4579 58.9887C40.4579 58.8699 40.4471 58.7673 40.4255 58.6809C40.3717 58.6053 40.3339 58.5135 40.3124 58.4055C40.2908 58.2867 40.2747 58.1679 40.2639 58.0491C40.2531 57.9304 40.237 57.817 40.2154 57.709C40.2047 57.5902 40.1777 57.4876 40.1346 57.4012C40.1238 57.3472 40.1185 57.2986 40.1185 57.2554C40.1292 57.2122 40.1238 57.1636 40.1023 57.1096C40.1131 56.926 40.1077 56.7802 40.0861 56.6722C40.0646 56.5642 40.043 56.4508 40.0215 56.332C40.0107 56.2672 40.0053 56.197 40.0053 56.1215C40.0053 56.0351 39.973 55.9703 39.9083 55.9271C39.9407 55.7759 39.9461 55.6625 39.9245 55.5869C39.903 55.5113 39.8868 55.4411 39.876 55.3763C39.8652 55.2899 39.8599 55.1981 39.8599 55.1009C39.8599 54.9929 39.8491 54.8957 39.8275 54.8093C39.7629 54.291 39.6929 53.7726 39.6174 53.2542C39.542 52.7358 39.472 52.2175 39.4073 51.6991C39.3427 51.7531 39.2942 51.8341 39.2619 51.9421C39.2403 52.0501 39.2188 52.1473 39.1972 52.2337C39.1326 52.428 39.0733 52.6278 39.0194 52.833C38.9656 53.0382 38.9117 53.238 38.8578 53.4324C38.8363 53.5188 38.8147 53.6214 38.7932 53.7402C38.7824 53.8482 38.7608 53.9454 38.7285 54.0318C38.6208 54.3449 38.5238 54.6149 38.4376 54.8417C38.3622 55.0685 38.2868 55.3007 38.2113 55.5383C38.1898 55.6679 38.1682 55.7921 38.1467 55.9109C38.1251 56.0297 38.1036 56.1485 38.082 56.2672C38.0713 56.332 38.0551 56.4238 38.0336 56.5426C38.012 56.6614 37.9905 56.7478 37.9689 56.8018C37.9474 56.8558 37.9258 56.8936 37.9043 56.9152C37.8935 56.9368 37.8935 56.9746 37.9043 57.0286C37.7965 57.1906 37.7211 57.3688 37.678 57.5632C37.6457 57.7576 37.581 57.9466 37.484 58.1301C37.484 58.2597 37.4356 58.3731 37.3386 58.4703C37.2847 58.4811 37.2308 58.4919 37.177 58.5027C37.1339 58.5135 37.0854 58.5351 37.0315 58.5675C36.9776 58.5459 36.913 58.5351 36.8376 58.5351C36.7729 58.5243 36.7083 58.5189 36.6436 58.5189C36.5897 58.5081 36.5413 58.4919 36.4982 58.4703C36.4551 58.4379 36.4066 58.4163 36.3527 58.4055C36.2988 58.3407 36.2396 58.2867 36.1749 58.2435C36.1103 58.1895 36.0456 58.1355 35.981 58.0815C35.9163 57.9196 35.8571 57.8116 35.8032 57.7576C35.7709 57.6388 35.7278 57.5308 35.6739 57.4336C35.62 57.3256 35.5823 57.2068 35.5608 57.0772C35.5284 56.9584 35.4853 56.8504 35.4315 56.7532C35.3884 56.6452 35.3399 56.5318 35.286 56.413C35.2645 56.3374 35.2375 56.2672 35.2052 56.2024C35.1837 56.1269 35.1567 56.0513 35.1244 55.9757C35.1136 55.8893 35.0813 55.7813 35.0274 55.6517C34.9843 55.5221 34.952 55.4087 34.9304 55.3115C34.9304 55.3007 34.9089 55.2467 34.8658 55.1495C34.8335 55.0415 34.7958 54.9281 34.7527 54.8093C34.7203 54.6905 34.6826 54.5825 34.6395 54.4853C34.6072 54.3881 34.5857 54.3341 34.5749 54.3233C34.5533 54.2694 34.5318 54.2208 34.5102 54.1776C34.4995 54.1236 34.4833 54.0642 34.4617 53.9994C34.4186 53.859 34.3648 53.7186 34.3001 53.5782C34.2355 53.427 34.1708 53.2866 34.1062 53.157C34.0523 53.049 34.0146 52.9464 33.993 52.8492C33.9715 52.7412 33.9446 52.6386 33.9122 52.5414C33.8907 52.4874 33.8691 52.4388 33.8476 52.3957C33.8368 52.3525 33.8207 52.3039 33.7991 52.2499C33.7776 52.1851 33.756 52.1203 33.7345 52.0555C33.7129 51.9799 33.6914 51.9043 33.6698 51.8287C33.6159 51.8503 33.589 51.8989 33.589 51.9745C33.5998 52.0393 33.5998 52.0987 33.589 52.1527C33.5674 52.2715 33.5567 52.3903 33.5567 52.509C33.5567 52.617 33.5513 52.7304 33.5405 52.8492C33.519 52.9788 33.4974 53.103 33.4759 53.2218C33.4543 53.3406 33.4382 53.4594 33.4274 53.5782C33.4274 53.8698 33.4112 54.1614 33.3789 54.4529C33.3573 54.7121 33.3304 54.9767 33.2981 55.2467C33.2658 55.5059 33.2442 55.7759 33.2334 56.0567C33.2334 56.2618 33.2119 56.467 33.1688 56.6722C33.1257 56.8666 33.1149 57.0718 33.1365 57.2878C33.1149 57.331 33.1041 57.3634 33.1041 57.385C33.1041 57.4066 33.1041 57.439 33.1041 57.4822C33.1041 57.5362 33.0988 57.5956 33.088 57.6604C33.088 57.7252 33.088 57.7846 33.088 57.8386C33.088 57.9358 33.0988 58.0006 33.1203 58.033C33.088 58.1301 33.0718 58.2381 33.0718 58.3569C33.0718 58.4649 33.0718 58.5729 33.0718 58.6809C33.0503 58.7241 33.0341 58.7673 33.0233 58.8105C33.0233 58.8537 33.0072 58.8969 32.9748 58.9401C32.9856 59.1237 32.9317 59.2155 32.8132 59.2155C32.7809 59.2155 32.7432 59.2047 32.7001 59.1831C32.6678 59.1723 32.6408 59.1507 32.6193 59.1183C32.5008 59.1291 32.4307 59.1021 32.4092 59.0373C32.3984 58.9725 32.3661 58.9455 32.3122 58.9563C32.1829 59.0103 32.1075 59.0265 32.0859 59.0049C32.0752 58.9833 32.0428 58.9779 31.989 58.9887C31.9028 58.9023 31.8435 58.8645 31.8112 58.8753C31.7896 58.8861 31.7681 58.8915 31.7465 58.8915C31.6496 58.8591 31.5957 58.8537 31.5849 58.8753C31.5741 58.8861 31.5526 58.8915 31.5203 58.8915C31.4664 58.8375 31.391 58.8105 31.294 58.8105C31.2078 58.8105 31.1324 58.8051 31.0677 58.7943C31.0569 58.7511 31.0462 58.7133 31.0354 58.6809C31.0354 58.6377 31.0354 58.5891 31.0354 58.5351C31.0354 58.4703 31.0354 58.4109 31.0354 58.3569C31.0462 58.2921 31.0516 58.2273 31.0516 58.1625C31.0516 58.1085 31.0462 58.0545 31.0354 58.0006C31.0354 57.9358 31.0354 57.8656 31.0354 57.79C31.0354 57.7144 31.0408 57.6442 31.0516 57.5794C31.0623 57.5038 31.0677 57.4228 31.0677 57.3364C31.0677 57.304 31.0623 57.277 31.0516 57.2554C31.0408 57.223 31.0354 57.1852 31.0354 57.142C31.1 57.0016 31.127 56.8936 31.1162 56.818C31.1162 56.7316 31.1216 56.6506 31.1324 56.575C31.1539 56.3914 31.1701 56.2132 31.1809 56.0405C31.2024 55.8569 31.224 55.6733 31.2455 55.4897C31.2455 55.1873 31.2509 54.9389 31.2617 54.7445C31.2832 54.5393 31.3102 54.3341 31.3425 54.129C31.364 54.0318 31.3802 53.94 31.391 53.8536C31.4125 53.7672 31.4341 53.6754 31.4556 53.5782C31.4772 53.4162 31.4879 53.2488 31.4879 53.076C31.4987 52.8924 31.5149 52.7142 31.5364 52.5414C31.558 52.2715 31.5849 52.0069 31.6172 51.7477C31.6496 51.4777 31.6765 51.2131 31.698 50.9539C31.7196 50.7487 31.7411 50.549 31.7627 50.3546C31.795 50.1494 31.8112 49.955 31.8112 49.7714C31.8112 49.6742 31.822 49.55 31.8435 49.3988C31.8758 49.2476 31.8974 49.118 31.9081 49.01C31.9297 48.7508 31.9459 48.4971 31.9566 48.2487C31.9782 48.0003 31.989 47.7519 31.989 47.5035V47.3253C31.989 47.3037 31.9997 47.2821 32.0213 47.2605C32.0428 47.2389 32.0536 47.2011 32.0536 47.1471C32.0536 47.0499 32.0752 46.9851 32.1183 46.9527C32.1721 46.9095 32.2152 46.8447 32.2476 46.7584C32.3014 46.7584 32.3607 46.7638 32.4253 46.7746C32.5008 46.7854 32.5546 46.8177 32.587 46.8717C32.6624 46.8501 32.7378 46.8393 32.8132 46.8393C32.8886 46.8393 32.9533 46.8123 33.0072 46.7584C33.0718 46.7584 33.1203 46.7746 33.1526 46.807C33.1849 46.8393 33.228 46.8663 33.2819 46.8879C33.325 46.8663 33.3681 46.8501 33.4112 46.8393C33.4543 46.8177 33.4974 46.7962 33.5405 46.7746C33.5728 46.7962 33.5944 46.8231 33.6052 46.8555C33.6267 46.8771 33.6536 46.8933 33.686 46.9041C33.8476 46.8609 33.9553 46.8555 34.0092 46.8879C34.0308 46.9311 34.0415 46.9743 34.0415 47.0175C34.0523 47.0607 34.0631 47.1039 34.0739 47.1471C34.1816 47.2551 34.2516 47.3793 34.284 47.5197C34.3163 47.6493 34.3756 47.7681 34.4617 47.8761C34.4833 47.9409 34.5048 48.0057 34.5264 48.0705C34.5587 48.1353 34.5857 48.2109 34.6072 48.2973L34.6557 48.4917C34.6988 48.5997 34.7527 48.7292 34.8173 48.8804C34.8712 49.0856 34.9197 49.2962 34.9628 49.5122C35.0059 49.7282 35.0759 49.928 35.1729 50.1116C35.1837 50.1764 35.1998 50.2574 35.2214 50.3546C35.2537 50.441 35.2806 50.5166 35.3022 50.5813C35.3776 50.7649 35.453 50.9485 35.5284 51.1321C35.6146 51.3049 35.6901 51.4939 35.7547 51.6991C35.8194 51.9043 35.8732 52.1149 35.9163 52.3309C35.9702 52.5468 36.0349 52.7574 36.1103 52.9626C36.1749 53.157 36.2234 53.2974 36.2557 53.3838C36.2881 53.4702 36.3312 53.5566 36.385 53.643C36.385 53.6754 36.3904 53.7294 36.4012 53.805C36.4227 53.8806 36.4497 53.9616 36.482 54.048C36.5143 54.1236 36.5466 54.1992 36.579 54.2748C36.6113 54.3395 36.6436 54.3773 36.6759 54.3881C36.7083 54.3665 36.7244 54.3341 36.7244 54.291C36.7352 54.2478 36.7568 54.21 36.7891 54.1776C36.7999 54.0588 36.816 53.913 36.8376 53.7402C36.8699 53.5674 36.913 53.427 36.9669 53.319C36.9669 53.265 36.9776 53.1678 36.9992 53.0274C37.0315 52.8762 37.0692 52.7196 37.1123 52.5576C37.1554 52.3849 37.1931 52.2283 37.2255 52.0879C37.2686 51.9475 37.3063 51.8611 37.3386 51.8287C37.3601 51.6883 37.3763 51.6019 37.3871 51.5695C37.4086 51.5371 37.4302 51.5101 37.4517 51.4885C37.4625 51.4021 37.484 51.3211 37.5164 51.2455C37.5487 51.1699 37.5702 51.0889 37.581 51.0025C37.6026 50.8189 37.6295 50.6677 37.6618 50.549C37.6942 50.4302 37.7372 50.2844 37.7911 50.1116C37.8342 49.9604 37.8719 49.8092 37.9043 49.658C37.9474 49.496 37.9958 49.3394 38.0497 49.1882C38.179 48.7778 38.2921 48.4161 38.3891 48.1029C38.4969 47.7789 38.6262 47.4657 38.777 47.1633C38.8093 47.0661 38.8363 47.0067 38.8578 46.9851C38.8794 46.9635 38.9009 46.9419 38.9225 46.9203C39.0087 46.8879 39.0949 46.8717 39.1811 46.8717C39.278 46.8717 39.375 46.8771 39.472 46.8879C39.5797 46.8447 39.6605 46.7962 39.7144 46.7422C39.7575 46.7962 39.8221 46.8231 39.9083 46.8231C40.0161 46.8231 40.0915 46.7908 40.1346 46.726C40.1777 46.7476 40.21 46.753 40.2316 46.7422C40.2639 46.7314 40.307 46.7368 40.3609 46.7584C40.3824 46.7368 40.4094 46.7152 40.4417 46.6936C40.474 46.6612 40.5063 46.645 40.5387 46.645C40.6249 46.753 40.6895 46.8393 40.7326 46.9041C40.7865 46.9581 40.8242 47.0229 40.8457 47.0985C40.8781 47.1957 40.8942 47.3037 40.8942 47.4225C40.905 47.5305 40.9373 47.6331 40.9912 47.7303C40.9804 47.8707 40.9858 48.0867 41.0074 48.3783C41.0397 48.6591 41.072 48.9614 41.1043 49.2854C41.1474 49.5986 41.1905 49.8902 41.2336 50.1602C41.2767 50.4302 41.3144 50.5975 41.3468 50.6623C41.336 50.8027 41.3414 50.9215 41.3629 51.0187C41.3845 51.1159 41.3953 51.2131 41.3953 51.3103C41.3953 51.3427 41.4006 51.4129 41.4114 51.5209C41.4222 51.6181 41.433 51.7261 41.4437 51.8449C41.4545 51.9529 41.4653 52.0609 41.4761 52.1689C41.4976 52.2661 41.5138 52.3363 41.5245 52.3795C41.5245 52.5738 41.5569 52.725 41.6215 52.833C41.6754 53.103 41.7185 53.373 41.7508 53.643C41.7939 53.913 41.8316 54.1884 41.864 54.4691C41.8855 54.6095 41.8963 54.7445 41.8963 54.8741C41.907 55.0037 41.9232 55.1387 41.9448 55.2791C41.9555 55.3331 41.9663 55.3871 41.9771 55.4411C41.9986 55.4951 42.0148 55.5491 42.0256 55.6031C42.0471 55.7111 42.0633 55.8137 42.0741 55.9109C42.0848 56.0081 42.101 56.1053 42.1225 56.2024C42.1333 56.2564 42.1495 56.3158 42.171 56.3806C42.1926 56.4346 42.1926 56.494 42.171 56.5588C42.1926 56.6344 42.198 56.7154 42.1872 56.8018C42.1872 56.8882 42.2087 56.9638 42.2518 57.0286C42.2518 57.2554 42.268 57.4552 42.3003 57.628C42.3111 57.7576 42.3434 57.8872 42.3973 58.0168C42.4188 58.1463 42.435 58.2813 42.4458 58.4217C42.4673 58.5621 42.4889 58.7025 42.5104 58.8429Z" fill="#FFF0DD"/>
<path d="M48.0734 46.6288C48.1273 46.8231 48.1811 47.0175 48.235 47.2119C48.2889 47.3955 48.3535 47.5791 48.429 47.7627C48.5906 47.7843 48.6876 47.8005 48.7199 47.8113C48.763 47.8221 48.8115 47.8383 48.8653 47.8599C48.9839 48.1407 49.0539 48.4431 49.0754 48.767C49.1078 49.0802 49.1509 49.388 49.2047 49.6904C49.4095 49.9604 49.5549 50.252 49.6411 50.5651C49.7381 50.8675 49.8458 51.1753 49.9644 51.4885C49.9967 51.5965 50.0182 51.6667 50.029 51.6991C50.0398 51.7207 50.0452 51.7423 50.0452 51.7639C50.1098 51.9475 50.1745 52.1365 50.2391 52.3309C50.3038 52.5252 50.3738 52.7142 50.4492 52.8978C50.4815 52.995 50.5139 53.0922 50.5462 53.1894C50.5893 53.2758 50.627 53.3622 50.6593 53.4486C50.6916 53.5566 50.7186 53.67 50.7401 53.7888C50.7725 53.8968 50.8048 54.0048 50.8371 54.1128C50.9125 54.3287 50.9933 54.5447 51.0795 54.7607C51.1657 54.9767 51.2519 55.1927 51.3381 55.4087C51.3704 55.4843 51.4297 55.6517 51.5159 55.9109C51.6129 56.17 51.7099 56.4454 51.8068 56.737C51.9038 57.0178 51.99 57.2824 52.0654 57.5308C52.1516 57.7684 52.1947 57.9142 52.1947 57.9682C52.1947 58.0545 52.2001 58.1463 52.2109 58.2435C52.2324 58.3299 52.2486 58.4217 52.2594 58.5189C52.2163 58.6269 52.1624 58.6863 52.0977 58.6971C52.0331 58.7079 51.9738 58.7025 51.92 58.6809C51.8661 58.7025 51.8122 58.7241 51.7583 58.7457C51.7152 58.7673 51.6721 58.7889 51.629 58.8105C51.5967 58.8213 51.5698 58.8375 51.5482 58.8591C51.5267 58.8807 51.4997 58.8915 51.4674 58.8915C51.3381 58.8915 51.2519 58.9023 51.2088 58.9239C51.1765 58.9563 51.1226 58.9725 51.0472 58.9725C50.9502 58.9401 50.8856 58.9347 50.8533 58.9563C50.8317 58.9887 50.8102 59.0103 50.7886 59.0211C50.7455 59.0427 50.697 59.0535 50.6432 59.0535C50.5893 59.0535 50.5354 59.0589 50.4815 59.0697C50.46 59.0265 50.4384 58.9833 50.4169 58.9401C50.4061 58.8969 50.3846 58.8483 50.3522 58.7943C50.2337 58.6215 50.1475 58.4541 50.0936 58.2921C50.0506 58.1301 50.0128 58.0006 49.9805 57.9034C49.9266 57.7846 49.8782 57.6658 49.8351 57.547C49.8027 57.4282 49.7596 57.3094 49.7058 57.1906C49.6411 57.2122 49.5819 57.2392 49.528 57.2716C49.4741 57.2932 49.431 57.3256 49.3987 57.3688C49.2694 57.3688 49.2047 57.385 49.2047 57.4174C49.2047 57.4498 49.194 57.4822 49.1724 57.5146C49.1078 57.5362 49.0539 57.5578 49.0108 57.5794C48.9785 57.601 48.9192 57.6064 48.833 57.5956C48.7791 57.6496 48.7253 57.6982 48.6714 57.7414C48.6175 57.7738 48.5475 57.7954 48.4613 57.8062C48.3751 57.8926 48.2835 57.9682 48.1865 58.033C48.1003 58.0869 47.998 58.0977 47.8795 58.0653C47.7286 58.0977 47.5778 58.1301 47.4269 58.1625C47.2761 58.1841 47.1252 58.1949 46.9744 58.1949C46.802 58.1409 46.6942 58.0923 46.6511 58.0491C46.608 58.006 46.5434 57.9844 46.4572 57.9844C46.468 57.8332 46.4356 57.7306 46.3602 57.6766C46.3602 57.6442 46.3602 57.5956 46.3602 57.5308C46.371 57.4552 46.3872 57.4066 46.4087 57.385C46.5488 57.3202 46.6296 57.25 46.6511 57.1744C46.6727 57.0988 46.7319 57.0502 46.8289 57.0286C46.8505 56.9854 46.872 56.9476 46.8936 56.9152C46.9259 56.872 46.9528 56.8288 46.9744 56.7856C47.0283 56.764 47.0714 56.7478 47.1037 56.737C47.1468 56.7262 47.1791 56.6938 47.2006 56.6398C47.2545 56.6398 47.3353 56.6074 47.4431 56.5426C47.5508 56.467 47.6209 56.4076 47.6532 56.3644C47.7394 56.332 47.7933 56.305 47.8148 56.2834C47.8364 56.251 47.8633 56.224 47.8956 56.2024C48.0034 56.2132 48.0734 56.2024 48.1057 56.17C48.1919 56.2132 48.2889 56.2348 48.3966 56.2348C48.4397 56.2348 48.4774 56.2348 48.5098 56.2348C48.5421 56.224 48.5798 56.2186 48.6229 56.2186C48.7091 56.1323 48.8168 56.0783 48.9461 56.0567C49.0862 56.0243 49.1994 55.9649 49.2855 55.8785C49.2532 55.7921 49.2263 55.6895 49.2047 55.5707C49.1832 55.4411 49.1455 55.3385 49.0916 55.2629C49.0701 55.1225 49.0323 54.9875 48.9785 54.8579C48.9354 54.7283 48.8977 54.6041 48.8653 54.4853C48.7468 54.0318 48.6067 53.589 48.4451 53.157C48.2835 52.725 48.1488 52.2823 48.0411 51.8287C48.0195 51.7747 47.9926 51.7207 47.9603 51.6667C47.9387 51.6019 47.9172 51.5425 47.8956 51.4885C47.8417 51.6181 47.8148 51.6937 47.8148 51.7153C47.8148 51.7261 47.804 51.7423 47.7825 51.7639C47.7717 51.8179 47.7609 51.8665 47.7502 51.9097C47.7394 51.9421 47.7232 51.9853 47.7017 52.0393C47.6693 52.1257 47.637 52.2229 47.6047 52.3309C47.5831 52.428 47.5616 52.5198 47.5401 52.6062C47.4862 52.7898 47.4377 52.9842 47.3946 53.1894C47.3515 53.3838 47.303 53.5782 47.2491 53.7726C47.1414 54.1074 47.0283 54.4421 46.9097 54.7769C46.802 55.1009 46.6942 55.4303 46.5865 55.7651C46.5649 55.9163 46.538 56.0351 46.5057 56.1215C46.4841 56.197 46.4572 56.278 46.4249 56.3644C46.4033 56.44 46.3818 56.5156 46.3602 56.5912C46.3494 56.6668 46.3441 56.7262 46.3441 56.7694C46.1932 57.115 46.0639 57.466 45.9562 57.8224C45.8592 58.1787 45.7353 58.5243 45.5844 58.8591C45.5413 58.8807 45.5036 58.9077 45.4713 58.9401C45.439 58.9725 45.4013 58.9887 45.3582 58.9887C45.272 58.9887 45.2235 58.9671 45.2127 58.9239C45.2127 58.8807 45.1912 58.8591 45.1481 58.8591C45.105 58.8591 45.0673 58.8699 45.0349 58.8915C45.0026 58.9023 44.9703 58.9185 44.938 58.9401C44.8841 58.9185 44.8194 58.9023 44.744 58.8915C44.6794 58.8915 44.6309 58.8699 44.5986 58.8267C44.5231 58.8807 44.4477 58.9077 44.3723 58.9077C44.2861 58.9077 44.1999 58.8807 44.1137 58.8267C44.0491 58.8483 43.9844 58.8591 43.9198 58.8591C43.8874 58.8591 43.8497 58.8537 43.8066 58.8429C43.7635 58.8321 43.7312 58.8159 43.7097 58.7943C43.6989 58.7511 43.6935 58.7079 43.6935 58.6647C43.6935 58.6215 43.6935 58.5729 43.6935 58.5189C43.6935 58.4109 43.6827 58.3299 43.6612 58.2759C43.8551 57.7252 44.0437 57.169 44.2268 56.6074C44.41 56.0351 44.5932 55.4573 44.7763 54.8741C44.8733 54.6041 44.9649 54.3395 45.0511 54.0804C45.1481 53.8212 45.2397 53.5566 45.3259 53.2866C45.369 53.1354 45.4067 52.995 45.439 52.8654C45.4713 52.725 45.5144 52.59 45.5683 52.4604C45.6545 52.1797 45.7407 51.8989 45.8269 51.6181C45.9238 51.3265 46.01 51.0403 46.0855 50.7595C46.1286 50.7271 46.1555 50.6893 46.1663 50.6461C46.1771 50.6029 46.1932 50.5543 46.2148 50.5004L46.1986 50.2898C46.274 50.1818 46.3225 50.09 46.3441 50.0144C46.3764 49.928 46.3979 49.8416 46.4087 49.7552C46.4626 49.6256 46.5111 49.4852 46.5542 49.334C46.5973 49.1828 46.6296 49.0424 46.6511 48.9128C46.6727 48.74 46.6835 48.5457 46.6835 48.3297C46.6942 48.1029 46.7266 47.9139 46.7804 47.7627C46.802 47.7195 46.8181 47.6925 46.8289 47.6817C46.8505 47.6601 46.8612 47.6223 46.8612 47.5683C46.8828 47.5467 46.9043 47.5251 46.9259 47.5035C46.9582 47.4711 46.9798 47.4387 46.9905 47.4063C47.0444 47.3199 47.0606 47.2443 47.039 47.1795C47.0283 47.1147 47.0229 47.0445 47.0229 46.9689C47.1198 46.9149 47.1629 46.8663 47.1522 46.8231C47.1414 46.78 47.136 46.7368 47.136 46.6936C47.136 46.6396 47.1683 46.591 47.233 46.5478C47.3084 46.4938 47.3569 46.4398 47.3784 46.3858C47.4431 46.3966 47.5077 46.4074 47.5724 46.4182C47.637 46.4182 47.7017 46.4128 47.7663 46.402C47.8417 46.5424 47.9333 46.6126 48.0411 46.6126L48.0734 46.6288Z" fill="#FFF0DD"/>
<path d="M57.0627 46.9527C57.0843 46.9959 57.1058 47.0283 57.1274 47.0499C57.1597 47.0607 57.1812 47.0931 57.192 47.1471C57.2674 47.2011 57.3267 47.2443 57.3698 47.2767C57.4129 47.2983 57.4398 47.3415 57.4506 47.4063C57.5476 47.4819 57.6014 47.5305 57.6122 47.5521C57.6338 47.5737 57.6499 47.6007 57.6607 47.6331C57.7146 47.6763 57.7631 47.7141 57.8062 47.7465C57.86 47.7789 57.8977 47.8275 57.9193 47.8923C58.0055 47.9679 58.0594 48.0273 58.0809 48.0705C58.1025 48.1137 58.1186 48.1623 58.1294 48.2163C58.0863 48.2919 58.0001 48.3945 57.8708 48.5241C57.7415 48.6537 57.5961 48.794 57.4344 48.9452C57.2728 49.0856 57.1166 49.226 56.9657 49.3664C56.8149 49.496 56.6964 49.5986 56.6102 49.6742C56.5886 49.7174 56.5617 49.7552 56.5294 49.7876C56.497 49.82 56.4701 49.8578 56.4486 49.901C56.3839 49.955 56.3246 50.0144 56.2708 50.0792C56.2169 50.1332 56.1523 50.1764 56.0768 50.2088C55.9691 50.36 55.8182 50.5112 55.6243 50.6623C55.4303 50.8027 55.3011 50.9431 55.2364 51.0835C55.2472 51.1159 55.2687 51.1483 55.3011 51.1807C55.3441 51.2131 55.3765 51.2401 55.398 51.2617C55.4842 51.3481 55.5866 51.4291 55.7051 51.5047C55.8236 51.5695 55.926 51.6451 56.0122 51.7315C56.0984 51.8071 56.1846 51.8827 56.2708 51.9583C56.357 52.0231 56.4432 52.0933 56.5294 52.1689C56.5725 52.2121 56.6263 52.2769 56.691 52.3633C56.7987 52.4496 56.9011 52.5306 56.9981 52.6062C57.1058 52.671 57.2082 52.7466 57.3051 52.833C57.5099 53.0058 57.7092 53.184 57.9031 53.3676C58.0971 53.5404 58.3018 53.7132 58.5173 53.886L58.6466 54.0318C58.6466 54.1182 58.6681 54.2208 58.7112 54.3395C58.7651 54.4475 58.8136 54.5393 58.8567 54.6149C58.8351 54.7229 58.8351 54.7931 58.8567 54.8255C58.889 54.8471 58.916 54.8687 58.9375 54.8903C58.9267 55.0955 58.9321 55.2305 58.9537 55.2953C58.7705 55.4573 58.5981 55.6085 58.4365 55.7489C58.2856 55.8785 58.151 56.0081 58.0324 56.1377C57.9355 56.2564 57.8331 56.3644 57.7254 56.4616C57.6284 56.548 57.5206 56.6452 57.4021 56.7532C57.3375 56.8396 57.2836 56.899 57.2405 56.9314C57.1651 57.007 57.0896 57.0664 57.0142 57.1096C56.8849 57.2284 56.7556 57.3418 56.6263 57.4498C56.5078 57.5578 56.3893 57.6658 56.2708 57.7738C56.1846 57.8494 56.1038 57.925 56.0283 58.0006C55.9529 58.0653 55.8775 58.1409 55.8021 58.2273C55.7374 58.2921 55.662 58.3677 55.5758 58.4541C55.5004 58.5405 55.4196 58.6107 55.3334 58.6647C55.3011 58.7295 55.258 58.7889 55.2041 58.8429C55.1502 58.8861 55.1017 58.9347 55.0586 58.9887C54.9832 59.0319 54.9132 59.0751 54.8485 59.1183C54.7839 59.1615 54.7084 59.2047 54.6222 59.2479C54.536 59.1831 54.4499 59.1237 54.3637 59.0697C54.2882 59.0157 54.202 58.9779 54.1051 58.9563C54.0404 58.9023 53.9919 58.8483 53.9596 58.7943C53.9273 58.7403 53.868 58.7025 53.7818 58.6809C53.7603 58.6485 53.7333 58.6161 53.701 58.5837C53.6795 58.5405 53.6579 58.4973 53.6364 58.4541C53.5071 58.4433 53.4047 58.3623 53.3293 58.2111C53.3508 58.1463 53.3778 58.0977 53.4101 58.0653C53.4532 58.033 53.464 57.9736 53.4424 57.8872C53.5071 57.7792 53.5825 57.6874 53.6687 57.6118C53.7657 57.5254 53.8572 57.439 53.9434 57.3526C54.0404 57.2662 54.1266 57.1798 54.202 57.0934C54.2882 56.9962 54.3798 56.9044 54.4768 56.818C54.5307 56.764 54.5845 56.7154 54.6384 56.6722C54.6923 56.6182 54.7515 56.5642 54.8162 56.5102C54.9347 56.3914 55.0532 56.2834 55.1718 56.1862C55.3011 56.0783 55.4303 55.9649 55.5596 55.8461C55.732 55.6733 55.9098 55.5113 56.093 55.3601C56.2762 55.1981 56.4432 55.0199 56.594 54.8255C56.5832 54.7823 56.5671 54.7553 56.5455 54.7445C56.524 54.7229 56.5078 54.6959 56.497 54.6635C56.3246 54.5015 56.1523 54.3449 55.9799 54.1938C55.8182 54.0318 55.6405 53.8914 55.4465 53.7726C55.3819 53.7078 55.3388 53.6538 55.3172 53.6106C55.1233 53.4702 54.9347 53.3136 54.7515 53.1408C54.5791 52.968 54.3852 52.8222 54.1697 52.7034C54.1266 52.6494 54.0727 52.6062 54.0081 52.5738C53.9542 52.5306 53.9003 52.4928 53.8465 52.4604C53.8141 52.4065 53.7764 52.3633 53.7333 52.3309C53.701 52.2877 53.6579 52.2553 53.604 52.2337C53.5178 52.1581 53.4586 52.0987 53.4263 52.0555C53.4047 52.0015 53.3616 51.9691 53.297 51.9583C53.2754 51.9043 53.2377 51.8611 53.1838 51.8287C53.1407 51.7963 53.0922 51.7585 53.0384 51.7153C53.0168 51.6505 52.9845 51.5965 52.9414 51.5533C52.9306 51.4669 52.936 51.4075 52.9576 51.3751C52.9791 51.3319 52.9953 51.2995 53.006 51.2779C52.9953 51.2131 52.9683 51.1645 52.9252 51.1321C52.8714 51.0997 52.8444 51.0457 52.8444 50.9701C52.8444 50.9269 52.8606 50.8999 52.8929 50.8891C52.9145 50.8675 52.9306 50.8405 52.9414 50.8081L52.9899 50.5651C53.0761 50.5004 53.1461 50.4248 53.2 50.3384C53.2646 50.2412 53.3454 50.1656 53.4424 50.1116C53.5502 49.9496 53.6848 49.8146 53.8465 49.7066C53.9003 49.6202 53.965 49.55 54.0404 49.496C54.1266 49.442 54.1966 49.3718 54.2505 49.2854C54.3367 49.2314 54.4068 49.172 54.4606 49.1072C54.5253 49.0424 54.6007 48.983 54.6869 48.929C54.7084 48.8858 54.73 48.8534 54.7515 48.8318C54.7839 48.7994 54.8054 48.767 54.8162 48.7346C55.1071 48.4539 55.3603 48.2109 55.5758 48.0057C55.8021 47.8005 56.0337 47.5953 56.2708 47.3901C56.3354 47.3361 56.4001 47.2767 56.4647 47.2119C56.5294 47.1471 56.5994 47.0877 56.6748 47.0337C56.6964 47.0121 56.7233 47.0013 56.7556 47.0013C56.788 47.0013 56.8203 46.9905 56.8526 46.9689C56.9819 46.9689 57.0519 46.9635 57.0627 46.9527Z" fill="#FFF0DD"/>
<path d="M67.5713 46.9041C67.7005 46.8717 67.7921 46.8609 67.846 46.8717C67.8999 46.8717 67.9538 46.8771 68.0076 46.8879C68.0723 46.9311 68.1261 46.9851 68.1692 47.0499C68.1692 47.2767 68.1639 47.5035 68.1531 47.7303V48.3945C68.1531 48.8048 68.1585 49.2152 68.1692 49.6256C68.18 50.036 68.18 50.4464 68.1692 50.8567C68.1908 50.9539 68.1962 51.0079 68.1854 51.0187C68.1746 51.0295 68.1692 51.0457 68.1692 51.0673C68.1692 51.4777 68.18 51.8827 68.2016 52.2823C68.2231 52.6818 68.2339 53.0868 68.2339 53.4972V55.6517C68.2339 56.1161 68.2447 56.575 68.2662 57.0286C68.2985 57.4822 68.3147 57.9358 68.3147 58.3893C68.3147 58.4325 68.2878 58.4919 68.2339 58.5675C68.2123 58.6539 68.18 58.7241 68.1369 58.7781C68.0399 58.7889 67.9484 58.7727 67.8622 58.7295C67.8191 58.7295 67.7867 58.7457 67.7652 58.7781C67.7544 58.7997 67.7329 58.8213 67.7005 58.8429C67.6143 58.8429 67.5443 58.8645 67.4904 58.9077C67.4366 58.9509 67.3719 58.9725 67.2965 58.9725C67.2318 58.9725 67.1672 58.9617 67.1026 58.9401C67.0487 58.9293 66.984 58.9239 66.9086 58.9239C66.8871 58.9239 66.8547 58.9401 66.8116 58.9725C66.7685 59.0157 66.7362 59.0427 66.7147 59.0535C66.6608 59.0535 66.6123 59.0589 66.5692 59.0697C66.5261 59.0913 66.4776 59.1021 66.4237 59.1021C66.3699 59.0589 66.3429 58.9941 66.3429 58.9077C66.3537 58.8213 66.3214 58.7673 66.246 58.7457V58.5675C66.2567 58.5027 66.2621 58.4379 66.2621 58.3731C66.2621 57.952 66.2514 57.5308 66.2298 57.1096C66.2083 56.6776 66.1921 56.251 66.1813 55.8299C66.1705 55.6463 66.1652 55.4681 66.1652 55.2953C66.1759 55.1117 66.1813 54.9281 66.1813 54.7445V54.4529C66.1813 54.3557 66.1705 54.264 66.149 54.1776C66.0843 54.1668 66.0251 54.1776 65.9712 54.21C65.9281 54.2316 65.8796 54.2424 65.8258 54.2424C65.5995 54.3179 64.9274 54.4517 64.852 54.5273V52.3795C65.1214 52.2391 65.8689 51.9313 66.149 51.8449C66.1274 51.2509 66.1167 50.6623 66.1167 50.0792V48.3135V47.8113C66.1167 47.6385 66.1274 47.4711 66.149 47.3091C66.1598 47.2659 66.1705 47.2335 66.1813 47.2119C66.2029 47.1795 66.2136 47.1363 66.2136 47.0823C66.246 47.0283 66.2837 46.9905 66.3268 46.9689C66.3699 46.9473 66.4022 46.9149 66.4237 46.8717L66.4884 46.9365L66.5854 46.9689C66.6716 46.9473 66.7201 46.9311 66.7308 46.9203L66.7955 46.8879C66.8493 46.8663 66.9194 46.8555 67.0056 46.8555H67.2157H67.4096L67.5713 46.9041Z" fill="#FFF0DD"/>
<path d="M63.8863 55.443C63.7678 55.4754 63.6493 55.5132 63.5307 55.5564C63.4122 55.578 63.3099 55.6104 63.2237 55.6536L62.9651 55.2953C62.8897 55.8029 62.8466 56.2888 62.8358 56.7532C62.8358 57.2068 62.8519 57.6604 62.8843 58.1139C62.8627 58.1787 62.8519 58.2543 62.8519 58.3407C62.8519 58.4163 62.8358 58.4811 62.8035 58.5351C62.6849 58.5675 62.6041 58.5729 62.561 58.5513C62.5287 58.5189 62.491 58.4919 62.4479 58.4703C62.4048 58.4811 62.3671 58.5027 62.3348 58.5351C62.3132 58.5675 62.2917 58.5945 62.2701 58.6161C62.1839 58.6161 62.1139 58.6377 62.06 58.6809C62.0169 58.7133 61.9738 58.7403 61.9307 58.7619C61.8984 58.7727 61.8661 58.7727 61.8337 58.7619C61.8014 58.7511 61.7637 58.7565 61.7206 58.7781C61.6129 58.7781 61.559 58.7673 61.559 58.7457C61.5698 58.7133 61.559 58.6971 61.5267 58.6971C61.4836 58.6971 61.4512 58.7187 61.4297 58.7619C61.4189 58.7943 61.392 58.8213 61.3489 58.8429C61.3058 58.8645 61.2573 58.8807 61.2034 58.8915C61.1495 58.8915 61.0957 58.9023 61.0418 58.9239C60.9879 58.8699 60.961 58.8105 60.961 58.7457C60.961 58.6809 60.9341 58.6215 60.8802 58.5675C60.8586 58.4163 60.8425 58.2705 60.8317 58.1301C60.8317 57.979 60.8155 57.8278 60.7832 57.6766C60.8048 57.3742 60.8101 57.1312 60.7994 56.9476V56.3806C60.7994 56.2078 60.794 56.0351 60.7832 55.8623L60.7509 55.3439C60.7293 55.0307 60.7078 54.7121 60.6862 54.3881C60.6755 54.0642 60.6701 53.7402 60.6701 53.4162C60.6701 53.1462 60.6808 52.8816 60.7024 52.6224C60.7347 52.3633 60.7509 52.0987 60.7509 51.8287V51.2941C60.7617 51.1105 60.767 50.9269 60.767 50.7433C60.767 50.5921 60.7617 50.4464 60.7509 50.306V49.8686C60.7509 49.7066 60.7617 49.55 60.7832 49.3988C60.8048 49.2368 60.8155 49.0802 60.8155 48.929C60.8155 48.7454 60.8048 48.5673 60.7832 48.3945C60.7617 48.2109 60.7509 48.0273 60.7509 47.8437C60.7509 47.7897 60.7563 47.7411 60.767 47.6979C60.7778 47.6439 60.7832 47.5899 60.7832 47.5359C60.7724 47.4171 60.7778 47.3469 60.7994 47.3253C60.8209 47.2929 60.8425 47.2551 60.864 47.2119C60.9179 47.2011 60.9771 47.1849 61.0418 47.1633C61.1064 47.1417 61.1657 47.1417 61.2196 47.1633C61.2842 47.0985 61.3704 47.0661 61.4782 47.0661C61.5967 47.0661 61.6829 47.0283 61.7368 46.9527C61.8122 46.9635 61.8607 46.9689 61.8822 46.9689C61.9145 46.9581 61.9415 46.9527 61.963 46.9527C62.06 46.9743 62.1085 46.9743 62.1085 46.9527C62.1193 46.9203 62.1408 46.9041 62.1731 46.9041C62.227 46.9041 62.3078 46.9095 62.4156 46.9203C62.5341 46.9203 62.6149 46.9419 62.658 46.9851C62.7657 47.5575 62.825 48.1407 62.8358 48.7346C62.8466 49.3286 62.8519 49.9172 62.8519 50.5004C62.8519 50.6515 62.8573 50.8081 62.8681 50.9701C62.8789 51.1213 62.8735 51.2725 62.8519 51.4237C62.8519 51.4885 62.8466 51.5533 62.8358 51.6181C62.825 51.6721 62.8196 51.7315 62.8196 51.7963C62.8196 51.9799 62.8088 52.1743 62.7873 52.3795C62.7657 52.5738 62.755 52.7628 62.755 52.9464C62.8843 53.022 62.992 53.049 63.0782 53.0274C63.1752 53.4829 63.2668 53.4505 63.353 53.4181C63.4607 53.3857 63.5577 53.3533 63.6439 53.3209C63.7409 53.2777 63.8378 53.2399 63.9348 53.2075C64.021 53.1643 64.1449 53.1157 64.2419 53.0941L63.8863 55.443Z" fill="#FFF0DD"/>
<path d="M40.5565 33.0904C40.558 33.0925 40.5593 33.0942 40.5603 33.0957L40.6567 33.2747L40.8482 33.3813C40.8682 33.3925 40.8877 33.4033 40.9068 33.4139C40.958 33.4424 41.0057 33.4689 41.0498 33.4937C41.0303 33.5613 41.0166 33.6216 41.0067 33.6694C40.9715 33.8378 40.9538 34.0055 40.9467 34.1433L40.9351 34.1756C40.9349 34.1756 40.9347 34.1756 40.9345 34.1756C40.8161 34.1817 40.7334 34.1881 40.6685 34.193C40.5966 34.1986 40.5464 34.2024 40.4933 34.2024C40.4016 34.2024 40.3149 34.2081 40.2434 34.214C40.2001 34.0561 40.1307 33.9295 40.0793 33.8474C40.0379 33.7813 39.9932 33.7206 39.9487 33.6667L39.9217 33.5915C40.0283 33.5017 40.1622 33.3886 40.2837 33.2758C40.3789 33.1875 40.4596 33.1157 40.5298 33.0548C40.5411 33.0693 40.55 33.0813 40.5565 33.0904Z" stroke="#FFF0DD" stroke-width="1.5"/>
</svg>
