<svg width="20" height="20" viewBox="0 0 23 23" fill="none" xmlns="http://www.w3.org/2000/svg">
<path d="M22.9259 6.78856C22.913 5.82284 22.732 4.86672 22.3908 3.96297C22.0949 3.20066 21.643 2.50835 21.064 1.93026C20.4849 1.35218 19.7915 0.901041 19.0279 0.605666C18.1343 0.270774 17.1902 0.0896912 16.2359 0.0701298C15.0072 0.0153011 14.6177 0 11.4987 0C8.37978 0 7.98001 8.06416e-08 6.76027 0.0701298C5.8064 0.089835 4.86278 0.270915 3.96957 0.605666C3.20587 0.900835 2.5123 1.3519 1.93323 1.93001C1.35416 2.50812 0.902335 3.20054 0.606675 3.96297C0.270553 4.85442 0.089562 5.79668 0.0715238 6.74903C0.0166037 7.97694 0 8.36584 0 11.4796C0 14.5934 -1.00802e-08 14.9912 0.0715238 16.2102C0.0906819 17.1639 0.270768 18.1049 0.606675 18.9988C0.902831 19.761 1.35499 20.4531 1.93425 21.031C2.51352 21.6088 3.20716 22.0597 3.97085 22.3548C4.86162 22.7032 5.8054 22.8972 6.76155 22.9286C7.99151 22.9834 8.38105 23 11.5 23C14.6189 23 15.0187 23 16.2385 22.9286C17.1927 22.9098 18.1368 22.7292 19.0304 22.3943C19.7938 22.0986 20.4871 21.6474 21.0661 21.0693C21.6451 20.4913 22.0971 19.7991 22.3933 19.037C22.7292 18.1445 22.9093 17.2035 22.9285 16.2484C22.9834 15.0218 23 14.6329 23 11.5179C22.9974 8.40409 22.9974 8.00882 22.9259 6.78856ZM11.4911 17.3679C8.22907 17.3679 5.58652 14.7298 5.58652 11.4732C5.58652 8.21665 8.22907 5.5785 11.4911 5.5785C13.057 5.5785 14.5589 6.19955 15.6662 7.30503C16.7735 8.4105 17.3956 9.90985 17.3956 11.4732C17.3956 13.0366 16.7735 14.5359 15.6662 15.6414C14.5589 16.7469 13.057 17.3679 11.4911 17.3679ZM17.6306 6.735C16.8681 6.735 16.2538 6.12041 16.2538 5.36046C16.2538 5.18004 16.2894 5.00138 16.3585 4.83469C16.4277 4.668 16.5291 4.51654 16.6569 4.38896C16.7846 4.26139 16.9364 4.16018 17.1033 4.09114C17.2703 4.02209 17.4492 3.98656 17.63 3.98656C17.8107 3.98656 17.9896 4.02209 18.1566 4.09114C18.3236 4.16018 18.4753 4.26139 18.6031 4.38896C18.7309 4.51654 18.8322 4.668 18.9014 4.83469C18.9706 5.00138 19.0062 5.18004 19.0062 5.36046C19.0062 6.12041 18.3906 6.735 17.6306 6.735Z" fill="#988071"/>
<path d="M11.5 15.5588C13.7416 15.5588 15.5588 13.7416 15.5588 11.5C15.5588 9.25837 13.7416 7.44118 11.5 7.44118C9.25837 7.44118 7.44118 9.25837 7.44118 11.5C7.44118 13.7416 9.25837 15.5588 11.5 15.5588Z" fill="#988071"/>
</svg>
